<svg width="39" height="39" viewBox="0 0 39 39" fill="none" xmlns="http://www.w3.org/2000/svg">
<circle cx="19.1941" cy="19.3715" r="19.188" fill="#522AF9"/>
<g clip-path="url(#clip0_2415_1616)">
<path d="M21.1515 18.8977L23.8327 13.3712C24.0472 12.9502 24.4226 12.687 24.9052 12.687H26.4603C27.1038 12.687 27.3183 13.0554 27.0502 13.687L25.2806 18.9503H26.943C27.7473 18.9503 28.1763 19.3714 28.1763 20.1609V24.8979C28.1763 25.6874 27.6937 26.0558 26.8357 26.0558H22.1167C21.2051 26.0558 20.7761 25.6874 20.7761 24.8979V20.4767C20.7761 19.9504 20.8833 19.4241 21.1515 18.8977ZM10.5337 18.8977L13.215 13.3712C13.4295 12.9502 13.8048 12.687 14.2875 12.687H15.8426C16.4861 12.687 16.7006 13.0554 16.4861 13.687L14.6629 18.9503H16.3252C17.1296 18.9503 17.5586 19.3714 17.5586 20.1609V24.8979C17.5586 25.6874 17.1296 26.0558 16.2716 26.0558H11.499C10.641 26.0558 10.212 25.6874 10.212 24.8979V20.4767C10.212 19.8977 10.3192 19.3714 10.5337 18.8977Z" fill="#73CBD9"/>
</g>
<defs>
<clipPath id="clip0_2415_1616">
<rect width="19.5975" height="17.42" fill="white" transform="translate(9.39542 10.6616)"/>
</clipPath>
</defs>
</svg>
