<svg width="557" height="538" viewBox="0 0 557 538" fill="none" xmlns="http://www.w3.org/2000/svg">
<path d="M381.373 331.242C369.93 318.475 353.482 311.158 336.246 311.158H221.398C198.512 311.158 177.23 324.316 167.235 344.589C164.202 350.66 162.251 357.188 161.448 363.993L150.501 456.106C147.931 477.626 154.228 498.067 168.214 513.65C182.118 529.16 201.714 537.703 223.39 537.703H302.004C322.253 537.703 342.107 529.989 357.922 515.988C373.71 502.008 383.705 483.312 386.071 463.356L396.229 377.973C398.228 361.028 392.816 343.996 381.387 331.242H381.373ZM212.586 463.349L222.731 378C223.064 375.211 225.451 373.109 228.279 373.109H327.543C330.888 373.109 333.485 376.006 333.091 379.293L323.953 456.12C322.715 466.576 312.455 475.746 301.984 475.746H223.37C220.854 475.746 217.346 475.18 214.946 472.512C212.43 469.702 212.273 465.977 212.579 463.349H212.586Z" fill="#2C09BB" fill-opacity="0.3"/>
<path d="M538.43 176.06C525.002 161.103 506.106 152.864 485.232 152.864H369.494C350.306 152.864 334.144 167.106 331.914 185.984L318.526 298.613C318.377 299.88 319.376 300.998 320.668 300.998H336.238C350.68 300.998 364.639 305.411 376.327 313.395C377.755 314.372 379.713 313.51 379.917 311.805L389.586 230.37C390.64 221.497 398.228 214.814 407.244 214.814H485.239C487.204 214.814 489.924 215.231 491.719 217.226C493.602 219.328 493.711 222.245 493.459 224.32L483.512 308.005C482.445 316.926 473.707 324.754 464.807 324.754H394.101C392.204 324.754 391.123 326.904 392.272 328.393C403.409 342.79 408.536 361.008 406.401 379.152L405.789 384.32C405.639 385.586 406.639 386.705 407.931 386.705H464.814C484.267 386.705 503.346 379.3 518.542 365.846C533.712 352.418 543.326 334.456 545.61 315.255L555.565 231.536C558.012 210.778 551.934 191.078 538.444 176.06H538.43Z" fill="#2C09BB" fill-opacity="0.3"/>
<path d="M366.902 66.6152C370.41 70.5364 370.668 75.4412 370.261 78.8706L363.448 136.482C363.189 138.665 364.909 140.578 367.126 140.578H414.545C416.421 140.578 418.005 139.184 418.223 137.338L424.438 85.1633C426.845 64.776 420.888 45.4464 407.67 30.7117C394.514 16.0647 375.986 8 355.506 8H276.872C257.616 8 238.707 15.3505 223.626 28.704C208.565 42.0373 199.033 59.8509 196.762 78.8638L187.311 158.392C186.345 166.49 179.424 172.594 171.196 172.594H88.2784C69.7978 172.594 51.6572 179.648 37.2018 192.449C22.7668 205.237 13.6217 222.323 11.4595 240.554L1.51208 324.253C-0.826896 343.859 4.89816 362.467 17.6333 376.663C30.2937 390.771 48.1351 398.539 67.8532 398.539H128.211C129.911 398.539 131.339 397.279 131.536 395.608L135.52 362.077C136.085 357.333 137.145 352.705 138.675 348.245C139.307 346.399 137.954 344.485 135.989 344.485H67.8532C65.0723 344.485 61.1695 343.838 58.3954 340.753C55.526 337.559 55.3356 333.47 55.6892 330.579L65.6366 246.867C66.9353 235.906 77.2975 226.648 88.2784 226.648H194.688C217.18 226.648 236.123 209.96 238.748 187.834L250.946 85.1902C252.442 72.6519 264.313 62.0608 276.872 62.0608H355.506C358.831 62.0608 363.509 62.8558 366.895 66.6287L366.902 66.6152Z" fill="#2C09BB" fill-opacity="0.3"/>
<path d="M363.373 323.676C351.93 310.909 335.482 303.592 318.246 303.592H203.398C180.512 303.592 159.23 316.75 149.235 337.023C146.202 343.093 144.251 349.622 143.448 356.426L132.502 448.54C129.931 470.059 136.228 490.5 150.214 506.084C164.118 521.593 183.714 530.136 205.39 530.136H284.004C304.253 530.136 324.107 522.422 339.922 508.422C355.71 494.442 365.705 475.746 368.071 455.789L378.23 370.407C380.229 353.462 374.816 336.43 363.387 323.676H363.373ZM194.586 455.783L204.731 370.434C205.064 367.644 207.451 365.542 210.279 365.542H309.543C312.888 365.542 315.485 368.439 315.091 371.727L305.953 448.554C304.715 459.01 294.455 468.179 283.984 468.179H205.37C202.854 468.179 199.346 467.614 196.946 464.946C194.43 462.136 194.274 458.41 194.579 455.783H194.586Z" stroke="white" stroke-width="1.97461" stroke-miterlimit="10"/>
<path d="M520.43 168.494C507.002 153.537 488.106 145.297 467.232 145.297H351.494C332.306 145.297 316.144 159.54 313.914 178.418L300.526 291.047C300.376 292.314 301.376 293.432 302.668 293.432H318.238C332.68 293.432 346.639 297.845 358.327 305.829C359.755 306.806 361.713 305.943 361.917 304.239L371.586 222.804C372.64 213.931 380.228 207.247 389.244 207.247H467.239C469.204 207.247 471.924 207.665 473.719 209.659C475.602 211.761 475.711 214.679 475.459 216.754L465.512 300.439C464.444 309.359 455.707 317.188 446.807 317.188H376.101C374.204 317.188 373.123 319.337 374.272 320.826C385.409 335.224 390.536 353.442 388.401 371.586L387.789 376.753C387.639 378.02 388.639 379.138 389.931 379.138H446.814C466.267 379.138 485.346 371.734 500.542 358.279C515.711 344.852 525.326 326.89 527.61 307.688L537.565 223.97C540.012 203.212 533.934 183.512 520.444 168.494H520.43Z" stroke="white" stroke-width="1.97461" stroke-miterlimit="10"/>
<path d="M366.902 60.0488C370.41 63.97 370.668 68.8748 370.26 72.3041L363.448 129.916C363.189 132.098 364.909 134.012 367.126 134.012H414.545C416.421 134.012 418.005 132.617 418.223 130.771L424.438 78.5969C426.845 58.2095 420.888 38.88 407.67 24.1453C394.514 9.49825 375.986 1.43359 355.506 1.43359H276.872C257.616 1.43359 238.707 8.78408 223.626 22.1376C208.565 35.4709 199.033 53.2845 196.762 72.2974L187.311 151.825C186.345 159.924 179.424 166.028 171.196 166.028H88.2784C69.7978 166.028 51.6572 173.082 37.2018 185.883C22.7668 198.671 13.6217 215.757 11.4595 233.988L1.51208 317.686C-0.826896 337.292 4.89816 355.901 17.6333 370.097C30.2937 384.205 48.1351 391.973 67.8532 391.973H128.211C129.911 391.973 131.339 390.713 131.536 389.042L135.52 355.51C136.085 350.767 137.145 346.138 138.675 341.678C139.307 339.832 137.954 337.919 135.989 337.919H67.8532C65.0723 337.919 61.1695 337.272 58.3953 334.186C55.526 330.993 55.3356 326.903 55.6892 324.013L65.6366 240.301C66.9353 229.339 77.2975 220.082 88.2784 220.082H194.688C217.18 220.082 236.123 203.393 238.748 181.268L250.946 78.6238C252.442 66.0855 264.313 55.4944 276.872 55.4944H355.506C358.831 55.4944 363.509 56.2894 366.895 60.0623L366.902 60.0488Z" stroke="#7250FF" stroke-width="1.97461" stroke-miterlimit="10"/>
</svg>
