<svg width="76" height="75" viewBox="0 0 76 75" fill="none" xmlns="http://www.w3.org/2000/svg">
<g clip-path="url(#clip0_6498_318)">
<circle cx="37.7227" cy="37.5" r="37.5" fill="white"/>
<g clip-path="url(#clip1_6498_318)">
<path d="M25.1895 52.8297L50.9769 22.1704" stroke="#522AF9" stroke-width="4.884" stroke-linecap="round" stroke-linejoin="round"/>
<path d="M26.7217 33.8797C29.618 33.8797 31.9659 31.5318 31.9659 28.6355C31.9659 25.7393 29.618 23.3914 26.7217 23.3914C23.8254 23.3914 21.4775 25.7393 21.4775 28.6355C21.4775 31.5318 23.8254 33.8797 26.7217 33.8797Z" stroke="#522AF9" stroke-width="3.0525" stroke-miterlimit="10"/>
<path d="M48.7237 53.6294C51.62 53.6294 53.9679 51.2815 53.9679 48.3852C53.9679 45.4889 51.62 43.141 48.7237 43.141C45.8274 43.141 43.4795 45.4889 43.4795 48.3852C43.4795 51.2815 45.8274 53.6294 48.7237 53.6294Z" stroke="#522AF9" stroke-width="3.0525" stroke-miterlimit="10"/>
</g>
</g>
<defs>
<clipPath id="clip0_6498_318">
<rect width="75" height="75" fill="white" transform="translate(0.222656)"/>
</clipPath>
<clipPath id="clip1_6498_318">
<rect width="35.5433" height="35.5433" fill="white" transform="translate(19.9512 19.7284)"/>
</clipPath>
</defs>
</svg>
