<svg width="75" height="75" viewBox="0 0 75 75" fill="none" xmlns="http://www.w3.org/2000/svg">
<circle cx="37.5" cy="37.5" r="37.5" fill="white"/>
<path d="M37.5 21.4584V53.5417" stroke="#522AF9" stroke-width="2" stroke-linecap="round" stroke-linejoin="round"/>
<path d="M44.7917 27.2916H33.8542C32.5005 27.2916 31.2022 27.8294 30.245 28.7866C29.2878 29.7438 28.75 31.0421 28.75 32.3958C28.75 33.7495 29.2878 35.0478 30.245 36.005C31.2022 36.9622 32.5005 37.5 33.8542 37.5H41.1458C42.4995 37.5 43.7978 38.0377 44.755 38.9949C45.7122 39.9522 46.25 41.2504 46.25 42.6041C46.25 43.9578 45.7122 45.2561 44.755 46.2133C43.7978 47.1705 42.4995 47.7083 41.1458 47.7083H28.75" stroke="#522AF9" stroke-width="2" stroke-linecap="round" stroke-linejoin="round"/>
</svg>
