<svg width="372" height="159" viewBox="0 0 372 159" fill="none" xmlns="http://www.w3.org/2000/svg">
<rect opacity="0.1" x="0.517822" y="0.680176" width="371" height="158" rx="20" fill="url(#paint0_linear_4022_2458)"/>
<path d="M253.05 80.2656C249.228 76.1496 243.74 70.0735 237.468 63.1155C249.326 49.9835 258.342 39.9875 258.342 39.9875H242.172C242.172 39.9875 236.782 45.8675 229.432 54.1975C228.354 52.9235 227.178 51.7475 226.1 50.4735C223.65 47.7295 221.004 44.9855 218.26 42.9275C214.928 40.3795 213.458 40.0855 209.244 40.0855H194.25C183.176 40.0855 174.16 50.3755 174.16 63.2135C174.16 75.9535 183.176 86.3415 194.25 86.3415H209.146C213.36 86.3415 214.83 85.9496 218.162 83.4995C221.004 81.3436 223.552 78.6975 226.002 75.9535C227.08 74.6795 228.256 73.5035 229.334 72.2295C232.274 75.5615 234.92 78.5015 236.978 80.8535C240.114 84.2836 243.642 86.4396 249.228 86.4396H262.066C261.184 86.4396 257.852 85.8516 252.756 80.5596H252.854L253.05 80.2656ZM203.364 83.1076C203.364 83.1076 202.678 83.8916 201.502 84.6756C200.228 84.1856 199.052 83.5976 197.778 82.8136C191.8 79.0896 188.076 71.4455 188.076 63.0175C188.076 54.6875 191.8 47.0435 197.778 43.2215C199.052 42.4375 200.228 41.8495 201.502 41.3595C202.58 42.1435 203.364 42.9275 203.364 42.9275C209.146 49.3955 215.516 56.4515 221.396 63.0175C215.516 69.5835 209.146 76.6395 203.364 83.1076Z" fill="white"/>
<path d="M226.198 75.6616C223.748 78.4056 221.102 81.1496 218.358 83.2076C215.026 85.7556 213.556 86.0496 209.342 86.0496H197.386C200.718 86.0496 203.462 83.0116 203.462 83.0116C220.318 64.2936 242.27 39.8916 242.27 39.8916H258.44C258.44 39.8916 243.054 56.9436 226.198 75.6616Z" fill="white"/>
<path d="M226.198 50.3755C223.748 47.6315 221.102 44.8875 218.358 42.8295C215.026 40.2815 213.556 39.9875 209.342 39.9875H197.386C200.718 39.9875 203.462 43.0255 203.462 43.0255C215.32 56.2555 229.824 72.2296 237.272 80.5596C240.408 83.9896 243.936 86.1455 249.522 86.1455H262.654C262.654 86.1455 259.028 86.5376 253.148 80.2656C247.072 73.7976 237.076 62.4295 226.198 50.3755Z" fill="white"/>
<path d="M188.174 63.0196C188.174 54.6896 191.898 47.0456 197.876 43.2236C201.992 40.5776 206.206 40.0876 208.46 39.8916H194.348C183.274 39.8916 174.258 50.1816 174.258 63.0196C174.258 75.8576 183.274 86.1476 194.348 86.1476H208.46C206.108 86.0496 201.894 85.4616 197.876 82.8156C191.898 79.0916 188.174 71.4476 188.174 63.0196Z" fill="white"/>
<path d="M115.752 115.94C115.752 117.508 113.694 117.704 110.068 117.704C105.756 117.704 104.384 116.626 104.384 113.588C104.384 110.55 105.266 109.374 109.48 108.884L111.93 108.59C112.91 108.59 113.106 108.198 113.106 106.63C113.106 104.964 112.812 103.886 109.872 103.886C108.794 103.886 107.52 103.984 106.638 104.278C106.148 104.376 105.56 104.278 105.56 103.298C105.56 102.906 105.658 102.612 106.05 102.514C106.834 102.024 108.5 101.73 110.068 101.73C114.478 101.73 115.752 103.004 115.752 106.826V115.94ZM113.106 111.922C113.106 110.942 112.616 110.55 111.244 110.55H109.676C107.814 110.55 107.226 111.138 107.226 113.294C107.226 115.45 107.618 115.842 109.676 115.842C112.322 115.842 113.008 115.744 113.008 113.686V111.922H113.106Z" fill="white"/>
<path d="M121.044 97.2194C121.044 96.3374 121.73 96.1414 122.416 96.1414C123.102 96.1414 123.788 96.2394 123.788 97.2194V113.487C123.788 115.055 124.18 115.643 125.454 115.643H126.042C126.63 115.643 126.728 116.035 126.728 116.427C126.728 116.819 126.63 117.211 126.238 117.309C125.944 117.407 125.062 117.603 124.376 117.603C121.534 117.603 121.044 116.133 121.044 113.585V97.1214V97.2194Z" fill="white"/>
<path d="M129.961 103.396C129.961 101.926 131.921 101.73 135.645 101.73C140.055 101.73 142.211 103.396 142.211 109.374C142.211 114.862 141.035 117.508 134.077 117.508C132.999 117.508 132.705 117.704 132.705 118.586V121.82C132.705 122.8 132.019 122.898 131.333 122.898C130.647 122.898 129.961 122.8 129.961 121.82V103.298V103.396ZM132.705 112.804C132.705 114.764 133.293 115.45 135.057 115.45C138.879 115.45 139.369 114.47 139.369 109.668C139.369 104.866 138.487 103.886 135.841 103.886C133.195 103.886 132.803 104.082 132.803 105.748V112.902L132.705 112.804Z" fill="white"/>
<path d="M158.871 116.623C158.871 117.505 158.185 117.701 157.499 117.701C156.813 117.701 156.127 117.505 156.127 116.623V107.019C156.127 104.471 155.147 103.883 152.697 103.883C151.619 103.883 150.835 103.981 150.345 104.177C149.757 104.373 149.757 104.765 149.757 105.255V116.623C149.757 117.505 149.071 117.701 148.385 117.701C147.699 117.701 147.013 117.505 147.013 116.623V97.2194C147.013 96.3374 147.699 96.1414 148.385 96.1414C149.071 96.1414 149.757 96.2394 149.757 97.2194V100.649C149.757 101.433 149.953 101.825 150.639 101.825C151.815 101.825 152.599 101.727 153.873 101.727C157.499 101.727 158.871 103.099 158.871 106.333V116.525V116.623Z" fill="white"/>
<path d="M174.65 115.94C174.65 117.508 172.592 117.704 168.966 117.704C164.654 117.704 163.282 116.626 163.282 113.588C163.282 110.55 164.164 109.374 168.378 108.884L170.828 108.59C171.808 108.59 172.004 108.198 172.004 106.63C172.004 104.964 171.71 103.886 168.77 103.886C167.692 103.886 166.418 103.984 165.536 104.278C165.046 104.376 164.458 104.278 164.458 103.298C164.458 102.906 164.556 102.612 164.948 102.514C165.732 102.024 167.398 101.73 168.966 101.73C173.376 101.73 174.65 103.004 174.65 106.826V115.94ZM172.004 111.922C172.004 110.942 171.514 110.55 170.142 110.55H168.574C166.712 110.55 166.124 111.138 166.124 113.294C166.124 115.45 166.516 115.842 168.574 115.842C171.22 115.842 171.906 115.744 171.906 113.686V111.922H172.004Z" fill="white"/>
<path d="M184.254 101.73C185.92 101.73 186.998 101.926 187.488 102.122C187.88 102.318 188.076 102.71 188.076 103.004C188.076 103.69 187.684 104.082 186.998 103.984C186.214 103.984 185.43 103.886 184.548 103.886C182.686 103.886 182.098 104.376 182.098 105.552C182.098 106.434 183.078 107.316 184.94 108.688C187.39 110.354 188.272 111.726 188.272 113.588C188.272 116.92 185.822 117.802 182.588 117.802C181.314 117.802 180.334 117.606 179.746 117.41C179.256 117.214 179.06 116.92 179.06 116.43C179.06 115.842 179.452 115.352 180.138 115.45C180.922 115.548 181.706 115.646 182.686 115.646C184.156 115.646 185.528 115.352 185.528 113.686C185.528 112.608 184.94 111.726 182.588 109.962C180.138 108.296 179.256 107.12 179.256 105.454C179.256 102.416 181.51 101.534 184.254 101.534V101.73Z" fill="white"/>
<path d="M198.66 101.73C203.168 101.73 205.128 104.278 205.128 109.374C205.128 116.038 202.482 117.802 198.66 117.802C194.838 117.802 192.094 116.038 192.094 110.158C192.094 104.278 194.054 101.73 198.66 101.73ZM198.66 103.886C195.622 103.886 195.034 104.866 195.034 109.766C195.034 114.96 196.014 115.744 198.66 115.744C201.502 115.744 202.188 114.96 202.188 109.766C202.188 104.572 201.306 103.886 198.66 103.886Z" fill="white"/>
<path d="M221.788 116.624C221.788 117.506 221.102 117.702 220.416 117.702C219.73 117.702 219.044 117.506 219.044 116.624V107.02C219.044 104.472 218.064 103.884 215.614 103.884C214.536 103.884 213.752 103.982 213.262 104.178C212.674 104.374 212.674 104.766 212.674 105.256V116.624C212.674 117.506 211.988 117.702 211.302 117.702C210.616 117.702 209.93 117.506 209.93 116.624V104.08C209.93 102.904 210.224 102.512 211.204 102.316C212.674 102.022 214.34 101.826 215.712 101.826C220.612 101.826 221.788 103.296 221.788 106.53V116.722V116.624Z" fill="white"/>
<path d="M228.55 96.0454C229.922 96.0454 230.216 96.4374 230.216 97.6134C230.216 99.0834 229.824 99.4754 228.55 99.4754C227.276 99.4754 226.884 99.1814 226.884 97.8094C226.884 96.4374 227.276 96.0454 228.55 96.0454ZM229.922 116.625C229.922 117.507 229.236 117.703 228.55 117.703C227.864 117.703 227.178 117.507 227.178 116.625V102.905C227.178 102.023 227.864 101.827 228.55 101.827C229.236 101.827 229.922 101.925 229.922 102.905V116.625Z" fill="white"/>
<path d="M241.682 115.644C242.564 115.644 243.054 115.644 243.74 115.448C244.328 115.448 244.72 115.742 244.72 116.428C244.72 116.918 244.622 117.114 244.23 117.31C243.544 117.604 242.368 117.8 241.388 117.8C237.468 117.8 234.92 116.232 234.92 109.764C234.92 102.61 238.154 101.63 241.388 101.63C242.466 101.63 243.544 101.63 244.23 102.12C244.622 102.316 244.72 102.61 244.72 103.1C244.72 103.688 244.426 104.08 243.74 103.884C243.054 103.884 242.368 103.688 241.584 103.688C238.742 103.688 237.762 104.766 237.762 109.666C237.762 113.782 238.546 115.546 241.682 115.546V115.644Z" fill="white"/>
<defs>
<linearGradient id="paint0_linear_4022_2458" x1="339.738" y1="-65.0271" x2="-7.53853" y2="41.4892" gradientUnits="userSpaceOnUse">
<stop stop-color="#DCDAE2"/>
<stop offset="1" stop-color="#7A7786" stop-opacity="0"/>
</linearGradient>
</defs>
</svg>
