<svg width="17" height="22" viewBox="0 0 17 22" fill="none" xmlns="http://www.w3.org/2000/svg">
<path d="M4.18234 20.9514C3.77532 20.6838 3.4146 20.3531 3.11402 19.9721C2.78338 19.5788 2.47704 19.1662 2.19665 18.7365C1.53868 17.7838 1.02268 16.7427 0.664489 15.6449C0.234192 14.3698 0.0258179 13.1476 0.0258179 11.9521C0.0258179 10.6171 0.318058 9.4516 0.889636 8.4723C1.31334 7.70687 1.93629 7.06722 2.69404 6.61954C3.42839 6.16876 4.27216 5.92207 5.13647 5.90546C5.43904 5.90546 5.76482 5.94882 6.11061 6.0317C6.35898 6.1012 6.66154 6.21086 7.0312 6.3473C7.50149 6.52645 7.76018 6.63611 7.84792 6.66289C8.12339 6.76235 8.35499 6.80571 8.53691 6.80571C8.67497 6.80571 8.86979 6.76235 9.09107 6.69605C9.21558 6.65269 9.4504 6.57618 9.78651 6.43401C10.1194 6.31414 10.3813 6.2115 10.5897 6.13499C10.909 6.0419 11.218 5.95583 11.4935 5.91248C11.8201 5.8616 12.1515 5.84812 12.4812 5.87231C13.0525 5.90922 13.6153 6.02887 14.1514 6.22744C15.0281 6.57618 15.7371 7.12066 16.2648 7.89467C16.0418 8.03053 15.8324 8.18724 15.6397 8.36264C15.2201 8.73025 14.8627 9.1618 14.5811 9.64096C14.2129 10.2958 14.022 11.0334 14.0269 11.7825C14.0404 12.7025 14.2791 13.5129 14.7494 14.2136C15.0952 14.7329 15.5445 15.177 16.07 15.5187C16.339 15.6978 16.5706 15.8209 16.7925 15.9038C16.6887 16.2225 16.5777 16.5311 16.4467 16.8372C16.1497 17.5234 15.7898 18.1814 15.3713 18.8028C14.9985 19.3377 14.7062 19.7362 14.4843 20.0014C14.1385 20.4062 13.8056 20.7155 13.4695 20.931C13.0999 21.1732 12.6631 21.3027 12.2193 21.3027C11.9187 21.3141 11.6182 21.2781 11.329 21.1962C11.0806 21.1133 10.8348 21.0234 10.5929 20.9208C10.3414 20.8066 10.0821 20.7101 9.81683 20.6319C9.1612 20.4655 8.47378 20.4644 7.8176 20.6288C7.54858 20.7053 7.28989 20.7945 7.03442 20.9042C6.67509 21.0534 6.43639 21.1535 6.29834 21.1962C6.02287 21.2759 5.73708 21.3256 5.44807 21.3422C5.001 21.3422 4.58425 21.216 4.17137 20.9603L4.18234 20.9514ZM10.0788 5.2577C9.49427 5.54651 8.93624 5.66956 8.38208 5.6294C8.29499 5.0779 8.38208 4.51366 8.61368 3.89586C8.81085 3.37246 9.10219 2.88862 9.47363 2.46771C9.86587 2.02462 10.3418 1.66143 10.8748 1.39851C11.4425 1.1097 11.9838 0.953494 12.5012 0.930542C12.5683 1.50818 12.5012 2.07625 12.2864 2.69022C12.0876 3.23297 11.7968 3.73833 11.4264 4.18468C11.0484 4.62838 10.5845 4.99297 10.062 5.25706L10.0788 5.2577Z" fill="white"/>
</svg>
