<svg width="23" height="29" viewBox="0 0 23 29" fill="none" xmlns="http://www.w3.org/2000/svg">
<path d="M5.70177 27.8506C5.14344 27.4835 4.64861 27.0299 4.23628 26.5072C3.78273 25.9677 3.3625 25.4017 2.97788 24.8123C2.07529 23.5055 1.36746 22.0772 0.876106 20.5714C0.285841 18.8222 0 17.1456 0 15.5058C0 13.6744 0.400885 12.0756 1.18496 10.7322C1.76618 9.68225 2.62072 8.8048 3.66018 8.19069C4.66753 7.57233 5.82499 7.23393 7.01062 7.21114C7.42566 7.21114 7.87257 7.27062 8.3469 7.38431C8.68761 7.47964 9.10265 7.63007 9.60973 7.81724C10.2549 8.063 10.6097 8.21343 10.7301 8.25016C11.108 8.38659 11.4257 8.44607 11.6752 8.44607C11.8646 8.44607 12.1319 8.38659 12.4354 8.29564C12.6062 8.23616 12.9283 8.13121 13.3894 7.93618C13.846 7.77176 14.2053 7.63095 14.4911 7.526C14.9292 7.39831 15.3531 7.28024 15.731 7.22077C16.1789 7.15097 16.6336 7.13248 17.0858 7.16567C17.8696 7.21629 18.6415 7.38043 19.377 7.65281C20.5796 8.13121 21.5522 8.87811 22.2761 9.93987C21.9701 10.1262 21.683 10.3412 21.4186 10.5818C20.843 11.0861 20.3528 11.6781 19.9664 12.3354C19.4613 13.2336 19.1995 14.2455 19.2062 15.2731C19.2248 16.5351 19.5522 17.6468 20.1973 18.6079C20.6716 19.3203 21.288 19.9295 22.0088 20.3982C22.3779 20.644 22.6956 20.8128 23 20.9265C22.8575 21.3638 22.7053 21.7871 22.5257 22.2069C22.1182 23.1483 21.6244 24.0508 21.0504 24.9032C20.5389 25.637 20.1381 26.1836 19.8336 26.5475C19.3593 27.1028 18.9027 27.527 18.4416 27.8226C17.9345 28.155 17.3354 28.3325 16.7265 28.3325C16.3142 28.3481 15.902 28.2988 15.5053 28.1864C15.1646 28.0727 14.8274 27.9494 14.4956 27.8086C14.1506 27.652 13.7948 27.5196 13.431 27.4124C12.5316 27.1841 11.5886 27.1826 10.6885 27.4081C10.3195 27.513 9.9646 27.6354 9.61416 27.7859C9.12124 27.9905 8.79381 28.1278 8.60442 28.1864C8.22655 28.2958 7.83451 28.364 7.43805 28.3867C6.82478 28.3867 6.2531 28.2136 5.68673 27.8628L5.70177 27.8506ZM13.7903 6.32256C12.9885 6.71875 12.223 6.88755 11.4628 6.83245C11.3434 6.07593 11.4628 5.30191 11.7805 4.45444C12.051 3.73646 12.4507 3.07275 12.9602 2.49536C13.4982 1.88753 14.1511 1.38933 14.8823 1.02867C15.6611 0.632479 16.4035 0.418204 17.1133 0.386719C17.2053 1.1791 17.1133 1.95836 16.8186 2.80059C16.5459 3.54511 16.147 4.23835 15.6389 4.85063C15.1204 5.45928 14.4841 5.95942 13.7673 6.32169L13.7903 6.32256Z" fill="#522AF9"/>
</svg>
