<svg width="372" height="159" viewBox="0 0 372 159" fill="none" xmlns="http://www.w3.org/2000/svg">
<rect opacity="0.1" x="0.481934" y="0.680176" width="371" height="158" rx="20" fill="url(#paint0_linear_4022_2446)"/>
<path d="M146.693 64.0838H164.29L164.836 69.2674C163.517 69.04 162.153 68.9036 160.834 68.8127C159.516 68.7217 158.152 68.6763 156.787 68.6763H153.695V76.2698H164.79L163.926 81.1806C162.744 81.0442 161.562 80.9532 160.334 80.8623C159.106 80.7714 157.788 80.7714 156.424 80.7714H153.695V90.2746H155.969C157.424 90.2746 158.879 90.2292 160.38 90.0928C161.88 90.0018 163.426 89.8199 165.018 89.5926L164.108 94.7762H146.693C146.92 92.4117 147.102 89.9564 147.239 87.3645C147.375 84.7727 147.421 82.09 147.421 79.2708C147.421 76.9518 147.375 74.5419 147.239 71.9956C147.102 69.5402 146.92 66.9029 146.693 64.0838ZM171.065 72.132C171.702 75.0421 172.475 77.8613 173.339 80.5895C174.203 83.3177 175.203 85.955 176.294 88.5013C177.522 85.9095 178.522 83.3177 179.295 80.7714C180.068 78.1795 180.614 75.6332 180.932 73.0869L187.389 72.1775C186.57 75.4513 185.434 78.9525 183.979 82.7266C182.524 86.5006 180.659 90.5929 178.477 94.9581H173.248C171.974 91.0476 170.565 87.2281 169.064 83.5905C167.564 79.9529 165.972 76.4517 164.245 73.0414L171.065 72.132ZM200.393 89.4562C200.348 88.9105 200.302 88.2739 200.257 87.4555C200.212 86.637 200.212 85.5912 200.212 84.3635C197.665 84.3635 195.755 84.7273 194.437 85.4548C193.118 86.1823 192.482 87.2281 192.482 88.5922C192.482 89.3652 192.754 90.0018 193.255 90.4565C193.755 90.9112 194.437 91.1386 195.346 91.1386C196.21 91.1386 197.074 91.0022 197.938 90.7293C198.756 90.4565 199.575 90.0018 200.393 89.4562ZM200.712 92.1844C199.211 93.2757 197.847 94.0942 196.528 94.5943C195.21 95.0945 193.891 95.3673 192.527 95.3673C190.617 95.3673 189.117 94.8671 188.071 93.8213C187.025 92.7755 186.48 91.3205 186.48 89.4107C186.48 86.8644 187.616 84.8637 189.89 83.4996C192.163 82.1355 195.574 81.3625 200.075 81.2261V80.6349C200.075 79.2708 199.666 78.2705 198.847 77.5884C198.029 76.9064 196.801 76.5426 195.164 76.5426C194.073 76.5426 192.982 76.679 191.89 76.9518C190.799 77.2247 189.662 77.6339 188.571 78.1795L188.753 73.8599C189.981 73.3142 191.299 72.8595 192.663 72.5867C194.028 72.3139 195.392 72.132 196.801 72.132C198.12 72.132 199.257 72.2684 200.257 72.5867C201.257 72.905 202.121 73.3597 202.894 73.9963C203.895 74.8147 204.577 75.8606 204.986 77.1337C205.395 78.4069 205.623 80.3621 205.623 82.9994V85.0456C205.623 88.0466 205.804 89.9563 206.214 90.6839C206.577 91.4114 207.35 91.8206 208.396 91.8206H208.76L208.669 94.4124C207.987 94.6398 207.35 94.8217 206.623 94.9126C205.941 95.0036 205.213 95.0945 204.486 95.0945C203.485 95.0945 202.667 94.8671 202.03 94.367C201.394 93.9123 200.985 93.1847 200.712 92.1844ZM230.404 94.8217H223.674C223.856 91.957 223.947 89.6381 224.038 87.8192C224.129 86.0004 224.129 84.318 224.129 82.772C224.129 80.6349 223.811 79.1344 223.22 78.2705C222.628 77.4066 221.628 76.9518 220.264 76.9518C219.582 76.9518 218.809 77.0428 217.99 77.2701C217.172 77.4975 216.308 77.8158 215.399 78.2705V80.5895C215.399 83.545 215.444 86.1823 215.535 88.5468C215.626 90.9112 215.717 93.0029 215.899 94.8671H209.215C209.397 92.6391 209.578 90.5475 209.669 88.6377C209.76 86.728 209.806 84.9546 209.806 83.3177C209.806 81.0442 209.76 78.998 209.669 77.2247C209.578 75.4059 209.397 73.9053 209.215 72.5867C209.988 72.5867 210.806 72.5412 211.625 72.4503C212.443 72.4048 213.216 72.2684 213.944 72.1775L214.989 75.3604C216.854 74.2236 218.491 73.3597 219.9 72.8141C221.31 72.2684 222.583 71.9956 223.72 71.9956C225.902 71.9956 227.403 72.7231 228.358 74.1327C229.267 75.5423 229.722 77.9522 229.722 81.4079V84.6818C229.722 86.4097 229.767 88.0921 229.904 89.7745C230.04 91.4569 230.176 93.1393 230.404 94.8217ZM241.771 75.8606C240.635 75.8606 239.68 76.2243 238.952 76.9518C238.225 77.6794 237.861 78.6342 237.861 79.7255C237.861 80.9078 238.225 81.9081 238.907 82.6356C239.634 83.3632 240.544 83.7269 241.68 83.7269C242.863 83.7269 243.772 83.3632 244.5 82.6356C245.227 81.9081 245.591 80.9532 245.591 79.771C245.591 78.5888 245.227 77.6339 244.545 76.9064C243.863 76.2243 242.954 75.8606 241.771 75.8606ZM238.043 94.8671C237.406 95.3673 236.952 95.822 236.679 96.3222C236.406 96.7769 236.269 97.2771 236.269 97.7772C236.269 98.8685 236.815 99.7325 237.861 100.46C238.907 101.142 240.316 101.506 241.999 101.506C243.681 101.506 245 101.188 246.046 100.551C247.091 99.9143 247.592 99.0959 247.592 98.0955C247.592 96.9588 246 96.1403 242.817 95.6856C240.862 95.3673 239.271 95.14 238.043 94.8671ZM247.455 73.4052C248.819 73.4052 250.138 73.3597 251.32 73.3142C252.502 73.2688 253.639 73.1778 254.639 73.0414L254.094 76.6336H253.957C253.003 76.679 252.275 76.7245 251.866 76.7245C251.684 76.7245 251.411 76.7245 251.093 76.7245C250.729 76.7245 250.502 76.7245 250.365 76.7245C250.638 77.2701 250.82 77.8158 250.911 78.316C251.047 78.8616 251.093 79.3618 251.093 79.8619C251.093 82.09 250.274 83.9088 248.637 85.2729C247 86.637 244.818 87.3191 242.135 87.3191C241.59 87.3191 241.044 87.2736 240.453 87.2281C239.862 87.1827 239.225 87.0463 238.634 86.9553C238.407 87.2281 238.225 87.4555 238.088 87.7283C237.952 88.0011 237.906 88.2285 237.906 88.4558C237.906 89.0924 238.225 89.5926 238.816 89.9109C239.407 90.2292 240.68 90.502 242.681 90.7748C243.09 90.8203 243.636 90.9112 244.363 90.9567C247.728 91.3205 249.956 91.957 251.047 92.7755C251.729 93.3212 252.23 93.9577 252.593 94.6853C252.957 95.4583 253.093 96.3222 253.093 97.2771C253.093 99.687 252.048 101.597 250.002 103.006C247.91 104.461 245.136 105.143 241.68 105.143C238.452 105.143 235.906 104.552 233.996 103.37C232.086 102.188 231.131 100.642 231.131 98.7321C231.131 97.8682 231.45 97.0497 232.041 96.2767C232.632 95.5037 233.587 94.7307 234.905 93.9123C234.269 93.594 233.769 93.2302 233.405 92.73C233.087 92.2753 232.905 91.6842 232.905 91.0476C232.905 90.2746 233.178 89.4562 233.769 88.6832C234.36 87.9102 235.224 87.0917 236.451 86.2733C235.133 85.6821 234.178 84.8182 233.45 83.7269C232.768 82.6356 232.405 81.317 232.405 79.8165C232.405 77.452 233.223 75.5423 234.905 74.1327C236.588 72.7231 238.816 71.9956 241.68 71.9956C242.817 71.9956 243.908 72.132 244.863 72.3593C245.727 72.5412 246.637 72.905 247.455 73.4052ZM268.872 81.317V81.0442C268.872 79.4072 268.508 78.0886 267.735 77.1792C266.962 76.2698 265.871 75.8151 264.507 75.8151C263.051 75.8151 261.869 76.3153 261.005 77.2701C260.141 78.225 259.687 79.5891 259.596 81.2715H268.872V81.317ZM274.237 84.7273H259.55C259.55 86.728 260.141 88.2739 261.278 89.3198C262.415 90.3656 264.097 90.9112 266.28 90.9112C267.235 90.9112 268.281 90.7748 269.372 90.5475C270.463 90.2746 271.645 89.9109 272.873 89.4107L272.555 93.7304C271.282 94.3215 270.054 94.7307 268.735 95.049C267.462 95.3218 266.143 95.5037 264.825 95.5037C261.369 95.5037 258.641 94.5034 256.686 92.4572C254.73 90.4565 253.73 87.6374 253.73 84.0907C253.73 80.4076 254.685 77.4975 256.64 75.3149C258.595 73.1323 261.187 72.0411 264.461 72.0411C267.553 72.0411 269.963 73.0414 271.691 75.0421C273.419 77.0428 274.283 79.8165 274.283 83.4541C274.283 83.8179 274.283 84.0907 274.283 84.2726C274.283 84.3635 274.283 84.5454 274.237 84.7273ZM265.78 62.3104H271.282C270.099 63.8109 268.781 65.175 267.326 66.4027C265.871 67.6304 264.325 68.6763 262.688 69.5857L259.823 68.7672C261.005 67.8123 262.097 66.812 263.097 65.7662C264.097 64.6749 265.007 63.5381 265.78 62.3104ZM282.831 61.6738C282.695 64.0838 282.558 66.721 282.467 69.5857C282.376 72.4503 282.331 75.4968 282.331 78.6342C282.331 81.2261 282.376 83.8179 282.467 86.5006C282.558 89.1834 282.649 91.957 282.831 94.7762H276.283C276.465 92.2299 276.602 89.5926 276.693 86.9098C276.784 84.2271 276.829 81.4534 276.829 78.6342C276.829 75.0876 276.738 71.9501 276.602 69.3128C276.465 66.6756 276.238 64.5385 275.965 62.947C277.147 62.8106 278.284 62.6287 279.421 62.4014C280.603 62.2195 281.74 61.9921 282.831 61.6738ZM292.243 72.0865C292.107 73.5416 292.016 75.1785 291.971 76.9518C291.925 78.7252 291.88 80.6804 291.88 82.8175C291.88 84.8182 291.925 86.8189 291.971 88.7741C292.016 90.7748 292.152 92.73 292.243 94.6853H285.696C285.878 92.7755 286.014 90.8658 286.105 88.956C286.196 87.0463 286.241 85.2274 286.241 83.4086C286.241 81.1806 286.196 79.1799 286.059 77.4065C285.923 75.6332 285.741 73.9963 285.514 72.5412C286.56 72.5412 287.605 72.4958 288.697 72.4048C289.833 72.3593 291.016 72.2229 292.243 72.0865ZM289.47 62.0831C290.47 62.0831 291.243 62.3559 291.789 62.9015C292.334 63.4472 292.607 64.2202 292.607 65.175C292.607 66.2209 292.198 67.1303 291.425 67.9033C290.652 68.6763 289.697 69.0855 288.606 69.0855C287.742 69.0855 287.06 68.7672 286.514 68.1306C285.969 67.494 285.696 66.721 285.696 65.7207C285.696 64.6749 286.059 63.8109 286.742 63.0834C287.514 62.4468 288.424 62.0831 289.47 62.0831ZM310.022 72.6322L310.659 77.452C310.022 77.1337 309.34 76.9064 308.613 76.77C307.885 76.6336 307.158 76.5426 306.43 76.5426C304.429 76.5426 302.838 77.1792 301.701 78.4524C300.519 79.7255 299.928 81.4534 299.928 83.636C299.928 85.7731 300.428 87.4555 301.428 88.6832C302.429 89.9109 303.838 90.502 305.612 90.502C306.521 90.502 307.43 90.4111 308.294 90.1837C309.204 90.0018 310.113 89.6835 311.114 89.2288L310.75 93.8213C309.749 94.3215 308.704 94.7307 307.658 94.9581C306.612 95.2309 305.475 95.3218 304.293 95.3218C301.201 95.3218 298.746 94.3215 296.881 92.3208C295.017 90.3201 294.108 87.6374 294.108 84.318C294.108 80.4531 295.199 77.452 297.336 75.2694C299.473 73.0869 302.474 71.9956 306.248 71.9956C306.839 71.9956 307.43 72.0411 308.022 72.132C308.567 72.3139 309.249 72.4503 310.022 72.6322ZM322.527 76.4971C320.753 76.4971 319.435 77.1337 318.48 78.3614C317.57 79.5891 317.116 81.4079 317.116 83.7724C317.116 86.1368 317.57 87.9557 318.48 89.1834C319.389 90.4111 320.753 91.0476 322.527 91.0476C324.3 91.0476 325.664 90.4111 326.619 89.1834C327.528 87.9557 327.983 86.1368 327.983 83.7724C327.983 81.3625 327.528 79.5891 326.619 78.3614C325.71 77.0883 324.345 76.4971 322.527 76.4971ZM322.527 71.9956C325.982 71.9956 328.711 73.0869 330.802 75.224C332.848 77.3611 333.894 80.2257 333.894 83.8179C333.894 87.41 332.848 90.2746 330.802 92.3663C328.756 94.5034 325.982 95.5492 322.527 95.5492C319.071 95.5492 316.343 94.4579 314.251 92.3663C312.205 90.2292 311.159 87.3645 311.159 83.8179C311.159 80.2257 312.205 77.3611 314.251 75.224C316.343 73.0414 319.116 71.9956 322.527 71.9956Z" fill="#E8EBF8"/>
<path d="M147.102 114.965C147.421 115.011 147.921 115.056 148.375 115.056C149.512 115.056 150.285 114.783 150.831 114.283C151.513 113.646 151.968 112.51 151.968 110.873C151.968 109.327 151.604 108.236 150.922 107.644C150.422 107.19 149.694 106.917 148.694 106.917C148.057 106.917 147.511 106.962 147.102 107.053V114.965ZM148.648 108.19C148.739 108.145 148.83 108.145 148.967 108.145C149.921 108.145 150.331 109.145 150.331 110.782C150.331 113.01 149.694 113.737 148.921 113.737C148.83 113.737 148.739 113.737 148.648 113.692V108.19ZM163.926 110.145H162.107V108.281H164.063V106.917H160.561V114.965H164.199V113.601H162.107V111.418H163.926V110.145ZM179.477 114.965H183.115V113.646H181.069V106.917H179.523V114.965H179.477ZM193.436 115.102C194.937 115.102 196.028 113.874 196.028 110.827C196.028 109.009 195.483 106.871 193.527 106.871C191.754 106.871 190.89 108.781 190.89 110.964C190.845 113.146 191.572 115.102 193.436 115.102ZM193.436 113.737C192.754 113.737 192.436 112.555 192.482 110.964C192.482 109.509 192.754 108.236 193.436 108.236C194.119 108.236 194.346 109.509 194.346 110.918C194.391 112.51 194.119 113.737 193.436 113.737ZM205.941 114.965V113.146C205.941 111.555 205.895 110.282 205.85 109.463H205.895C206.077 110.191 206.441 111.191 206.714 111.873L207.941 114.92H209.351V106.871H207.987V108.645C207.987 110.145 208.078 111.509 208.123 112.373H208.078C207.851 111.691 207.441 110.645 207.214 110.009L205.986 106.871H204.577V114.92H205.941V114.965ZM218.309 114.965C218.627 115.011 219.127 115.056 219.582 115.056C220.719 115.056 221.492 114.783 222.037 114.283C222.719 113.646 223.174 112.51 223.174 110.873C223.174 109.327 222.81 108.236 222.128 107.644C221.628 107.19 220.901 106.917 219.9 106.917C219.264 106.917 218.718 106.962 218.309 107.053V114.965ZM219.9 108.19C219.991 108.145 220.082 108.145 220.218 108.145C221.173 108.145 221.583 109.145 221.583 110.782C221.583 113.01 220.946 113.737 220.173 113.737C220.082 113.737 219.991 113.737 219.9 113.692V108.19ZM231.768 114.965H233.314V111.737H233.541C234.087 111.737 234.314 112.01 234.451 113.01C234.587 113.874 234.769 114.692 234.86 114.92H236.497C236.36 114.601 236.133 113.646 235.997 112.737C235.86 111.873 235.587 111.373 234.996 111.146V111.1C235.815 110.736 236.224 109.963 236.224 109.099C236.224 108.417 236.088 107.872 235.587 107.417C235.042 106.917 234.314 106.826 233.45 106.826C232.859 106.826 232.223 106.871 231.722 106.962V114.965H231.768ZM233.314 108.19C233.405 108.145 233.541 108.145 233.678 108.145C234.36 108.19 234.678 108.645 234.678 109.327C234.678 110.009 234.269 110.6 233.587 110.6H233.314V108.19ZM244.954 106.962V115.011H246.5V106.962H244.954ZM256.868 114.965V113.146C256.868 111.555 256.822 110.282 256.777 109.463H256.822C257.004 110.191 257.368 111.191 257.641 111.873L258.868 114.92H260.278V106.871H258.914V108.645C258.914 110.145 259.005 111.509 259.05 112.373H259.005C258.777 111.691 258.368 110.645 258.141 110.009L256.913 106.871H255.503V114.92H256.868V114.965ZM271.964 113.146L272.327 114.965H273.828L272.282 106.917H270.418L268.69 114.965H270.19L270.554 113.146H271.964ZM270.69 111.919L271.009 110.236C271.1 109.781 271.191 108.918 271.282 108.417H271.327C271.418 108.963 271.509 109.736 271.6 110.236L271.873 111.919H270.69Z" fill="#E8EBF8"/>
<path d="M147.102 45.1682H149.921C149.876 45.8957 149.83 46.6232 149.785 47.3962C149.74 48.1692 149.74 48.9422 149.74 49.7607H154.332C154.332 48.8968 154.287 48.0783 154.287 47.3053C154.241 46.5323 154.196 45.8502 154.15 45.1682H157.015C156.924 46.1231 156.833 47.0325 156.787 48.0328C156.742 48.9877 156.696 49.988 156.696 50.9884C156.696 52.0797 156.696 53.1255 156.787 54.0804C156.833 55.0352 156.924 55.9447 157.015 56.8541H154.15C154.196 56.1265 154.241 55.3081 154.241 54.4896C154.287 53.6257 154.287 52.6708 154.332 51.5795H149.74C149.74 52.5344 149.785 53.4438 149.785 54.3532C149.83 55.2171 149.876 56.0811 149.921 56.8995H147.102C147.193 55.8992 147.239 54.9443 147.284 53.9894C147.33 53.0346 147.375 52.0342 147.375 51.0793C147.375 50.2154 147.375 49.306 147.284 48.3511C147.239 47.2598 147.193 46.2595 147.102 45.1682ZM169.519 49.8516C168.837 49.8516 168.337 50.079 167.973 50.5337C167.609 50.9884 167.473 51.6704 167.473 52.5799C167.473 53.4893 167.655 54.1713 167.973 54.626C168.337 55.0807 168.837 55.3081 169.519 55.3081C170.201 55.3081 170.701 55.0807 171.065 54.626C171.429 54.1713 171.565 53.4893 171.565 52.5799C171.565 51.6704 171.383 50.9884 171.065 50.5337C170.701 50.079 170.201 49.8516 169.519 49.8516ZM169.519 48.1692C170.838 48.1692 171.838 48.5785 172.657 49.3969C173.43 50.2154 173.839 51.3067 173.839 52.6253C173.839 53.9894 173.43 55.0807 172.657 55.8537C171.884 56.6722 170.838 57.0359 169.519 57.0359C168.2 57.0359 167.2 56.6267 166.382 55.8082C165.609 54.9898 165.199 53.944 165.199 52.5799C165.199 51.2157 165.609 50.1245 166.382 49.3515C167.155 48.5785 168.2 48.1692 169.519 48.1692ZM186.525 48.4421L186.707 49.988C186.389 49.8971 186.116 49.8062 185.843 49.7607C185.57 49.7152 185.343 49.6698 185.115 49.6698C184.661 49.6698 184.297 49.7607 184.024 49.8971C183.751 50.079 183.615 50.2609 183.615 50.5337C183.615 50.8975 184.024 51.3067 184.843 51.7614C184.979 51.8523 185.07 51.8978 185.115 51.9433C185.843 52.398 186.343 52.7617 186.57 53.08C186.798 53.3983 186.889 53.7621 186.889 54.2168C186.889 55.0352 186.57 55.6718 185.934 56.172C185.297 56.6722 184.433 56.8995 183.388 56.8995C183.115 56.8995 182.842 56.8995 182.569 56.8541C182.296 56.8086 181.978 56.7631 181.705 56.7176L181.341 55.0352C181.66 55.1262 182.023 55.2171 182.342 55.2626C182.66 55.3081 182.978 55.3535 183.251 55.3535C183.706 55.3535 184.07 55.2626 184.342 55.0807C184.615 54.8988 184.752 54.717 184.752 54.4441C184.752 54.1258 184.388 53.7166 183.66 53.2619C183.569 53.171 183.478 53.1255 183.433 53.08C182.66 52.5799 182.114 52.1706 181.887 51.8523C181.66 51.534 181.569 51.1703 181.569 50.7156C181.569 49.9426 181.887 49.306 182.524 48.8058C183.16 48.3056 183.979 48.0783 184.979 48.0783C185.206 48.0783 185.479 48.0783 185.707 48.1238C185.934 48.2602 186.207 48.3511 186.525 48.4421ZM197.301 50.6701C197.256 51.1248 197.256 51.4431 197.21 51.7159C197.21 51.9887 197.21 52.2161 197.21 52.3525C197.21 53.3074 197.392 54.0804 197.665 54.5805C197.983 55.0807 198.438 55.3535 199.075 55.3535C199.711 55.3535 200.257 55.0807 200.621 54.5805C200.985 54.0804 201.166 53.3528 201.166 52.4434C201.166 51.6704 200.985 51.0339 200.666 50.5792C200.302 50.1245 199.848 49.9426 199.211 49.9426C198.893 49.9426 198.62 49.988 198.302 50.1245C198.029 50.2609 197.665 50.4427 197.301 50.6701ZM197.21 55.9901C197.21 56.6722 197.256 57.3997 197.301 58.1272C197.347 58.8548 197.392 59.6732 197.483 60.4917H194.982C195.073 59.4459 195.119 58.3091 195.164 56.9905C195.21 55.7173 195.21 54.3532 195.21 52.9436C195.21 51.8069 195.21 50.8975 195.164 50.1699C195.119 49.4424 195.073 48.8513 194.982 48.3966C195.301 48.3966 195.574 48.3966 195.892 48.3511C196.21 48.3056 196.483 48.3056 196.756 48.2602L197.12 49.4424C197.665 48.9877 198.165 48.6694 198.666 48.4875C199.166 48.3056 199.62 48.1692 200.121 48.1692C201.121 48.1692 201.894 48.5785 202.531 49.3515C203.167 50.1245 203.485 51.1248 203.485 52.3525C203.485 53.7621 203.122 54.8988 202.44 55.7628C201.758 56.6267 200.848 57.0814 199.757 57.0814C199.302 57.0814 198.847 56.9905 198.438 56.8086C197.983 56.6267 197.574 56.3539 197.21 55.9901ZM213.898 48.2147C213.853 48.7603 213.807 49.3969 213.807 50.0335C213.762 50.7156 213.762 51.4431 213.762 52.2616C213.762 53.0346 213.762 53.7621 213.807 54.5351C213.853 55.3081 213.853 56.0356 213.898 56.7631H211.443C211.534 56.0356 211.579 55.3081 211.625 54.626C211.67 53.8985 211.67 53.2164 211.67 52.5344C211.67 51.7159 211.625 50.9429 211.579 50.2609C211.534 49.5788 211.443 48.9877 211.352 48.4421C211.761 48.4421 212.125 48.4421 212.579 48.3966C212.989 48.3056 213.443 48.2602 213.898 48.2147ZM212.852 44.4407C213.216 44.4407 213.534 44.5316 213.716 44.759C213.944 44.9863 214.035 45.2591 214.035 45.6229C214.035 46.0321 213.898 46.3504 213.58 46.6687C213.307 46.9415 212.943 47.1234 212.534 47.1234C212.216 47.1234 211.943 46.987 211.761 46.7597C211.534 46.5323 211.443 46.214 211.443 45.8502C211.443 45.441 211.579 45.1227 211.852 44.8499C212.125 44.5771 212.443 44.4407 212.852 44.4407ZM222.947 48.3511L223.492 46.214C223.811 46.1685 224.129 46.1231 224.402 46.0776C224.675 46.0321 224.947 45.9412 225.22 45.8502C225.175 46.1685 225.129 46.5323 225.129 46.9415C225.084 47.3508 225.038 47.8509 225.038 48.4875H227.175L226.812 49.988H225.038C224.993 50.8065 224.993 51.4431 224.993 51.8069C224.993 52.1706 224.993 52.4889 224.993 52.6708C224.993 53.7621 225.129 54.4896 225.357 54.8534C225.584 55.2171 226.039 55.399 226.675 55.399C226.766 55.399 226.903 55.399 227.039 55.399C227.175 55.399 227.312 55.3535 227.448 55.3535L227.13 56.8995C226.857 56.945 226.63 56.9905 226.357 57.0359C226.13 57.0814 225.902 57.0814 225.675 57.0814C224.72 57.0814 223.993 56.8086 223.538 56.2629C223.083 55.7173 222.856 54.8534 222.856 53.6711C222.856 53.3528 222.901 52.307 222.947 50.4882V50.0335H221.537L221.628 49.0332L222.947 48.3511ZM239.771 54.7624C239.771 54.5805 239.725 54.3077 239.725 53.9894C239.725 53.6711 239.725 53.3074 239.725 52.8072C238.77 52.8072 238.043 52.9436 237.543 53.2164C237.042 53.4893 236.815 53.8985 236.815 54.3987C236.815 54.6715 236.906 54.9443 237.088 55.0807C237.27 55.2626 237.543 55.3535 237.861 55.3535C238.179 55.3535 238.543 55.3081 238.861 55.1717C239.18 55.1262 239.498 54.9898 239.771 54.7624ZM239.907 55.8082C239.361 56.2175 238.816 56.5358 238.316 56.7176C237.815 56.8995 237.315 56.9905 236.815 56.9905C236.088 56.9905 235.542 56.8086 235.133 56.3994C234.723 55.9901 234.542 55.4445 234.542 54.7624C234.542 53.8076 234.951 53.0346 235.815 52.5344C236.679 52.0342 237.952 51.7159 239.68 51.6704V51.4431C239.68 50.9429 239.543 50.5337 239.225 50.3063C238.907 50.0335 238.452 49.8971 237.815 49.8971C237.406 49.8971 236.997 49.9426 236.588 50.0335C236.179 50.1245 235.769 50.3063 235.36 50.4882L235.406 48.8513C235.86 48.6239 236.36 48.4875 236.906 48.3511C237.406 48.2602 237.952 48.1692 238.452 48.1692C238.952 48.1692 239.361 48.2147 239.771 48.3511C240.134 48.4875 240.498 48.6239 240.771 48.8968C241.135 49.2151 241.408 49.5788 241.544 50.079C241.68 50.5337 241.771 51.3067 241.771 52.307V53.08C241.771 54.2168 241.862 54.9443 241.999 55.2171C242.135 55.49 242.408 55.6264 242.817 55.6264H242.954L242.908 56.5812C242.635 56.6722 242.408 56.7176 242.135 56.7631C241.862 56.8086 241.59 56.8086 241.317 56.8086C240.953 56.8086 240.635 56.7176 240.407 56.5358C240.18 56.4448 239.998 56.172 239.907 55.8082ZM252.957 44.2588C252.912 45.1682 252.866 46.1685 252.821 47.2598C252.775 48.3511 252.775 49.4879 252.775 50.6701C252.775 51.625 252.775 52.6253 252.821 53.6257C252.866 54.626 252.912 55.6718 252.957 56.7631H250.502C250.593 55.8082 250.638 54.8079 250.684 53.8076C250.729 52.8072 250.729 51.7614 250.729 50.6701C250.729 49.306 250.684 48.1692 250.638 47.1689C250.593 46.1685 250.502 45.3501 250.411 44.759C250.865 44.7135 251.275 44.6226 251.729 44.5316C252.139 44.4861 252.548 44.3952 252.957 44.2588Z" fill="#E8EBF8"/>
<path d="M76.8506 65.5842H92.9471C79.7607 65.9025 72.8492 73.8144 71.3942 87.1371V71.0407C71.3942 67.5395 73.3949 65.5842 76.8506 65.5842Z" fill="#E8EBF8"/>
<path d="M134.371 94.1398H118.274C131.46 93.8215 138.372 85.9097 139.827 72.5869V88.6834C139.872 92.1391 137.872 94.1398 134.371 94.1398Z" fill="#E8EBF8"/>
<path d="M91.0828 109.418V102.779C92.2651 77.8612 118.138 82.6356 122.366 65.5842H128.414C122.321 78.8616 100.131 76.1788 99.0401 98.8685V105.325C99.0401 108.326 101.041 110.782 103.542 110.782H114.818C118.547 110.782 121.366 108.554 122.321 104.78C122.321 109.736 120.684 114.101 114.364 115.056H95.7208C93.1745 115.01 91.0828 112.51 91.0828 109.418Z" fill="#E8EBF8"/>
<path d="M119.365 50.3063V56.9449C118.183 81.8627 92.3105 77.0883 88.0818 94.1396H82.0342C88.1273 80.8623 110.317 83.5451 111.408 60.8554V54.3986C111.408 51.3976 109.407 48.9422 106.906 48.9422H95.0842C91.9013 48.9422 89.4459 51.7613 88.6729 54.7624C88.6729 49.8061 90.5372 45.0772 97.2213 44.668H114.773C117.274 44.668 119.365 47.2143 119.365 50.3063Z" fill="#E8EBF8"/>
<defs>
<linearGradient id="paint0_linear_4022_2446" x1="339.702" y1="-65.0271" x2="-7.57442" y2="41.4892" gradientUnits="userSpaceOnUse">
<stop stop-color="#DCDAE2"/>
<stop offset="1" stop-color="#7A7786" stop-opacity="0"/>
</linearGradient>
</defs>
</svg>
