<svg width="59" height="57" viewBox="0 0 59 57" fill="none" xmlns="http://www.w3.org/2000/svg">
<path opacity="0.8" d="M29.8666 57C45.9565 57 58.9999 44.2401 58.9999 28.5C58.9999 12.7599 45.9565 0 29.8666 0C13.7767 0 0.733276 12.7599 0.733276 28.5C0.733276 44.2401 13.7767 57 29.8666 57Z" fill="#00AD45"/>
<path fill-rule="evenodd" clip-rule="evenodd" d="M48.056 28.0706C47.991 32.4298 46.1974 36.5848 43.0695 39.6218C39.9417 42.6589 35.7358 44.3295 31.3765 44.2662C28.5638 44.2718 25.7935 43.5793 23.3142 42.2509L14.0802 45.1225L17.0911 36.4331C15.5255 33.9258 14.696 31.0291 14.6971 28.0731C14.7611 23.7131 16.5542 19.5571 19.6821 16.519C22.81 13.4809 27.0165 11.8095 31.3765 11.8725C35.7362 11.8092 39.9425 13.4801 43.0704 16.5177C46.1983 19.5553 47.9916 23.7109 48.056 28.0706ZM31.3765 14.4539C27.7127 14.4048 24.1788 15.8107 21.55 18.3633C18.9212 20.9159 17.412 24.4069 17.3533 28.0706C17.3553 30.9498 18.2928 33.7504 20.0247 36.0506L18.2729 41.1084L23.66 39.4364C25.9622 40.9122 28.6406 41.694 31.3753 41.6885C35.0391 41.7373 38.5728 40.3311 41.2014 37.7782C43.83 35.2254 45.3389 31.7343 45.3973 28.0706C45.3386 24.4073 43.8297 20.9168 41.2014 18.3642C38.5731 15.8117 35.04 14.4055 31.3765 14.4539ZM39.7986 31.8073C39.5743 31.5972 39.3067 31.439 39.0145 31.3437C38.6054 31.1448 36.5952 30.1834 36.2203 30.0517C36.1474 30.002 36.0653 29.9677 35.9788 29.9509C35.8923 29.934 35.8033 29.9349 35.7172 29.9535C35.631 29.9721 35.5496 30.008 35.4777 30.0591C35.4059 30.1101 35.3452 30.1753 35.2994 30.2505C35.0271 30.647 34.2443 31.5425 34.0049 31.8073C33.9002 31.9376 33.7482 32.0212 33.5821 32.04C33.4161 32.0587 33.2493 32.011 33.1182 31.9073C31.9157 31.4438 30.8017 30.7771 29.8249 29.9364C28.9319 29.1392 28.1633 28.2127 27.5449 27.1877C27.5011 27.1235 27.471 27.051 27.4563 26.9747C27.4417 26.8984 27.4428 26.82 27.4597 26.7441C27.4765 26.6683 27.5087 26.5967 27.5543 26.5338C27.5999 26.4709 27.6579 26.418 27.7247 26.3783C27.9084 26.201 28.1339 25.9147 28.3378 25.6829C28.5057 25.4832 28.6435 25.26 28.7469 25.0205C28.8043 24.9119 28.8325 24.7903 28.829 24.6676C28.8254 24.5448 28.7902 24.4251 28.7267 24.32C28.6241 24.1211 27.8058 22.1667 27.46 21.3725C27.1142 20.5783 26.7798 20.71 26.5404 20.71C26.301 20.71 26.0337 20.6771 25.7563 20.6771C25.5504 20.6816 25.3475 20.728 25.16 20.8133C24.9726 20.8987 24.8044 21.0212 24.6657 21.1736C24.207 21.5932 23.8424 22.1052 23.5959 22.6759C23.3494 23.2466 23.2266 23.8631 23.2357 24.4847C23.372 25.9886 23.9532 27.4177 24.9051 28.5899C26.6221 31.2065 29.045 33.2833 31.8933 34.58C36.0505 36.1697 36.0505 35.6402 36.8004 35.5743C37.3665 35.4691 37.9043 35.2469 38.3796 34.9219C38.8549 34.5969 39.2571 34.1763 39.5605 33.687C39.8272 33.0964 39.9106 32.4394 39.7999 31.8009L39.7986 31.8073Z" fill="white"/>
</svg>
