<svg width="24" height="29" viewBox="0 0 24 29" fill="none" xmlns="http://www.w3.org/2000/svg">
<path d="M6.12914 27.6172C5.57081 27.2501 5.07598 26.7965 4.66365 26.2738C4.2101 25.7343 3.78987 25.1683 3.40524 24.5789C2.50266 23.2721 1.79483 21.8438 1.30347 20.338C0.713209 18.5888 0.427368 16.9122 0.427368 15.2724C0.427368 13.441 0.828253 11.8422 1.61232 10.4988C2.19354 9.44885 3.04809 8.5714 4.08755 7.95729C5.0949 7.33893 6.25236 7.00053 7.43799 6.97775C7.85303 6.97775 8.29993 7.03722 8.77427 7.15092C9.11498 7.24625 9.53002 7.39668 10.0371 7.58384C10.6822 7.8296 11.0371 7.98003 11.1575 8.01676C11.5353 8.1532 11.853 8.21267 12.1026 8.21267C12.292 8.21267 12.5592 8.1532 12.8628 8.06224C13.0336 8.00277 13.3557 7.89782 13.8167 7.70278C14.2734 7.53836 14.6327 7.39755 14.9185 7.2926C15.3566 7.16491 15.7805 7.04684 16.1583 6.98737C16.6063 6.91757 17.0609 6.89908 17.5132 6.93227C18.2969 6.98289 19.0689 7.14703 19.8044 7.41941C21.007 7.89782 21.9796 8.64472 22.7035 9.70647C22.3975 9.89284 22.1103 10.1078 21.846 10.3484C21.2704 10.8527 20.7801 11.4447 20.3937 12.102C19.8887 13.0002 19.6269 14.0121 19.6336 15.0397C19.6521 16.3018 19.9796 17.4134 20.6247 18.3745C21.099 19.0869 21.7154 19.6961 22.4362 20.1648C22.8052 20.4106 23.1229 20.5794 23.4274 20.6931C23.2849 21.1304 23.1327 21.5537 22.953 21.9735C22.5456 22.9149 22.0518 23.8174 21.4778 24.6698C20.9663 25.4036 20.5654 25.9502 20.261 26.3141C19.7867 26.8694 19.33 27.2936 18.869 27.5892C18.3619 27.9216 17.7628 28.0991 17.1539 28.0991C16.7416 28.1147 16.3293 28.0654 15.9327 27.953C15.592 27.8393 15.2548 27.716 14.9229 27.5752C14.5779 27.4186 14.2222 27.2862 13.8583 27.179C12.959 26.9507 12.016 26.9492 11.1159 27.1747C10.7468 27.2796 10.392 27.402 10.0415 27.5525C9.54861 27.7571 9.22117 27.8944 9.03179 27.953C8.65392 28.0624 8.26188 28.1306 7.86542 28.1533C7.25215 28.1533 6.68046 27.9802 6.11409 27.6294L6.12914 27.6172ZM14.2176 6.08916C13.4159 6.48535 12.6504 6.65415 11.8902 6.59905C11.7707 5.84253 11.8902 5.06852 12.2079 4.22104C12.4784 3.50306 12.878 2.83935 13.3875 2.26196C13.9256 1.65414 14.5785 1.15593 15.3097 0.795269C16.0884 0.39908 16.8309 0.184806 17.5406 0.15332C17.6327 0.945699 17.5406 1.72496 17.246 2.56719C16.9732 3.31171 16.5743 4.00495 16.0663 4.61723C15.5478 5.22588 14.9114 5.72602 14.1946 6.08829L14.2176 6.08916Z" fill="#522AF9"/>
</svg>
