<svg width="54" height="55" viewBox="0 0 54 55" fill="none" xmlns="http://www.w3.org/2000/svg">
<g clip-path="url(#clip0_2410_745)">
<ellipse cx="26.5369" cy="27.1324" rx="26.5" ry="27" fill="white"/>
<g clip-path="url(#clip1_2410_745)">
<path d="M17.2185 20.5978C18.9497 20.5978 20.3532 19.1678 20.3532 17.4039C20.3532 15.64 18.9497 14.21 17.2185 14.21C15.4872 14.21 14.0837 15.64 14.0837 17.4039C14.0837 19.1678 15.4872 20.5978 17.2185 20.5978Z" stroke="#522AF9" stroke-width="0.838225" stroke-miterlimit="10"/>
<path d="M26.6482 16.7978C28.3794 16.7978 29.7829 15.3679 29.7829 13.604C29.7829 11.84 28.3794 10.4101 26.6482 10.4101C24.9169 10.4101 23.5134 11.84 23.5134 13.604C23.5134 15.3679 24.9169 16.7978 26.6482 16.7978Z" stroke="#522AF9" stroke-width="0.838225" stroke-miterlimit="10"/>
<path d="M26.6482 32.6519C29.6411 32.6519 32.0673 30.1799 32.0673 27.1305C32.0673 24.0811 29.6411 21.6091 26.6482 21.6091C23.6552 21.6091 21.229 24.0811 21.229 27.1305C21.229 30.1799 23.6552 32.6519 26.6482 32.6519Z" stroke="#522AF9" stroke-width="0.838225" stroke-miterlimit="10"/>
<path d="M13.1167 30.3244C14.8479 30.3244 16.2514 28.8944 16.2514 27.1305C16.2514 25.3666 14.8479 23.9366 13.1167 23.9366C11.3854 23.9366 9.98193 25.3666 9.98193 27.1305C9.98193 28.8944 11.3854 30.3244 13.1167 30.3244Z" stroke="#522AF9" stroke-width="0.838225" stroke-miterlimit="10"/>
<path d="M39.9571 30.3244C41.6884 30.3244 43.0918 28.8944 43.0918 27.1305C43.0918 25.3666 41.6884 23.9366 39.9571 23.9366C38.2259 23.9366 36.8224 25.3666 36.8224 27.1305C36.8224 28.8944 38.2259 30.3244 39.9571 30.3244Z" stroke="#522AF9" stroke-width="0.838225" stroke-miterlimit="10"/>
<path d="M36.0268 20.5978C37.7581 20.5978 39.1615 19.1678 39.1615 17.4039C39.1615 15.64 37.7581 14.21 36.0268 14.21C34.2956 14.21 32.8921 15.64 32.8921 17.4039C32.8921 19.1678 34.2956 20.5978 36.0268 20.5978Z" stroke="#522AF9" stroke-width="0.838225" stroke-miterlimit="10"/>
<path d="M26.6481 27.2086C27.7103 27.2086 28.5713 26.3313 28.5713 25.2491C28.5713 24.167 27.7103 23.2897 26.6481 23.2897C25.586 23.2897 24.725 24.167 24.725 25.2491C24.725 26.3313 25.586 27.2086 26.6481 27.2086Z" stroke="#522AF9" stroke-width="0.558817" stroke-miterlimit="10"/>
<path d="M36.0268 40.051C37.7581 40.051 39.1615 38.6211 39.1615 36.8571C39.1615 35.0932 37.7581 33.6633 36.0268 33.6633C34.2956 33.6633 32.8921 35.0932 32.8921 36.8571C32.8921 38.6211 34.2956 40.051 36.0268 40.051Z" stroke="#522AF9" stroke-width="0.838225" stroke-miterlimit="10"/>
<path d="M26.5971 43.8509C28.3284 43.8509 29.7319 42.421 29.7319 40.6571C29.7319 38.8931 28.3284 37.4632 26.5971 37.4632C24.8659 37.4632 23.4624 38.8931 23.4624 40.6571C23.4624 42.421 24.8659 43.8509 26.5971 43.8509Z" stroke="#522AF9" stroke-width="0.838225" stroke-miterlimit="10"/>
<path d="M17.2185 40.051C18.9497 40.051 20.3532 38.6211 20.3532 36.8571C20.3532 35.0932 18.9497 33.6633 17.2185 33.6633C15.4872 33.6633 14.0837 35.0932 14.0837 36.8571C14.0837 38.6211 15.4872 40.051 17.2185 40.051Z" stroke="#522AF9" stroke-width="0.838225" stroke-miterlimit="10"/>
<path d="M22.904 23.2971L19.5248 19.8913" stroke="#522AF9" stroke-width="0.838225" stroke-miterlimit="10"/>
<path d="M33.8993 34.3734L30.6113 31.0605" stroke="#522AF9" stroke-width="0.838225" stroke-miterlimit="10"/>
<path d="M22.9478 31.0122L19.6051 34.4552" stroke="#522AF9" stroke-width="0.838225" stroke-miterlimit="10"/>
<path d="M33.819 19.8095L30.5675 23.1558" stroke="#522AF9" stroke-width="0.838225" stroke-miterlimit="10"/>
<path d="M26.7139 32.5887V37.4297" stroke="#522AF9" stroke-width="0.838225" stroke-miterlimit="10"/>
<path d="M26.7139 16.835V21.5422" stroke="#522AF9" stroke-width="0.838225" stroke-miterlimit="10"/>
<path d="M32.0674 27.1305H36.8187" stroke="#522AF9" stroke-width="0.838225" stroke-miterlimit="10"/>
<path d="M16.6053 27.1305H21.229" stroke="#522AF9" stroke-width="0.838225" stroke-miterlimit="10"/>
<path d="M23.5353 31.596C23.2105 31.2688 23.0244 30.8895 23.0244 30.4843C23.0244 29.287 24.6447 28.3129 26.6481 28.3129C28.6516 28.3129 30.2719 29.2833 30.2719 30.4843C30.2719 30.8858 30.0894 31.2613 29.7719 31.5848" stroke="#522AF9" stroke-width="0.558817" stroke-miterlimit="10"/>
</g>
</g>
<defs>
<clipPath id="clip0_2410_745">
<rect width="53" height="54" fill="white" transform="translate(0.0368652 0.132385)"/>
</clipPath>
<clipPath id="clip1_2410_745">
<rect width="34.2046" height="34.56" fill="white" transform="translate(9.43457 9.85236)"/>
</clipPath>
</defs>
</svg>
