<svg width="54" height="54" viewBox="0 0 54 54" fill="none" xmlns="http://www.w3.org/2000/svg">
<circle cx="26.7181" cy="26.8135" r="26.6812" fill="white"/>
<path d="M26.7181 19.5052C28.9477 19.5052 30.757 17.6905 30.757 15.4663C30.757 13.2421 28.9423 11.4274 26.7181 11.4274C24.4939 11.4274 22.6793 13.2421 22.6793 15.4663C22.6793 17.6905 24.4886 19.5052 26.7181 19.5052ZM26.7181 12.7932C28.1909 12.7932 29.3893 13.9916 29.3893 15.4644C29.3893 16.9371 28.1909 18.1356 26.7181 18.1356C25.2454 18.1356 24.0469 16.9371 24.0469 15.4644C24.0469 13.9934 25.2454 12.7932 26.7181 12.7932Z" fill="#522AF9"/>
<path d="M37.3923 20.417H16.0282C15.1217 20.417 14.3364 21.0332 14.1583 21.8844C14.0444 22.4311 14.1815 22.9974 14.5323 23.4301C14.8742 23.8504 15.3764 24.0961 15.9088 24.1139C17.7146 24.3918 19.5381 24.5965 21.3439 24.7337V41.2098C21.3439 41.753 21.7855 42.1946 22.3287 42.1946H23.5415H23.5468C23.6109 42.1946 23.675 42.1804 23.7338 42.1679C23.748 42.1626 23.7605 42.159 23.7747 42.1537C23.8335 42.1305 23.8887 42.1038 23.9386 42.0718C23.9475 42.0664 23.9528 42.0628 23.9564 42.0539C24.0027 42.0183 24.0436 41.9756 24.0793 41.9311C24.0846 41.9222 24.0935 41.9168 24.0971 41.9079C24.1327 41.8581 24.1612 41.7993 24.1843 41.7352C24.1843 41.7298 24.1897 41.7263 24.1932 41.7174L26.7148 33.7927L29.24 41.7242C29.24 41.7242 29.24 41.7296 29.2454 41.7296C29.2685 41.7972 29.3006 41.8613 29.3415 41.9165C29.3469 41.9219 29.3469 41.9219 29.3504 41.9254C29.3914 41.9753 29.4377 42.0216 29.4875 42.0626C29.4929 42.0679 29.4965 42.0715 29.5018 42.0715C29.5517 42.1071 29.6104 42.1356 29.671 42.1587C29.6852 42.1641 29.6977 42.1676 29.7066 42.173C29.7654 42.1908 29.8259 42.1997 29.8936 42.1997H29.8989H31.1063C31.6494 42.1997 32.0911 41.758 32.0911 41.2149L32.0893 24.7387C33.8861 24.6016 35.7097 24.3968 37.5244 24.119C38.0266 24.1048 38.5038 23.8822 38.8421 23.5082C39.193 23.12 39.3621 22.5964 39.3069 22.0729C39.2054 21.1469 38.3664 20.417 37.3923 20.417ZM37.8197 22.5913C37.7289 22.6964 37.6007 22.7516 37.46 22.7516L37.3549 22.7605C35.3498 23.0704 33.3303 23.2948 31.3555 23.4265C31.3412 23.4265 31.3288 23.4319 31.3092 23.4354C31.286 23.4408 31.2629 23.4408 31.2362 23.4497C31.213 23.455 31.1952 23.4639 31.1721 23.4675C31.1489 23.4764 31.1258 23.4817 31.108 23.4906C31.0902 23.4995 31.0723 23.5084 31.0492 23.5227C31.0314 23.5316 31.0136 23.5458 30.994 23.5583C30.9762 23.5725 30.9619 23.585 30.9441 23.5993C30.9263 23.6135 30.9121 23.626 30.8943 23.6456C30.88 23.6598 30.8675 23.6776 30.8533 23.6954C30.8391 23.7132 30.8266 23.731 30.8177 23.7506C30.8034 23.7684 30.7945 23.7862 30.7856 23.8094C30.7767 23.8272 30.7678 23.8503 30.7589 23.8682C30.75 23.8913 30.7447 23.9091 30.7411 23.9323C30.7358 23.9554 30.7269 23.9732 30.7269 23.9964C30.7215 24.0195 30.7215 24.0427 30.718 24.064C30.718 24.0783 30.7126 24.0961 30.7126 24.1103V40.8372H30.3885L27.3665 31.3507L27.3612 31.3365C27.3558 31.3222 27.3469 31.3098 27.3433 31.2955C27.3344 31.2688 27.3255 31.2456 27.3113 31.2172C27.3024 31.1993 27.2881 31.1815 27.2792 31.1619C27.265 31.1441 27.2525 31.121 27.2383 31.1032C27.224 31.0854 27.2062 31.0711 27.192 31.0569C27.1777 31.0426 27.1599 31.0248 27.1421 31.0106C27.1243 30.9963 27.1065 30.9839 27.0869 30.9696C27.0691 30.9554 27.0513 30.9465 27.0317 30.934C27.0086 30.9198 26.9818 30.9109 26.9534 30.902C26.9391 30.8966 26.9302 30.8877 26.9177 30.8841H26.9124C26.8803 30.8752 26.8447 30.8663 26.8127 30.861C26.8038 30.861 26.7949 30.8556 26.7806 30.8556C26.7486 30.8503 26.7165 30.8556 26.6844 30.8556H26.6435C26.6203 30.8556 26.5972 30.8646 26.5794 30.8699C26.5562 30.8752 26.5331 30.8788 26.5117 30.8841H26.5028C26.485 30.8895 26.4708 30.8984 26.4529 30.9073C26.4298 30.9162 26.4066 30.9251 26.3853 30.934C26.3621 30.9429 26.3443 30.9572 26.3265 30.9696C26.3087 30.9839 26.2909 30.9928 26.2766 31.0052C26.2588 31.0195 26.2446 31.0373 26.2268 31.0515L26.1805 31.0978C26.1662 31.1156 26.1538 31.1335 26.1449 31.153C26.1306 31.1708 26.1181 31.1887 26.1092 31.2082C26.095 31.2314 26.0861 31.2545 26.0772 31.2759C26.0718 31.2902 26.0629 31.3026 26.0594 31.3222L23.0374 40.8229H22.7097L22.7079 24.1046C22.7079 24.0904 22.7026 24.0726 22.7026 24.0583C22.7026 24.0352 22.6972 24.012 22.6937 23.9907C22.6883 23.9675 22.6848 23.9497 22.6794 23.9266C22.6741 23.9034 22.6652 23.8803 22.6616 23.8625C22.6527 23.8393 22.6438 23.8215 22.6349 23.8037C22.626 23.7859 22.6171 23.7627 22.6029 23.7449C22.5886 23.7271 22.5761 23.7093 22.5672 23.6897C22.553 23.6719 22.5405 23.6577 22.5263 23.6399C22.512 23.622 22.4942 23.6078 22.4764 23.5936C22.4586 23.5793 22.4444 23.5668 22.4265 23.5526C22.4087 23.5383 22.3909 23.5294 22.3713 23.517C22.3535 23.5081 22.3357 23.4938 22.3126 23.4849C22.2894 23.476 22.2716 23.4671 22.2485 23.4618C22.2307 23.4529 22.2075 23.4475 22.1844 23.444C22.1612 23.4386 22.1381 23.4351 22.1113 23.4297C22.0971 23.4297 22.0846 23.4244 22.065 23.4208C20.0812 23.289 18.0618 23.0647 16.0656 22.7548L15.9605 22.7459C15.8145 22.7459 15.6774 22.6818 15.5866 22.5643C15.5314 22.4966 15.4494 22.3541 15.4904 22.1582C15.5367 21.9392 15.7646 21.7807 16.0193 21.7807H37.3871C37.6649 21.7807 37.9107 21.973 37.9338 22.2099C37.9623 22.404 37.8749 22.5326 37.8197 22.5913Z" fill="#522AF9"/>
</svg>
