<svg width="1097" height="1121" viewBox="0 0 1097 1121" fill="none" xmlns="http://www.w3.org/2000/svg">
<path d="M734.063 701.942C710.883 676.079 677.565 661.257 642.649 661.257H410.001C363.639 661.257 320.528 687.912 300.281 728.979C294.138 741.275 290.185 754.5 288.56 768.285L266.384 954.88C261.178 998.472 273.932 1039.88 302.264 1071.45C330.431 1102.87 370.126 1120.17 414.036 1120.17H573.285C614.303 1120.17 654.522 1104.54 686.559 1076.18C718.541 1047.86 738.788 1009.99 743.581 969.566L764.159 796.604C768.208 762.28 757.244 727.778 734.091 701.942H734.063ZM392.15 969.552L412.7 796.659C413.375 791.009 418.21 786.751 423.939 786.751H625.019C631.795 786.751 637.057 792.619 636.258 799.279L617.746 954.908C615.239 976.089 594.455 994.664 573.244 994.664H413.995C408.899 994.664 401.792 993.518 396.929 988.113C391.833 982.422 391.517 974.875 392.136 969.552H392.15Z" fill="#2C09BB" fill-opacity="0.3"/>
<path d="M1052.22 387.588C1025.01 357.289 986.737 340.598 944.452 340.598H710C671.131 340.598 638.391 369.449 633.874 407.691L606.754 635.845C606.451 638.411 608.475 640.676 611.092 640.676H642.634C671.889 640.676 700.166 649.616 723.842 665.788C726.735 667.767 730.701 666.021 731.115 662.568L750.701 497.604C752.835 479.63 768.207 466.091 786.47 466.091H944.466C948.447 466.091 953.956 466.937 957.592 470.977C961.408 475.235 961.628 481.145 961.118 485.348L940.968 654.87C938.805 672.94 921.106 688.799 903.077 688.799H759.846C756.003 688.799 753.813 693.153 756.141 696.169C778.702 725.335 789.087 762.239 784.763 798.993L783.523 809.461C783.22 812.027 785.245 814.292 787.862 814.292H903.091C942.497 814.292 981.145 799.293 1011.93 772.038C1042.66 744.838 1062.13 708.452 1066.76 669.555L1086.93 499.965C1091.88 457.916 1079.57 418.009 1052.24 387.588H1052.22Z" fill="#2C09BB" fill-opacity="0.3"/>
<path d="M741.211 167.909C748.319 175.852 748.842 185.788 748.016 192.735L734.215 309.439C733.691 313.861 737.176 317.737 741.666 317.737H837.722C841.524 317.737 844.733 314.912 845.174 311.172L857.763 205.482C862.639 164.183 850.573 125.027 823.797 95.1788C797.146 65.508 759.613 49.1714 718.127 49.1714H558.837C519.83 49.1714 481.526 64.0613 450.976 91.1117C420.468 118.121 401.158 154.206 396.557 192.721L377.412 353.822C375.456 370.227 361.435 382.592 344.769 382.592H176.801C139.365 382.592 102.617 396.882 73.3344 422.813C44.0933 448.717 25.5679 483.328 21.188 520.259L1.03732 689.809C-3.70077 729.524 7.89655 767.22 33.6943 795.976C59.3406 824.555 95.4822 840.291 135.425 840.291H257.693C261.136 840.291 264.029 837.739 264.428 834.355L272.499 766.428C273.642 756.82 275.791 747.444 278.89 738.409C280.171 734.67 277.43 730.794 273.45 730.794H135.425C129.792 730.794 121.886 729.483 116.266 723.233C110.454 716.763 110.068 708.479 110.785 702.624L130.935 533.048C133.566 510.842 154.557 492.09 176.801 492.09H392.356C437.919 492.09 476.292 458.284 481.609 413.464L506.318 205.537C509.348 180.138 533.397 158.683 558.837 158.683H718.127C724.862 158.683 734.339 160.293 741.198 167.936L741.211 167.909Z" fill="#2C09BB" fill-opacity="0.3"/>
<path d="M740.078 654.771C716.898 628.908 683.579 614.086 648.664 614.086H416.015C369.654 614.086 326.543 640.74 306.296 681.807C300.153 694.104 296.2 707.329 294.574 721.113L272.399 907.709C267.193 951.301 279.947 992.709 308.279 1024.28C336.446 1055.69 376.141 1073 420.051 1073H579.3C620.318 1073 660.536 1057.37 692.574 1029.01C724.556 1000.69 744.803 962.82 749.596 922.394L770.173 749.433C774.223 715.108 763.259 680.606 740.106 654.771H740.078ZM398.165 922.381L418.715 749.488C419.39 743.837 424.224 739.579 429.954 739.579H631.034C637.81 739.579 643.072 745.448 642.273 752.108L623.761 907.736C621.254 928.918 600.47 947.493 579.259 947.493H420.01C414.914 947.493 407.806 946.346 402.944 940.942C397.848 935.251 397.531 927.703 398.151 922.381H398.165Z" stroke="white" stroke-width="4" stroke-miterlimit="10"/>
<path d="M1058.23 340.416C1031.03 310.118 992.752 293.426 950.468 293.426H716.015C677.146 293.426 644.407 322.278 639.889 360.52L612.769 588.673C612.466 591.239 614.49 593.505 617.107 593.505H648.649C677.904 593.505 706.181 602.444 729.857 618.617C732.75 620.596 736.717 618.849 737.13 615.396L756.716 450.433C758.851 432.458 774.222 418.92 792.486 418.92H950.481C954.462 418.92 959.971 419.766 963.608 423.806C967.423 428.064 967.643 433.973 967.133 438.177L946.983 607.699C944.82 625.769 927.121 641.628 909.092 641.628H765.861C762.018 641.628 759.829 645.981 762.156 648.998C784.717 678.163 795.103 715.068 790.778 751.822L789.538 762.29C789.235 764.856 791.26 767.121 793.877 767.121H909.106C948.512 767.121 987.16 752.122 1017.94 724.867C1048.67 697.666 1068.15 661.281 1072.78 622.384L1092.94 452.794C1097.9 410.744 1085.59 370.838 1058.26 340.416H1058.23Z" stroke="white" stroke-width="4" stroke-miterlimit="10"/>
<path d="M747.226 120.738C754.333 128.681 754.857 138.617 754.03 145.563L740.229 262.267C739.706 266.689 743.191 270.565 747.681 270.565H843.737C847.539 270.565 850.748 267.74 851.189 264.001L863.778 158.311C868.654 117.012 856.588 77.8556 829.812 48.0074C803.161 18.3367 765.628 2 724.142 2H564.851C525.845 2 487.541 16.89 456.991 43.9403C426.483 70.9497 407.172 107.035 402.572 145.55L383.427 306.651C381.471 323.056 367.45 335.421 350.784 335.421H182.816C145.379 335.421 108.632 349.71 79.3493 375.641C50.1082 401.545 31.5828 436.157 27.2028 473.088L7.05221 642.637C2.31413 682.353 13.9114 720.049 39.7092 748.805C65.3555 777.384 101.497 793.12 141.44 793.12H263.708C267.151 793.12 270.043 790.568 270.443 787.183L278.514 719.257C279.657 709.649 281.806 700.273 284.905 691.238C286.186 687.498 283.445 683.622 279.465 683.622H141.44C135.807 683.622 127.901 682.312 122.281 676.061C116.469 669.592 116.083 661.308 116.799 655.453L136.95 485.876C139.581 463.671 160.572 444.919 182.816 444.919H398.371C443.934 444.919 482.307 411.113 487.623 366.292L512.333 158.365C515.363 132.966 539.412 111.512 564.851 111.512H724.142C730.877 111.512 740.353 113.122 747.213 120.765L747.226 120.738Z" stroke="#7250FF" stroke-width="4" stroke-miterlimit="10"/>
</svg>
