<svg width="414" height="149" viewBox="0 0 414 149" fill="none" xmlns="http://www.w3.org/2000/svg">
<mask id="mask0_2424_2269" style="mask-type:alpha" maskUnits="userSpaceOnUse" x="0" y="0" width="414" height="149">
<rect y="0.833496" width="414" height="148" fill="#D9D9D9"/>
</mask>
<g mask="url(#mask0_2424_2269)">
<g opacity="0.1">
<path d="M57.5536 101.52C56.5327 100.37 55.0653 99.7116 53.5275 99.7116H43.2814C41.2396 99.7116 39.3407 100.896 38.449 102.722C38.1782 103.268 38.0044 103.856 37.9327 104.469L36.9557 112.763C36.7269 114.7 37.2877 116.54 38.5356 117.944C39.776 119.34 41.5241 120.109 43.4576 120.109H50.471C52.2772 120.109 54.0488 119.415 55.4592 118.154C56.8672 116.896 57.7595 115.212 57.9703 113.415L58.8768 105.728C59.0555 104.202 58.5726 102.669 57.5523 101.52H57.5536V101.52ZM42.4961 113.414L43.4014 105.729C43.431 105.478 43.6438 105.289 43.8967 105.289H52.7527C53.0514 105.289 53.2826 105.549 53.248 105.846L52.4324 112.764C52.3223 113.705 51.4065 114.53 50.4728 114.53H43.4595C43.235 114.53 42.9221 114.48 42.7076 114.239C42.4831 113.986 42.4689 113.65 42.4967 113.414H42.4961ZM73.0934 92.543L72.2054 100.081C72.0013 101.81 71.1437 103.427 69.7907 104.636C68.4353 105.847 66.733 106.513 64.9973 106.513H59.9225C59.8075 106.513 59.7178 106.413 59.7314 106.299L59.7864 105.833C59.9775 104.2 59.5199 102.56 58.5262 101.264C58.4236 101.129 58.5207 100.936 58.6895 100.936H64.9973C65.7912 100.936 66.571 100.232 66.6656 99.4284L67.5529 91.8938C67.5746 91.7064 67.5659 91.4442 67.3977 91.255C67.2382 91.0757 66.9952 91.038 66.8196 91.038H59.8619C59.0574 91.038 58.3809 91.6396 58.2869 92.4385L57.4243 99.7703C57.4064 99.9243 57.2314 100.002 57.104 99.9138C56.0615 99.1946 54.8161 98.7977 53.5275 98.7977H52.1381C52.023 98.7977 51.9334 98.6975 51.947 98.5831L53.1416 88.4421C53.3407 86.7429 54.7821 85.4604 56.4943 85.4604H66.8196C68.682 85.4604 70.3677 86.2025 71.5654 87.5492C72.7687 88.901 73.311 90.675 73.0927 92.5437H73.0934V92.543Z" fill="#522AF9"/>
<path d="M112.711 101.52C111.69 100.37 110.222 99.7116 108.684 99.7116H98.4384C96.3966 99.7116 94.4976 100.896 93.606 102.722C93.3351 103.268 93.1614 103.856 93.0896 104.469L92.1126 112.763C91.8839 114.7 92.4447 116.54 93.6925 117.944C94.9329 119.34 96.681 120.109 98.6146 120.109H105.628C107.434 120.109 109.206 119.415 110.616 118.154C112.024 116.896 112.916 115.212 113.127 113.415L114.034 105.728C114.213 104.202 113.73 102.669 112.709 101.52H112.711V101.52ZM97.6531 113.414L98.5583 105.729C98.588 105.478 98.8007 105.289 99.0536 105.289H107.91C108.208 105.289 108.44 105.549 108.405 105.846L107.589 112.764C107.479 113.705 106.564 114.53 105.63 114.53H98.6165C98.392 114.53 98.0791 114.48 97.8645 114.239C97.6401 113.986 97.6259 113.65 97.6537 113.414H97.6531ZM128.25 92.543L127.362 100.081C127.158 101.81 126.301 103.427 124.948 104.636C123.592 105.847 121.89 106.513 120.154 106.513H115.079C114.964 106.513 114.875 106.413 114.888 106.299L114.943 105.833C115.134 104.2 114.677 102.56 113.683 101.264C113.581 101.129 113.678 100.936 113.846 100.936H120.154C120.948 100.936 121.728 100.232 121.823 99.4284L122.71 91.8938C122.732 91.7064 122.723 91.4442 122.555 91.255C122.395 91.0757 122.152 91.038 121.977 91.038H115.019C114.214 91.038 113.538 91.6396 113.444 92.4385L112.581 99.7703C112.563 99.9243 112.388 100.002 112.261 99.9138C111.218 99.1946 109.973 98.7977 108.684 98.7977H107.295C107.18 98.7977 107.09 98.6975 107.104 98.5831L108.299 88.4421C108.498 86.7429 109.939 85.4604 111.651 85.4604H121.977C123.839 85.4604 125.525 86.2025 126.722 87.5492C127.926 88.901 128.468 90.675 128.25 92.5437H128.25V92.543Z" fill="#522AF9"/>
<path d="M167.867 101.52C166.847 100.37 165.379 99.7116 163.841 99.7116H153.595C151.553 99.7116 149.655 100.896 148.763 102.722C148.492 103.268 148.318 103.856 148.247 104.469L147.27 112.763C147.041 114.7 147.602 116.54 148.849 117.944C150.09 119.34 151.838 120.109 153.771 120.109H160.785C162.591 120.109 164.363 119.415 165.773 118.154C167.181 116.896 168.073 115.212 168.284 113.415L169.191 105.728C169.369 104.202 168.886 102.669 167.866 101.52H167.867V101.52ZM152.81 113.414L153.715 105.729C153.745 105.478 153.958 105.289 154.211 105.289H163.067C163.365 105.289 163.596 105.549 163.562 105.846L162.746 112.764C162.636 113.705 161.72 114.53 160.787 114.53H153.773C153.549 114.53 153.236 114.48 153.021 114.239C152.797 113.986 152.783 113.65 152.811 113.414H152.81ZM183.407 92.543L182.519 100.081C182.315 101.81 181.458 103.427 180.105 104.636C178.749 105.847 177.047 106.513 175.311 106.513H170.236C170.121 106.513 170.032 106.413 170.045 106.299L170.1 105.833C170.291 104.2 169.834 102.56 168.84 101.264C168.737 101.129 168.835 100.936 169.003 100.936H175.311C176.105 100.936 176.885 100.232 176.979 99.4284L177.867 91.8938C177.888 91.7064 177.88 91.4442 177.712 91.255C177.552 91.0757 177.309 91.038 177.133 91.038H170.176C169.371 91.038 168.695 91.6396 168.601 92.4385L167.738 99.7703C167.72 99.9243 167.545 100.002 167.418 99.9138C166.375 99.1946 165.13 98.7977 163.841 98.7977H162.452C162.337 98.7977 162.247 98.6975 162.261 98.5831L163.455 88.4421C163.655 86.7429 165.096 85.4604 166.808 85.4604H177.133C178.996 85.4604 180.682 86.2025 181.879 87.5492C183.083 88.901 183.625 90.675 183.407 92.5437H183.407V92.543Z" fill="#522AF9"/>
<path d="M56.8524 77.3729H49.8372C48.7167 77.3729 47.6575 78.3264 47.5239 79.4555L46.4356 88.6974C46.2013 90.6897 44.5113 92.1923 42.5047 92.1923H33.0118C32.0324 92.1923 31.1079 93.0258 30.9923 94.0127L30.1043 101.55C30.0728 101.81 30.0901 102.178 30.3455 102.466C30.5928 102.744 30.941 102.803 31.1889 102.803H37.2679C37.4435 102.803 37.5641 102.975 37.5072 103.141C37.3706 103.542 37.276 103.959 37.2259 104.386L36.8703 107.405C36.8524 107.555 36.725 107.669 36.5735 107.669H31.1889C29.4297 107.669 27.8381 106.97 26.7083 105.7C25.5724 104.421 25.0617 102.746 25.2701 100.981L26.1574 93.4457C26.3503 91.804 27.1659 90.2655 28.454 89.1141C29.7438 87.9615 31.3621 87.3265 33.0112 87.3265H40.4092C41.1431 87.3265 41.7615 86.7768 41.8468 86.0477L42.6903 78.8872C42.8925 77.175 43.7433 75.571 45.0864 74.3708C46.4313 73.1687 48.1181 72.5071 49.8365 72.5071H56.8517C58.679 72.5071 60.3318 73.233 61.5054 74.552C62.6846 75.8783 63.2158 77.619 63.0012 79.4543L62.4466 84.1519C62.4268 84.3182 62.2858 84.4437 62.1182 84.4437H57.8875C57.6896 84.4437 57.5362 84.2712 57.5591 84.0746L58.167 78.8878C58.2034 78.5793 58.1806 78.1378 57.8677 77.7847C57.5653 77.4452 57.1479 77.3735 56.8517 77.3735H56.8524V77.3729Z" fill="#522AF9"/>
<path d="M112.009 77.3729H104.994C103.874 77.3729 102.814 78.3264 102.681 79.4555L101.593 88.6974C101.358 90.6897 99.6682 92.1923 97.6617 92.1923H88.1687C87.1893 92.1923 86.2648 93.0258 86.1492 94.0127L85.2612 101.55C85.2297 101.81 85.247 102.178 85.5024 102.466C85.7497 102.744 86.0979 102.803 86.3458 102.803H92.4248C92.6005 102.803 92.721 102.975 92.6641 103.141C92.5275 103.542 92.4329 103.959 92.3828 104.386L92.0272 107.405C92.0093 107.555 91.8819 107.669 91.7304 107.669H86.3458C84.5866 107.669 82.995 106.97 81.8653 105.7C80.7293 104.421 80.2186 102.746 80.427 100.981L81.3143 93.4457C81.5072 91.804 82.3228 90.2655 83.6109 89.1141C84.9007 87.9615 86.519 87.3265 88.1681 87.3265H95.5661C96.3 87.3265 96.9184 86.7768 97.0037 86.0477L97.8472 78.8872C98.0494 77.175 98.9002 75.571 100.243 74.3708C101.588 73.1687 103.275 72.5071 104.993 72.5071H112.009C113.836 72.5071 115.489 73.233 116.662 74.552C117.842 75.8783 118.373 77.619 118.158 79.4543L117.603 84.1519C117.584 84.3182 117.443 84.4437 117.275 84.4437H113.044C112.847 84.4437 112.693 84.2712 112.716 84.0746L113.324 78.8878C113.36 78.5793 113.337 78.1378 113.025 77.7847C112.722 77.4452 112.305 77.3735 112.009 77.3735H112.009V77.3729Z" fill="#522AF9"/>
<path d="M167.166 77.3729H160.151C159.031 77.3729 157.971 78.3264 157.838 79.4555L156.749 88.6974C156.515 90.6897 154.825 92.1923 152.819 92.1923H143.326C142.346 92.1923 141.422 93.0258 141.306 94.0127L140.418 101.55C140.387 101.81 140.404 102.178 140.659 102.466C140.907 102.744 141.255 102.803 141.503 102.803H147.582C147.757 102.803 147.878 102.975 147.821 103.141C147.684 103.542 147.59 103.959 147.54 104.386L147.184 107.405C147.166 107.555 147.039 107.669 146.887 107.669H141.503C139.744 107.669 138.152 106.97 137.022 105.7C135.886 104.421 135.376 102.746 135.584 100.981L136.471 93.4457C136.664 91.804 137.48 90.2655 138.768 89.1141C140.058 87.9615 141.676 87.3265 143.325 87.3265H150.723C151.457 87.3265 152.075 86.7768 152.161 86.0477L153.004 78.8872C153.206 77.175 154.057 75.571 155.4 74.3708C156.745 73.1687 158.432 72.5071 160.15 72.5071H167.166C168.993 72.5071 170.646 73.233 171.819 74.552C172.999 75.8783 173.53 77.619 173.315 79.4543L172.76 84.1519C172.741 84.3182 172.6 84.4437 172.432 84.4437H168.201C168.003 84.4437 167.85 84.2712 167.873 84.0746L168.481 78.8878C168.517 78.5793 168.494 78.1378 168.182 77.7847C167.879 77.4452 167.462 77.3735 167.166 77.3735H167.166V77.3729Z" fill="#522AF9"/>
<path d="M35.8157 53.9176C34.7948 52.7681 33.3274 52.1095 31.7896 52.1095H21.5435C19.5017 52.1095 17.6028 53.2943 16.7111 55.1197C16.4403 55.6657 16.2665 56.2537 16.1948 56.8671L15.2178 65.1605C14.989 67.0978 15.5498 68.938 16.7977 70.3416C18.0381 71.7379 19.7862 72.5071 21.7198 72.5071H28.7331C30.5393 72.5071 32.3109 71.8127 33.7213 70.5519C35.1293 69.2935 36.0216 67.6104 36.2325 65.8128L37.139 58.1255C37.3177 56.6 36.8347 55.0665 35.8144 53.9182H35.8157V53.9176ZM20.7582 65.8122L21.6635 58.1273C21.6932 57.8763 21.9059 57.6871 22.1588 57.6871H31.0148C31.3135 57.6871 31.5447 57.9474 31.5101 58.2442L30.6945 65.1617C30.5844 66.1028 29.6687 66.9283 28.7349 66.9283H21.7216C21.4971 66.9283 21.1843 66.8776 20.9697 66.6371C20.7452 66.3836 20.731 66.0484 20.7588 65.8122H20.7582ZM51.3555 44.941L50.4675 52.4787C50.2635 54.2076 49.4058 55.8246 48.0529 57.0335C46.6974 58.2448 44.9951 58.9114 43.2594 58.9114H38.1846C38.0696 58.9114 37.9799 58.8112 37.9935 58.6968L38.0486 58.2312C38.2396 56.5982 37.782 54.9577 36.7884 53.6616C36.6857 53.5274 36.7828 53.3339 36.9516 53.3339H43.2594C44.0534 53.3339 44.8331 52.6296 44.9277 51.8263L45.815 44.2917C45.8367 44.1044 45.828 43.8422 45.6598 43.653C45.5003 43.4736 45.2573 43.4359 45.0817 43.4359H38.124C37.3195 43.4359 36.643 44.0376 36.549 44.8365L35.6864 52.1683C35.6685 52.3223 35.4935 52.3995 35.3661 52.3117C34.3236 51.5926 33.0782 51.1956 31.7896 51.1956H30.4002C30.2852 51.1956 30.1955 51.0954 30.2091 50.9811L31.4037 40.8401C31.6029 39.1409 33.0442 37.8584 34.7565 37.8584H45.0817C46.9442 37.8584 48.6298 38.6004 49.8275 39.9472C51.0308 41.2989 51.5731 43.073 51.3549 44.9416H51.3555V44.941Z" fill="#522AF9"/>
<path d="M90.9727 53.9176C89.9518 52.7681 88.4844 52.1095 86.9466 52.1095H76.7005C74.6587 52.1095 72.7597 53.2943 71.8681 55.1197C71.5972 55.6657 71.4235 56.2537 71.3518 56.8671L70.3748 65.1605C70.146 67.0978 70.7068 68.938 71.9546 70.3416C73.1951 71.7379 74.9431 72.5071 76.8767 72.5071H83.8901C85.6963 72.5071 87.4678 71.8127 88.8783 70.5519C90.2863 69.2935 91.1786 67.6104 91.3894 65.8128L92.2959 58.1255C92.4746 56.6 91.9917 55.0665 90.9714 53.9182H90.9727V53.9176ZM75.9152 65.8122L76.8204 58.1273C76.8501 57.8763 77.0628 57.6871 77.3157 57.6871H86.1718C86.4704 57.6871 86.7017 57.9474 86.6671 58.2442L85.8515 65.1617C85.7414 66.1028 84.8256 66.9283 83.8919 66.9283H76.8786C76.6541 66.9283 76.3412 66.8776 76.1267 66.6371C75.9022 66.3836 75.888 66.0484 75.9158 65.8122H75.9152ZM106.512 44.941L105.624 52.4787C105.42 54.2076 104.563 55.8246 103.21 57.0335C101.854 58.2448 100.152 58.9114 98.4164 58.9114H93.3416C93.2265 58.9114 93.1369 58.8112 93.1505 58.6968L93.2055 58.2312C93.3966 56.5982 92.939 54.9577 91.9453 53.6616C91.8427 53.5274 91.9398 53.3339 92.1086 53.3339H98.4164C99.2103 53.3339 99.9901 52.6296 100.085 51.8263L100.972 44.2917C100.994 44.1044 100.985 43.8422 100.817 43.653C100.657 43.4736 100.414 43.4359 100.239 43.4359H93.281C92.4765 43.4359 91.8 44.0376 91.706 44.8365L90.8434 52.1683C90.8255 52.3223 90.6505 52.3995 90.5231 52.3117C89.4806 51.5926 88.2352 51.1956 86.9466 51.1956H85.5571C85.4421 51.1956 85.3525 51.0954 85.3661 50.9811L86.5607 40.8401C86.7598 39.1409 88.2012 37.8584 89.9134 37.8584H100.239C102.101 37.8584 103.787 38.6004 104.984 39.9472C106.188 41.2989 106.73 43.073 106.512 44.9416H106.512V44.941Z" fill="#522AF9"/>
<path d="M146.13 53.9176C145.109 52.7681 143.641 52.1095 142.103 52.1095H131.857C129.816 52.1095 127.917 53.2943 127.025 55.1197C126.754 55.6657 126.58 56.2537 126.509 56.8671L125.532 65.1605C125.303 67.0978 125.864 68.938 127.112 70.3416C128.352 71.7379 130.1 72.5071 132.034 72.5071H139.047C140.853 72.5071 142.625 71.8127 144.035 70.5519C145.443 69.2935 146.335 67.6104 146.546 65.8128L147.453 58.1255C147.632 56.6 147.149 55.0665 146.128 53.9182H146.13V53.9176ZM131.072 65.8122L131.977 58.1273C132.007 57.8763 132.22 57.6871 132.473 57.6871H141.329C141.627 57.6871 141.859 57.9474 141.824 58.2442L141.008 65.1617C140.898 66.1028 139.983 66.9283 139.049 66.9283H132.035C131.811 66.9283 131.498 66.8776 131.284 66.6371C131.059 66.3836 131.045 66.0484 131.073 65.8122H131.072ZM161.669 44.941L160.781 52.4787C160.577 54.2076 159.72 55.8246 158.367 57.0335C157.011 58.2448 155.309 58.9114 153.573 58.9114H148.498C148.383 58.9114 148.294 58.8112 148.307 58.6968L148.362 58.2312C148.553 56.5982 148.096 54.9577 147.102 53.6616C147 53.5274 147.097 53.3339 147.265 53.3339H153.573C154.367 53.3339 155.147 52.6296 155.242 51.8263L156.129 44.2917C156.151 44.1044 156.142 43.8422 155.974 43.653C155.814 43.4736 155.571 43.4359 155.396 43.4359H148.438C147.633 43.4359 146.957 44.0376 146.863 44.8365L146 52.1683C145.982 52.3223 145.807 52.3995 145.68 52.3117C144.637 51.5926 143.392 51.1956 142.103 51.1956H140.714C140.599 51.1956 140.509 51.0954 140.523 50.9811L141.718 40.8401C141.917 39.1409 143.358 37.8584 145.07 37.8584H155.396C157.258 37.8584 158.944 38.6004 160.141 39.9472C161.345 41.2989 161.887 43.073 161.669 44.9416H161.669V44.941Z" fill="#522AF9"/>
<path d="M201.286 53.9176C200.266 52.7681 198.798 52.1095 197.26 52.1095H187.014C184.973 52.1095 183.074 53.2943 182.182 55.1197C181.911 55.6657 181.737 56.2537 181.666 56.8671L180.689 65.1605C180.46 67.0978 181.021 68.938 182.268 70.3416C183.509 71.7379 185.257 72.5071 187.191 72.5071H194.204C196.01 72.5071 197.782 71.8127 199.192 70.5519C200.6 69.2935 201.492 67.6104 201.703 65.8128L202.61 58.1255C202.788 56.6 202.306 55.0665 201.285 53.9182H201.286V53.9176ZM186.229 65.8122L187.134 58.1273C187.164 57.8763 187.377 57.6871 187.63 57.6871H196.486C196.784 57.6871 197.016 57.9474 196.981 58.2442L196.165 65.1617C196.055 66.1028 195.139 66.9283 194.206 66.9283H187.192C186.968 66.9283 186.655 66.8776 186.44 66.6371C186.216 66.3836 186.202 66.0484 186.23 65.8122H186.229ZM216.826 44.941L215.938 52.4787C215.734 54.2076 214.877 55.8246 213.524 57.0335C212.168 58.2448 210.466 58.9114 208.73 58.9114H203.655C203.54 58.9114 203.451 58.8112 203.464 58.6968L203.519 58.2312C203.71 56.5982 203.253 54.9577 202.259 53.6616C202.156 53.5274 202.254 53.3339 202.422 53.3339H208.73C209.524 53.3339 210.304 52.6296 210.399 51.8263L211.286 44.2917C211.307 44.1044 211.299 43.8422 211.131 43.653C210.971 43.4736 210.728 43.4359 210.552 43.4359H203.595C202.79 43.4359 202.114 44.0376 202.02 44.8365L201.157 52.1683C201.139 52.3223 200.964 52.3995 200.837 52.3117C199.794 51.5926 198.549 51.1956 197.26 51.1956H195.871C195.756 51.1956 195.666 51.0954 195.68 50.9811L196.875 40.8401C197.074 39.1409 198.515 37.8584 200.227 37.8584H210.552C212.415 37.8584 214.101 38.6004 215.298 39.9472C216.502 41.2989 217.044 43.073 216.826 44.9416H216.826V44.941Z" fill="#522AF9"/>
<path d="M35.1145 29.7708H28.0993C26.9789 29.7708 25.9196 30.7243 25.7861 31.8534L24.6978 41.0953C24.4634 43.0876 22.7734 44.5902 20.7669 44.5902H11.274C10.2945 44.5902 9.37006 45.4238 9.25443 46.4107L8.36648 53.9478C8.33494 54.2081 8.35226 54.576 8.60764 54.8641C8.85498 55.1418 9.20311 55.2005 9.45107 55.2005H15.5301C15.7057 55.2005 15.8263 55.3731 15.7694 55.5388C15.6327 55.9401 15.5381 56.3568 15.488 56.7841L15.1325 59.8029C15.1145 59.9532 14.9872 60.067 14.8357 60.067H9.45107C7.69186 60.067 6.10022 59.3676 4.9705 58.0975C3.83458 56.8194 3.32383 55.1443 3.53221 53.3789L4.41954 45.8436C4.61247 44.2019 5.42808 42.6635 6.7161 41.5121C8.00598 40.3595 9.62421 39.7244 11.2733 39.7244H18.6713C19.4053 39.7244 20.0236 39.1747 20.109 38.4457L20.9524 31.2852C21.1546 29.573 22.0055 27.969 23.3485 26.7687C24.6934 25.5667 26.3803 24.905 28.0987 24.905H35.1139C36.9411 24.905 38.594 25.631 39.7676 26.9499C40.9468 28.2763 41.478 30.0169 41.2634 31.8522L40.7087 36.5498C40.6889 36.7162 40.548 36.8417 40.3804 36.8417H36.1496C35.9517 36.8417 35.7984 36.6692 35.8213 36.4725L36.4291 31.2858C36.4656 30.9772 36.4427 30.5357 36.1298 30.1827C35.8275 29.8432 35.4101 29.7715 35.1139 29.7715H35.1145V29.7708Z" fill="#522AF9"/>
<path d="M90.2714 29.7708H83.2562C82.1357 29.7708 81.0765 30.7243 80.9429 31.8534L79.8546 41.0953C79.6203 43.0876 77.9303 44.5902 75.9238 44.5902H66.4308C65.4514 44.5902 64.5269 45.4238 64.4113 46.4107L63.5234 53.9478C63.4918 54.2081 63.5091 54.576 63.7645 54.8641C64.0119 55.1418 64.36 55.2005 64.6079 55.2005H70.687C70.8626 55.2005 70.9831 55.3731 70.9263 55.5388C70.7896 55.9401 70.695 56.3568 70.6449 56.7841L70.2894 59.8029C70.2714 59.9532 70.144 60.067 69.9925 60.067H64.6079C62.8487 60.067 61.2571 59.3676 60.1274 58.0975C58.9915 56.8194 58.4807 55.1443 58.6891 53.3789L59.5764 45.8436C59.7693 44.2019 60.585 42.6635 61.873 41.5121C63.1629 40.3595 64.7811 39.7244 66.4302 39.7244H73.8282C74.5622 39.7244 75.1805 39.1747 75.2658 38.4457L76.1093 31.2852C76.3115 29.573 77.1623 27.969 78.5054 26.7687C79.8503 25.5667 81.5372 24.905 83.2556 24.905H90.2708C92.098 24.905 93.7508 25.631 94.9245 26.9499C96.1037 28.2763 96.6348 30.0169 96.4203 31.8522L95.8656 36.5498C95.8458 36.7162 95.7048 36.8417 95.5373 36.8417H91.3065C91.1086 36.8417 90.9553 36.6692 90.9781 36.4725L91.586 31.2858C91.6225 30.9772 91.5996 30.5357 91.2867 30.1827C90.9843 29.8432 90.5669 29.7715 90.2708 29.7715H90.2714V29.7708Z" fill="#522AF9"/>
<path d="M145.428 29.7708H138.413C137.293 29.7708 136.233 30.7243 136.1 31.8534L135.012 41.0953C134.777 43.0876 133.087 44.5902 131.081 44.5902H121.588C120.608 44.5902 119.684 45.4238 119.568 46.4107L118.68 53.9478C118.649 54.2081 118.666 54.576 118.921 54.8641C119.169 55.1418 119.517 55.2005 119.765 55.2005H125.844C126.02 55.2005 126.14 55.3731 126.083 55.5388C125.947 55.9401 125.852 56.3568 125.802 56.7841L125.446 59.8029C125.428 59.9532 125.301 60.067 125.15 60.067H119.765C118.006 60.067 116.414 59.3676 115.284 58.0975C114.148 56.8194 113.638 55.1443 113.846 53.3789L114.733 45.8436C114.926 44.2019 115.742 42.6635 117.03 41.5121C118.32 40.3595 119.938 39.7244 121.587 39.7244H128.985C129.719 39.7244 130.337 39.1747 130.423 38.4457L131.266 31.2852C131.468 29.573 132.319 27.969 133.662 26.7687C135.007 25.5667 136.694 24.905 138.413 24.905H145.428C147.255 24.905 148.908 25.631 150.081 26.9499C151.261 28.2763 151.792 30.0169 151.577 31.8522L151.023 36.5498C151.003 36.7162 150.862 36.8417 150.694 36.8417H146.463C146.266 36.8417 146.112 36.6692 146.135 36.4725L146.743 31.2858C146.779 30.9772 146.757 30.5357 146.444 30.1827C146.141 29.8432 145.724 29.7715 145.428 29.7715H145.428V29.7708Z" fill="#522AF9"/>
<path d="M200.585 29.7708H193.57C192.45 29.7708 191.39 30.7243 191.257 31.8534L190.169 41.0953C189.934 43.0876 188.244 44.5902 186.238 44.5902H176.745C175.765 44.5902 174.841 45.4238 174.725 46.4107L173.837 53.9478C173.806 54.2081 173.823 54.576 174.078 54.8641C174.326 55.1418 174.674 55.2005 174.922 55.2005H181.001C181.176 55.2005 181.297 55.3731 181.24 55.5388C181.103 55.9401 181.009 56.3568 180.959 56.7841L180.603 59.8029C180.585 59.9532 180.458 60.067 180.306 60.067H174.922C173.163 60.067 171.571 59.3676 170.441 58.0975C169.305 56.8194 168.795 55.1443 169.003 53.3789L169.89 45.8436C170.083 44.2019 170.899 42.6635 172.187 41.5121C173.477 40.3595 175.095 39.7244 176.744 39.7244H184.142C184.876 39.7244 185.494 39.1747 185.58 38.4457L186.423 31.2852C186.625 29.573 187.476 27.969 188.819 26.7687C190.164 25.5667 191.851 24.905 193.569 24.905H200.585C202.412 24.905 204.065 25.631 205.238 26.9499C206.418 28.2763 206.949 30.0169 206.734 31.8522L206.179 36.5498C206.16 36.7162 206.019 36.8417 205.851 36.8417H201.62C201.422 36.8417 201.269 36.6692 201.292 36.4725L201.9 31.2858C201.936 30.9772 201.913 30.5357 201.601 30.1827C201.298 29.8432 200.881 29.7715 200.585 29.7715H200.585V29.7708Z" fill="#522AF9"/>
<path d="M14.0777 6.29822C13.0568 5.1487 11.5895 4.49016 10.0517 4.49016H-0.194425C-2.23622 4.49016 -4.13518 5.67492 -5.02684 7.50029C-5.29768 8.0463 -5.47143 8.63435 -5.54316 9.24775L-6.52016 17.5411C-6.74895 19.4784 -6.1881 21.3186 -4.94027 22.7222C-3.69986 24.1185 -1.95178 24.8877 -0.0181942 24.8877H6.99515C8.80135 24.8877 10.5729 24.1933 11.9834 22.9325C13.3914 21.6741 14.2836 19.991 14.4945 18.1934L15.401 10.5061C15.5797 8.98062 15.0968 7.44711 14.0765 6.29884H14.0777V6.29822ZM-0.97973 18.1928L-0.0744643 10.508C-0.0447836 10.2569 0.16793 10.0677 0.420835 10.0677H9.27686C9.57552 10.0677 9.80679 10.328 9.77216 10.6248L8.95656 17.5423C8.84649 18.4834 7.93071 19.3089 6.997 19.3089H-0.0163393C-0.240801 19.3089 -0.553687 19.2582 -0.768255 19.0177C-0.992716 18.7642 -1.00694 18.429 -0.979113 18.1928H-0.97973ZM29.6175 -2.67839L28.7296 4.85931C28.5255 6.58822 27.6679 8.20521 26.3149 9.41409C24.9595 10.6254 23.2572 11.292 21.5215 11.292H16.4466C16.3316 11.292 16.242 11.1918 16.2556 11.0775L16.3106 10.6118C16.5017 8.97877 16.0441 7.33828 15.0504 6.04222C14.9478 5.90804 15.0448 5.71449 15.2137 5.71449H21.5215C22.3154 5.71449 23.0952 5.01019 23.1898 4.20695L24.0771 -3.32766C24.0987 -3.51502 24.0901 -3.7772 23.9219 -3.96642C23.7624 -4.14574 23.5193 -4.18346 23.3437 -4.18346H16.386C15.5816 -4.18346 14.9051 -3.5818 14.8111 -2.78289L13.9485 4.5489C13.9306 4.70287 13.7556 4.78016 13.6282 4.69236C12.5857 3.97321 11.3403 3.57623 10.0517 3.57623H8.66222C8.54721 3.57623 8.45755 3.47606 8.47115 3.36167L9.6658 -6.7793C9.86491 -8.47852 11.3063 -9.76099 13.0185 -9.76099H23.3437C25.2062 -9.76099 26.8918 -9.01896 28.0896 -7.6722C29.2929 -6.32048 29.8352 -4.54643 29.6169 -2.67777H29.6175V-2.67839Z" fill="#522AF9"/>
<path d="M69.2346 6.29822C68.2137 5.1487 66.7464 4.49016 65.2085 4.49016H54.9625C52.9207 4.49016 51.0217 5.67492 50.1301 7.50029C49.8592 8.0463 49.6855 8.63435 49.6137 9.24775L48.6367 17.5411C48.4079 19.4784 48.9688 21.3186 50.2166 22.7222C51.457 24.1185 53.2051 24.8877 55.1387 24.8877H62.152C63.9582 24.8877 65.7298 24.1933 67.1403 22.9325C68.5483 21.6741 69.4405 19.991 69.6514 18.1934L70.5579 10.5061C70.7366 8.98062 70.2537 7.44711 69.2334 6.29884H69.2346V6.29822ZM54.1772 18.1928L55.0824 10.508C55.1121 10.2569 55.3248 10.0677 55.5777 10.0677H64.4338C64.7324 10.0677 64.9637 10.328 64.9291 10.6248L64.1134 17.5423C64.0034 18.4834 63.0876 19.3089 62.1539 19.3089H55.1406C54.9161 19.3089 54.6032 19.2582 54.3886 19.0177C54.1642 18.7642 54.15 18.429 54.1778 18.1928H54.1772ZM84.7744 -2.67839L83.8865 4.85931C83.6824 6.58822 82.8248 8.20521 81.4718 9.41409C80.1164 10.6254 78.4141 11.292 76.6783 11.292H71.6035C71.4885 11.292 71.3989 11.1918 71.4125 11.0775L71.4675 10.6118C71.6586 8.97877 71.201 7.33828 70.2073 6.04222C70.1047 5.90804 70.2017 5.71449 70.3705 5.71449H76.6783C77.4723 5.71449 78.252 5.01019 78.3467 4.20695L79.234 -3.32766C79.2556 -3.51502 79.247 -3.7772 79.0788 -3.96642C78.9192 -4.14574 78.6762 -4.18346 78.5006 -4.18346H71.5429C70.7385 -4.18346 70.062 -3.5818 69.968 -2.78289L69.1054 4.5489C69.0875 4.70287 68.9125 4.78016 68.7851 4.69236C67.7425 3.97321 66.4972 3.57623 65.2085 3.57623H63.8191C63.7041 3.57623 63.6144 3.47606 63.628 3.36167L64.8227 -6.7793C65.0218 -8.47852 66.4632 -9.76099 68.1754 -9.76099H78.5006C80.3631 -9.76099 82.0487 -9.01896 83.2465 -7.6722C84.4498 -6.32048 84.9921 -4.54643 84.7738 -2.67777H84.7744V-2.67839Z" fill="#522AF9"/>
<path d="M124.392 6.29822C123.371 5.1487 121.903 4.49016 120.366 4.49016H110.119C108.078 4.49016 106.179 5.67492 105.287 7.50029C105.016 8.0463 104.842 8.63435 104.771 9.24775L103.794 17.5411C103.565 19.4784 104.126 21.3186 105.374 22.7222C106.614 24.1185 108.362 24.8877 110.296 24.8877H117.309C119.115 24.8877 120.887 24.1933 122.297 22.9325C123.705 21.6741 124.598 19.991 124.808 18.1934L125.715 10.5061C125.894 8.98062 125.411 7.44711 124.39 6.29884H124.392V6.29822ZM109.334 18.1928L110.239 10.508C110.269 10.2569 110.482 10.0677 110.735 10.0677H119.591C119.889 10.0677 120.121 10.328 120.086 10.6248L119.27 17.5423C119.16 18.4834 118.245 19.3089 117.311 19.3089H110.298C110.073 19.3089 109.76 19.2582 109.546 19.0177C109.321 18.7642 109.307 18.429 109.335 18.1928H109.334ZM139.931 -2.67839L139.043 4.85931C138.839 6.58822 137.982 8.20521 136.629 9.41409C135.273 10.6254 133.571 11.292 131.835 11.292H126.761C126.645 11.292 126.556 11.1918 126.569 11.0775L126.624 10.6118C126.816 8.97877 126.358 7.33828 125.364 6.04222C125.262 5.90804 125.359 5.71449 125.528 5.71449H131.835C132.629 5.71449 133.409 5.01019 133.504 4.20695L134.391 -3.32766C134.413 -3.51502 134.404 -3.7772 134.236 -3.96642C134.076 -4.14574 133.833 -4.18346 133.658 -4.18346H126.7C125.895 -4.18346 125.219 -3.5818 125.125 -2.78289L124.262 4.5489C124.244 4.70287 124.069 4.78016 123.942 4.69236C122.9 3.97321 121.654 3.57623 120.366 3.57623H118.976C118.861 3.57623 118.771 3.47606 118.785 3.36167L119.98 -6.7793C120.179 -8.47852 121.62 -9.76099 123.332 -9.76099H133.658C135.52 -9.76099 137.206 -9.01896 138.403 -7.6722C139.607 -6.32048 140.149 -4.54643 139.931 -2.67777H139.931V-2.67839Z" fill="#522AF9"/>
<path d="M179.549 6.29822C178.528 5.1487 177.06 4.49016 175.522 4.49016H165.276C163.235 4.49016 161.336 5.67492 160.444 7.50029C160.173 8.0463 159.999 8.63435 159.928 9.24775L158.951 17.5411C158.722 19.4784 159.283 21.3186 160.531 22.7222C161.771 24.1185 163.519 24.8877 165.453 24.8877H172.466C174.272 24.8877 176.044 24.1933 177.454 22.9325C178.862 21.6741 179.754 19.991 179.965 18.1934L180.872 10.5061C181.051 8.98062 180.568 7.44711 179.547 6.29884H179.549V6.29822ZM164.491 18.1928L165.396 10.508C165.426 10.2569 165.639 10.0677 165.892 10.0677H174.748C175.046 10.0677 175.278 10.328 175.243 10.6248L174.427 17.5423C174.317 18.4834 173.402 19.3089 172.468 19.3089H165.454C165.23 19.3089 164.917 19.2582 164.703 19.0177C164.478 18.7642 164.464 18.429 164.492 18.1928H164.491ZM195.088 -2.67839L194.2 4.85931C193.996 6.58822 193.139 8.20521 191.786 9.41409C190.43 10.6254 188.728 11.292 186.992 11.292H181.917C181.802 11.292 181.713 11.1918 181.726 11.0775L181.781 10.6118C181.972 8.97877 181.515 7.33828 180.521 6.04222C180.419 5.90804 180.516 5.71449 180.684 5.71449H186.992C187.786 5.71449 188.566 5.01019 188.661 4.20695L189.548 -3.32766C189.57 -3.51502 189.561 -3.7772 189.393 -3.96642C189.233 -4.14574 188.99 -4.18346 188.815 -4.18346H181.857C181.052 -4.18346 180.376 -3.5818 180.282 -2.78289L179.419 4.5489C179.401 4.70287 179.226 4.78016 179.099 4.69236C178.056 3.97321 176.811 3.57623 175.522 3.57623H174.133C174.018 3.57623 173.928 3.47606 173.942 3.36167L175.137 -6.7793C175.336 -8.47852 176.777 -9.76099 178.489 -9.76099H188.815C190.677 -9.76099 192.363 -9.01896 193.56 -7.6722C194.764 -6.32048 195.306 -4.54643 195.088 -2.67777H195.088V-2.67839Z" fill="#522AF9"/>
<path d="M234.705 6.29822C233.685 5.1487 232.217 4.49016 230.679 4.49016H220.433C218.391 4.49016 216.493 5.67492 215.601 7.50029C215.33 8.0463 215.156 8.63435 215.085 9.24775L214.108 17.5411C213.879 19.4784 214.44 21.3186 215.687 22.7222C216.928 24.1185 218.676 24.8877 220.61 24.8877H227.623C229.429 24.8877 231.201 24.1933 232.611 22.9325C234.019 21.6741 234.911 19.991 235.122 18.1934L236.029 10.5061C236.207 8.98062 235.724 7.44711 234.704 6.29884H234.705V6.29822ZM219.648 18.1928L220.553 10.508C220.583 10.2569 220.796 10.0677 221.049 10.0677H229.905C230.203 10.0677 230.435 10.328 230.4 10.6248L229.584 17.5423C229.474 18.4834 228.558 19.3089 227.625 19.3089H220.611C220.387 19.3089 220.074 19.2582 219.859 19.0177C219.635 18.7642 219.621 18.429 219.649 18.1928H219.648ZM250.245 -2.67839L249.357 4.85931C249.153 6.58822 248.296 8.20521 246.943 9.41409C245.587 10.6254 243.885 11.292 242.149 11.292H237.074C236.959 11.292 236.87 11.1918 236.883 11.0775L236.938 10.6118C237.129 8.97877 236.672 7.33828 235.678 6.04222C235.575 5.90804 235.673 5.71449 235.841 5.71449H242.149C242.943 5.71449 243.723 5.01019 243.817 4.20695L244.705 -3.32766C244.726 -3.51502 244.718 -3.7772 244.55 -3.96642C244.39 -4.14574 244.147 -4.18346 243.971 -4.18346H237.014C236.209 -4.18346 235.533 -3.5818 235.439 -2.78289L234.576 4.5489C234.558 4.70287 234.383 4.78016 234.256 4.69236C233.213 3.97321 231.968 3.57623 230.679 3.57623H229.29C229.175 3.57623 229.085 3.47606 229.099 3.36167L230.294 -6.7793C230.493 -8.47852 231.934 -9.76099 233.646 -9.76099H243.971C245.834 -9.76099 247.52 -9.01896 248.717 -7.6722C249.921 -6.32048 250.463 -4.54643 250.245 -2.67777H250.245V-2.67839Z" fill="#522AF9"/>
<path d="M13.3765 -17.8481H6.36134C5.24089 -17.8481 4.18166 -16.8946 4.04809 -15.7655L2.95979 -6.52358C2.72544 -4.53125 1.03548 -3.02865 -0.971066 -3.02865H-10.464C-11.4435 -3.02865 -12.3679 -2.19512 -12.4835 -1.20823L-13.3715 6.32885C-13.403 6.58918 -13.3857 6.9571 -13.1303 7.24525C-12.883 7.52289 -12.5349 7.58163 -12.2869 7.58163H-6.20788C-6.03227 7.58163 -5.91169 7.75415 -5.96858 7.91987C-6.10524 8.32118 -6.19984 8.73795 -6.24993 9.16523L-6.60548 12.184C-6.62341 12.3343 -6.75079 12.4481 -6.90229 12.4481H-12.2869C-14.0461 12.4481 -15.6377 11.7487 -16.7675 10.4786C-17.9034 9.20048 -18.4141 7.52536 -18.2058 5.75997L-17.3184 -1.77526C-17.1255 -3.41698 -16.3099 -4.95544 -15.0219 -6.10681C-13.732 -7.25941 -12.1138 -7.89446 -10.4646 -7.89446H-3.06666C-2.33267 -7.89446 -1.71432 -8.44418 -1.62899 -9.17321L-0.785561 -16.3337C-0.583361 -18.0459 0.26749 -19.6499 1.61055 -20.8502C2.95546 -22.0522 4.64233 -22.7139 6.36073 -22.7139H13.3759C15.2031 -22.7139 16.856 -21.9879 18.0296 -20.669C19.2088 -19.3426 19.74 -17.602 19.5254 -15.7667L18.9708 -11.0691C18.951 -10.9027 18.81 -10.7772 18.6424 -10.7772H14.4117C14.2138 -10.7772 14.0604 -10.9497 14.0833 -11.1464L14.6912 -16.3331C14.7276 -16.6417 14.7048 -17.0832 14.3919 -17.4362C14.0895 -17.7757 13.6721 -17.8474 13.3759 -17.8474H13.3765V-17.8481Z" fill="#522AF9"/>
<path d="M68.5335 -17.8481H61.5183C60.3979 -17.8481 59.3386 -16.8946 59.2051 -15.7655L58.1168 -6.52358C57.8824 -4.53125 56.1925 -3.02865 54.1859 -3.02865H44.693C43.7135 -3.02865 42.7891 -2.19512 42.6734 -1.20823L41.7855 6.32885C41.754 6.58918 41.7713 6.9571 42.0266 7.24525C42.274 7.52289 42.6221 7.58163 42.8701 7.58163H48.9491C49.1247 7.58163 49.2453 7.75415 49.1884 7.91987C49.0517 8.32118 48.9571 8.73795 48.907 9.16523L48.5515 12.184C48.5336 12.3343 48.4062 12.4481 48.2547 12.4481H42.8701C41.1109 12.4481 39.5192 11.7487 38.3895 10.4786C37.2536 9.20048 36.7428 7.52536 36.9512 5.75997L37.8386 -1.77526C38.0315 -3.41698 38.8471 -4.95544 40.1351 -6.10681C41.425 -7.25941 43.0432 -7.89446 44.6924 -7.89446H52.0903C52.8243 -7.89446 53.4426 -8.44418 53.528 -9.17321L54.3714 -16.3337C54.5736 -18.0459 55.4245 -19.6499 56.7675 -20.8502C58.1124 -22.0522 59.7993 -22.7139 61.5177 -22.7139H68.5329C70.3601 -22.7139 72.013 -21.9879 73.1866 -20.669C74.3658 -19.3426 74.897 -17.602 74.6824 -15.7667L74.1277 -11.0691C74.1079 -10.9027 73.967 -10.7772 73.7994 -10.7772H69.5686C69.3708 -10.7772 69.2174 -10.9497 69.2403 -11.1464L69.8481 -16.3331C69.8846 -16.6417 69.8617 -17.0832 69.5488 -17.4362C69.2465 -17.7757 68.8291 -17.8474 68.5329 -17.8474H68.5335V-17.8481Z" fill="#522AF9"/>
<path d="M123.69 -17.8481H116.675C115.555 -17.8481 114.495 -16.8946 114.362 -15.7655L113.274 -6.52358C113.039 -4.53125 111.349 -3.02865 109.343 -3.02865H99.8498C98.8704 -3.02865 97.9459 -2.19512 97.8303 -1.20823L96.9424 6.32885C96.9108 6.58918 96.9281 6.9571 97.1835 7.24525C97.4309 7.52289 97.779 7.58163 98.027 7.58163H104.106C104.282 7.58163 104.402 7.75415 104.345 7.91987C104.209 8.32118 104.114 8.73795 104.064 9.16523L103.708 12.184C103.69 12.3343 103.563 12.4481 103.412 12.4481H98.027C96.2677 12.4481 94.6761 11.7487 93.5464 10.4786C92.4105 9.20048 91.8997 7.52536 92.1081 5.75997L92.9954 -1.77526C93.1884 -3.41698 94.004 -4.95544 95.292 -6.10681C96.5819 -7.25941 98.2001 -7.89446 99.8492 -7.89446H107.247C107.981 -7.89446 108.6 -8.44418 108.685 -9.17321L109.528 -16.3337C109.73 -18.0459 110.581 -19.6499 111.924 -20.8502C113.269 -22.0522 114.956 -22.7139 116.675 -22.7139H123.69C125.517 -22.7139 127.17 -21.9879 128.343 -20.669C129.523 -19.3426 130.054 -17.602 129.839 -15.7667L129.285 -11.0691C129.265 -10.9027 129.124 -10.7772 128.956 -10.7772H124.725C124.528 -10.7772 124.374 -10.9497 124.397 -11.1464L125.005 -16.3331C125.041 -16.6417 125.019 -17.0832 124.706 -17.4362C124.403 -17.7757 123.986 -17.8474 123.69 -17.8474H123.69V-17.8481Z" fill="#522AF9"/>
<path d="M178.847 -17.8481H171.832C170.712 -17.8481 169.652 -16.8946 169.519 -15.7655L168.431 -6.52358C168.196 -4.53125 166.506 -3.02865 164.5 -3.02865H155.007C154.027 -3.02865 153.103 -2.19512 152.987 -1.20823L152.099 6.32885C152.068 6.58918 152.085 6.9571 152.34 7.24525C152.588 7.52289 152.936 7.58163 153.184 7.58163H159.263C159.438 7.58163 159.559 7.75415 159.502 7.91987C159.365 8.32118 159.271 8.73795 159.221 9.16523L158.865 12.184C158.847 12.3343 158.72 12.4481 158.568 12.4481H153.184C151.425 12.4481 149.833 11.7487 148.703 10.4786C147.567 9.20048 147.057 7.52536 147.265 5.75997L148.152 -1.77526C148.345 -3.41698 149.161 -4.95544 150.449 -6.10681C151.739 -7.25941 153.357 -7.89446 155.006 -7.89446H162.404C163.138 -7.89446 163.756 -8.44418 163.842 -9.17321L164.685 -16.3337C164.887 -18.0459 165.738 -19.6499 167.081 -20.8502C168.426 -22.0522 170.113 -22.7139 171.831 -22.7139H178.847C180.674 -22.7139 182.327 -21.9879 183.5 -20.669C184.68 -19.3426 185.211 -17.602 184.996 -15.7667L184.441 -11.0691C184.422 -10.9027 184.281 -10.7772 184.113 -10.7772H179.882C179.685 -10.7772 179.531 -10.9497 179.554 -11.1464L180.162 -16.3331C180.198 -16.6417 180.175 -17.0832 179.863 -17.4362C179.56 -17.7757 179.143 -17.8474 178.847 -17.8474H178.847V-17.8481Z" fill="#522AF9"/>
<path d="M234.004 -17.8481H226.989C225.869 -17.8481 224.809 -16.8946 224.676 -15.7655L223.587 -6.52358C223.353 -4.53125 221.663 -3.02865 219.657 -3.02865H210.164C209.184 -3.02865 208.26 -2.19512 208.144 -1.20823L207.256 6.32885C207.225 6.58918 207.242 6.9571 207.497 7.24525C207.745 7.52289 208.093 7.58163 208.341 7.58163H214.42C214.595 7.58163 214.716 7.75415 214.659 7.91987C214.522 8.32118 214.428 8.73795 214.378 9.16523L214.022 12.184C214.004 12.3343 213.877 12.4481 213.725 12.4481H208.341C206.582 12.4481 204.99 11.7487 203.86 10.4786C202.724 9.20048 202.214 7.52536 202.422 5.75997L203.309 -1.77526C203.502 -3.41698 204.318 -4.95544 205.606 -6.10681C206.896 -7.25941 208.514 -7.89446 210.163 -7.89446H217.561C218.295 -7.89446 218.913 -8.44418 218.999 -9.17321L219.842 -16.3337C220.044 -18.0459 220.895 -19.6499 222.238 -20.8502C223.583 -22.0522 225.27 -22.7139 226.988 -22.7139H234.004C235.831 -22.7139 237.484 -21.9879 238.657 -20.669C239.836 -19.3426 240.368 -17.602 240.153 -15.7667L239.598 -11.0691C239.579 -10.9027 239.438 -10.7772 239.27 -10.7772H235.039C234.841 -10.7772 234.688 -10.9497 234.711 -11.1464L235.319 -16.3331C235.355 -16.6417 235.332 -17.0832 235.02 -17.4362C234.717 -17.7757 234.3 -17.8474 234.004 -17.8474H234.004V-17.8481Z" fill="#522AF9"/>
</g>
<g opacity="0.1">
<path d="M277.41 101.52C276.39 100.37 274.922 99.7116 273.384 99.7116H263.138C261.096 99.7116 259.198 100.896 258.306 102.722C258.035 103.268 257.861 103.856 257.79 104.469L256.813 112.763C256.584 114.7 257.145 116.54 258.392 117.944C259.633 119.34 261.381 120.109 263.315 120.109H270.328C272.134 120.109 273.906 119.415 275.316 118.154C276.724 116.896 277.616 115.212 277.827 113.415L278.734 105.728C278.912 104.202 278.429 102.669 277.409 101.52H277.41V101.52ZM262.353 113.414L263.258 105.729C263.288 105.478 263.501 105.289 263.754 105.289H272.61C272.908 105.289 273.14 105.549 273.105 105.846L272.289 112.764C272.179 113.705 271.263 114.53 270.33 114.53H263.316C263.092 114.53 262.779 114.48 262.564 114.239C262.34 113.986 262.326 113.65 262.354 113.414H262.353ZM292.95 92.543L292.062 100.081C291.858 101.81 291.001 103.427 289.648 104.636C288.292 105.847 286.59 106.513 284.854 106.513H279.779C279.664 106.513 279.575 106.413 279.588 106.299L279.643 105.833C279.834 104.2 279.377 102.56 278.383 101.264C278.28 101.129 278.378 100.936 278.546 100.936H284.854C285.648 100.936 286.428 100.232 286.522 99.4284L287.41 91.8938C287.431 91.7064 287.423 91.4442 287.255 91.255C287.095 91.0757 286.852 91.038 286.676 91.038H279.719C278.914 91.038 278.238 91.6396 278.144 92.4385L277.281 99.7703C277.263 99.9243 277.088 100.002 276.961 99.9138C275.918 99.1946 274.673 98.7977 273.384 98.7977H271.995C271.88 98.7977 271.79 98.6975 271.804 98.5831L272.999 88.4421C273.198 86.7429 274.639 85.4604 276.351 85.4604H286.676C288.539 85.4604 290.225 86.2025 291.422 87.5492C292.626 88.901 293.168 90.675 292.95 92.5437H292.95V92.543Z" fill="#522AF9"/>
<path d="M332.567 101.52C331.547 100.37 330.079 99.7116 328.541 99.7116H318.295C316.253 99.7116 314.355 100.896 313.463 102.722C313.192 103.268 313.018 103.856 312.947 104.469L311.97 112.763C311.741 114.7 312.302 116.54 313.549 117.944C314.79 119.34 316.538 120.109 318.471 120.109H325.485C327.291 120.109 329.063 119.415 330.473 118.154C331.881 116.896 332.773 115.212 332.984 113.415L333.891 105.728C334.069 104.202 333.586 102.669 332.566 101.52H332.567V101.52ZM317.51 113.414L318.415 105.729C318.445 105.478 318.658 105.289 318.911 105.289H327.767C328.065 105.289 328.296 105.549 328.262 105.846L327.446 112.764C327.336 113.705 326.42 114.53 325.487 114.53H318.473C318.249 114.53 317.936 114.48 317.721 114.239C317.497 113.986 317.483 113.65 317.511 113.414H317.51ZM348.107 92.543L347.219 100.081C347.015 101.81 346.158 103.427 344.805 104.636C343.449 105.847 341.747 106.513 340.011 106.513H334.936C334.821 106.513 334.732 106.413 334.745 106.299L334.8 105.833C334.991 104.2 334.534 102.56 333.54 101.264C333.437 101.129 333.535 100.936 333.703 100.936H340.011C340.805 100.936 341.585 100.232 341.679 99.4284L342.567 91.8938C342.588 91.7064 342.58 91.4442 342.412 91.255C342.252 91.0757 342.009 91.038 341.833 91.038H334.876C334.071 91.038 333.395 91.6396 333.301 92.4385L332.438 99.7703C332.42 99.9243 332.245 100.002 332.118 99.9138C331.075 99.1946 329.83 98.7977 328.541 98.7977H327.152C327.037 98.7977 326.947 98.6975 326.961 98.5831L328.155 88.4421C328.355 86.7429 329.796 85.4604 331.508 85.4604H341.833C343.696 85.4604 345.382 86.2025 346.579 87.5492C347.783 88.901 348.325 90.675 348.107 92.5437H348.107V92.543Z" fill="#522AF9"/>
<path d="M387.724 101.52C386.703 100.37 385.236 99.7116 383.698 99.7116H373.452C371.41 99.7116 369.511 100.896 368.62 102.722C368.349 103.268 368.175 103.856 368.103 104.469L367.126 112.763C366.898 114.7 367.458 116.54 368.706 117.944C369.947 119.34 371.695 120.109 373.628 120.109H380.642C382.448 120.109 384.219 119.415 385.63 118.154C387.038 116.896 387.93 115.212 388.141 113.415L389.048 105.728C389.226 104.202 388.743 102.669 387.723 101.52H387.724V101.52ZM372.667 113.414L373.572 105.729C373.602 105.478 373.815 105.289 374.067 105.289H382.923C383.222 105.289 383.453 105.549 383.419 105.846L382.603 112.764C382.493 113.705 381.577 114.53 380.644 114.53H373.63C373.406 114.53 373.093 114.48 372.878 114.239C372.654 113.986 372.64 113.65 372.667 113.414H372.667ZM403.264 92.543L402.376 100.081C402.172 101.81 401.314 103.427 399.961 104.636C398.606 105.847 396.904 106.513 395.168 106.513H390.093C389.978 106.513 389.889 106.413 389.902 106.299L389.957 105.833C390.148 104.2 389.691 102.56 388.697 101.264C388.594 101.129 388.691 100.936 388.86 100.936H395.168C395.962 100.936 396.742 100.232 396.836 99.4284L397.724 91.8938C397.745 91.7064 397.737 91.4442 397.568 91.255C397.409 91.0757 397.166 91.038 396.99 91.038H390.033C389.228 91.038 388.552 91.6396 388.458 92.4385L387.595 99.7703C387.577 99.9243 387.402 100.002 387.275 99.9138C386.232 99.1946 384.987 98.7977 383.698 98.7977H382.309C382.194 98.7977 382.104 98.6975 382.118 98.5831L383.312 88.4421C383.511 86.7429 384.953 85.4604 386.665 85.4604H396.99C398.853 85.4604 400.538 86.2025 401.736 87.5492C402.939 88.901 403.482 90.675 403.263 92.5437H403.264V92.543Z" fill="#522AF9"/>
<path d="M276.709 77.3729H269.694C268.574 77.3729 267.514 78.3264 267.381 79.4555L266.292 88.6974C266.058 90.6897 264.368 92.1923 262.362 92.1923H252.869C251.889 92.1923 250.965 93.0258 250.849 94.0127L249.961 101.55C249.93 101.81 249.947 102.178 250.202 102.466C250.45 102.744 250.798 102.803 251.046 102.803H257.125C257.3 102.803 257.421 102.975 257.364 103.141C257.227 103.542 257.133 103.959 257.083 104.386L256.727 107.405C256.709 107.555 256.582 107.669 256.43 107.669H251.046C249.287 107.669 247.695 106.97 246.565 105.7C245.429 104.421 244.919 102.746 245.127 100.981L246.014 93.4457C246.207 91.804 247.023 90.2655 248.311 89.1141C249.601 87.9615 251.219 87.3265 252.868 87.3265H260.266C261 87.3265 261.618 86.7768 261.704 86.0477L262.547 78.8872C262.749 77.175 263.6 75.571 264.943 74.3708C266.288 73.1687 267.975 72.5071 269.693 72.5071H276.709C278.536 72.5071 280.189 73.233 281.362 74.552C282.542 75.8783 283.073 77.619 282.858 79.4543L282.303 84.1519C282.284 84.3182 282.143 84.4437 281.975 84.4437H277.744C277.546 84.4437 277.393 84.2712 277.416 84.0746L278.024 78.8878C278.06 78.5793 278.037 78.1378 277.725 77.7847C277.422 77.4452 277.005 77.3735 276.709 77.3735H276.709V77.3729Z" fill="#522AF9"/>
<path d="M331.866 77.3729H324.851C323.73 77.3729 322.671 78.3264 322.538 79.4555L321.449 88.6974C321.215 90.6897 319.525 92.1923 317.519 92.1923H308.026C307.046 92.1923 306.122 93.0258 306.006 94.0127L305.118 101.55C305.087 101.81 305.104 102.178 305.359 102.466C305.607 102.744 305.955 102.803 306.203 102.803H312.282C312.457 102.803 312.578 102.975 312.521 103.141C312.384 103.542 312.29 103.959 312.24 104.386L311.884 107.405C311.866 107.555 311.739 107.669 311.587 107.669H306.203C304.444 107.669 302.852 106.97 301.722 105.7C300.586 104.421 300.075 102.746 300.284 100.981L301.171 93.4457C301.364 91.804 302.18 90.2655 303.468 89.1141C304.758 87.9615 306.376 87.3265 308.025 87.3265H315.423C316.157 87.3265 316.775 86.7768 316.861 86.0477L317.704 78.8872C317.906 77.175 318.757 75.571 320.1 74.3708C321.445 73.1687 323.132 72.5071 324.85 72.5071H331.866C333.693 72.5071 335.346 73.233 336.519 74.552C337.698 75.8783 338.23 77.619 338.015 79.4543L337.46 84.1519C337.441 84.3182 337.3 84.4437 337.132 84.4437H332.901C332.703 84.4437 332.55 84.2712 332.573 84.0746L333.181 78.8878C333.217 78.5793 333.194 78.1378 332.881 77.7847C332.579 77.4452 332.162 77.3735 331.866 77.3735H331.866V77.3729Z" fill="#522AF9"/>
<path d="M387.023 77.3729H380.008C378.887 77.3729 377.828 78.3264 377.695 79.4555L376.606 88.6974C376.372 90.6897 374.682 92.1923 372.676 92.1923H363.183C362.203 92.1923 361.279 93.0258 361.163 94.0127L360.275 101.55C360.244 101.81 360.261 102.178 360.516 102.466C360.764 102.744 361.112 102.803 361.36 102.803H367.439C367.614 102.803 367.735 102.975 367.678 103.141C367.541 103.542 367.447 103.959 367.397 104.386L367.041 107.405C367.023 107.555 366.896 107.669 366.744 107.669H361.36C359.6 107.669 358.009 106.97 356.879 105.7C355.743 104.421 355.232 102.746 355.441 100.981L356.328 93.4457C356.521 91.804 357.337 90.2655 358.625 89.1141C359.915 87.9615 361.533 87.3265 363.182 87.3265H370.58C371.314 87.3265 371.932 86.7768 372.018 86.0477L372.861 78.8872C373.063 77.175 373.914 75.571 375.257 74.3708C376.602 73.1687 378.289 72.5071 380.007 72.5071H387.022C388.85 72.5071 390.503 73.233 391.676 74.552C392.855 75.8783 393.387 77.619 393.172 79.4543L392.617 84.1519C392.598 84.3182 392.457 84.4437 392.289 84.4437H388.058C387.86 84.4437 387.707 84.2712 387.73 84.0746L388.338 78.8878C388.374 78.5793 388.351 78.1378 388.038 77.7847C387.736 77.4452 387.319 77.3735 387.022 77.3735H387.023V77.3729Z" fill="#522AF9"/>
<path d="M255.673 53.9176C254.652 52.7681 253.184 52.1095 251.646 52.1095H241.4C239.359 52.1095 237.46 53.2943 236.568 55.1197C236.297 55.6657 236.123 56.2537 236.052 56.8671L235.075 65.1605C234.846 67.0978 235.407 68.938 236.655 70.3416C237.895 71.7379 239.643 72.5071 241.577 72.5071H248.59C250.396 72.5071 252.168 71.8127 253.578 70.5519C254.986 69.2935 255.878 67.6104 256.089 65.8128L256.996 58.1255C257.175 56.6 256.692 55.0665 255.671 53.9182H255.673V53.9176ZM240.615 65.8122L241.52 58.1273C241.55 57.8763 241.763 57.6871 242.016 57.6871H250.872C251.17 57.6871 251.402 57.9474 251.367 58.2442L250.551 65.1617C250.441 66.1028 249.526 66.9283 248.592 66.9283H241.578C241.354 66.9283 241.041 66.8776 240.827 66.6371C240.602 66.3836 240.588 66.0484 240.616 65.8122H240.615ZM271.212 44.941L270.324 52.4787C270.12 54.2076 269.263 55.8246 267.91 57.0335C266.554 58.2448 264.852 58.9114 263.116 58.9114H258.041C257.926 58.9114 257.837 58.8112 257.85 58.6968L257.905 58.2312C258.097 56.5982 257.639 54.9577 256.645 53.6616C256.543 53.5274 256.64 53.3339 256.808 53.3339H263.116C263.91 53.3339 264.69 52.6296 264.785 51.8263L265.672 44.2917C265.694 44.1044 265.685 43.8422 265.517 43.653C265.357 43.4736 265.114 43.4359 264.939 43.4359H257.981C257.176 43.4359 256.5 44.0376 256.406 44.8365L255.543 52.1683C255.525 52.3223 255.35 52.3995 255.223 52.3117C254.18 51.5926 252.935 51.1956 251.646 51.1956H250.257C250.142 51.1956 250.052 51.0954 250.066 50.9811L251.261 40.8401C251.46 39.1409 252.901 37.8584 254.613 37.8584H264.939C266.801 37.8584 268.487 38.6004 269.684 39.9472C270.888 41.2989 271.43 43.073 271.212 44.9416H271.212V44.941Z" fill="#522AF9"/>
<path d="M310.83 53.9176C309.809 52.7681 308.341 52.1095 306.803 52.1095H296.557C294.516 52.1095 292.617 53.2943 291.725 55.1197C291.454 55.6657 291.28 56.2537 291.209 56.8671L290.232 65.1605C290.003 67.0978 290.564 68.938 291.812 70.3416C293.052 71.7379 294.8 72.5071 296.734 72.5071H303.747C305.553 72.5071 307.325 71.8127 308.735 70.5519C310.143 69.2935 311.035 67.6104 311.246 65.8128L312.153 58.1255C312.332 56.6 311.849 55.0665 310.828 53.9182H310.83V53.9176ZM295.772 65.8122L296.677 58.1273C296.707 57.8763 296.92 57.6871 297.173 57.6871H306.029C306.327 57.6871 306.559 57.9474 306.524 58.2442L305.708 65.1617C305.598 66.1028 304.683 66.9283 303.749 66.9283H296.735C296.511 66.9283 296.198 66.8776 295.984 66.6371C295.759 66.3836 295.745 66.0484 295.773 65.8122H295.772ZM326.369 44.941L325.481 52.4787C325.277 54.2076 324.42 55.8246 323.067 57.0335C321.711 58.2448 320.009 58.9114 318.273 58.9114H313.198C313.083 58.9114 312.994 58.8112 313.007 58.6968L313.062 58.2312C313.253 56.5982 312.796 54.9577 311.802 53.6616C311.7 53.5274 311.797 53.3339 311.965 53.3339H318.273C319.067 53.3339 319.847 52.6296 319.942 51.8263L320.829 44.2917C320.851 44.1044 320.842 43.8422 320.674 43.653C320.514 43.4736 320.271 43.4359 320.096 43.4359H313.138C312.333 43.4359 311.657 44.0376 311.563 44.8365L310.7 52.1683C310.682 52.3223 310.507 52.3995 310.38 52.3117C309.337 51.5926 308.092 51.1956 306.803 51.1956H305.414C305.299 51.1956 305.209 51.0954 305.223 50.9811L306.418 40.8401C306.617 39.1409 308.058 37.8584 309.77 37.8584H320.096C321.958 37.8584 323.644 38.6004 324.841 39.9472C326.045 41.2989 326.587 43.073 326.369 44.9416H326.369V44.941Z" fill="#522AF9"/>
<path d="M365.986 53.9176C364.966 52.7681 363.498 52.1095 361.96 52.1095H351.714C349.672 52.1095 347.774 53.2943 346.882 55.1197C346.611 55.6657 346.437 56.2537 346.366 56.8671L345.389 65.1605C345.16 67.0978 345.721 68.938 346.968 70.3416C348.209 71.7379 349.957 72.5071 351.891 72.5071H358.904C360.71 72.5071 362.482 71.8127 363.892 70.5519C365.3 69.2935 366.192 67.6104 366.403 65.8128L367.31 58.1255C367.488 56.6 367.005 55.0665 365.985 53.9182H365.986V53.9176ZM350.929 65.8122L351.834 58.1273C351.864 57.8763 352.077 57.6871 352.33 57.6871H361.186C361.484 57.6871 361.715 57.9474 361.681 58.2442L360.865 65.1617C360.755 66.1028 359.839 66.9283 358.906 66.9283H351.892C351.668 66.9283 351.355 66.8776 351.14 66.6371C350.916 66.3836 350.902 66.0484 350.93 65.8122H350.929ZM381.526 44.941L380.638 52.4787C380.434 54.2076 379.577 55.8246 378.224 57.0335C376.868 58.2448 375.166 58.9114 373.43 58.9114H368.355C368.24 58.9114 368.151 58.8112 368.164 58.6968L368.219 58.2312C368.41 56.5982 367.953 54.9577 366.959 53.6616C366.856 53.5274 366.954 53.3339 367.122 53.3339H373.43C374.224 53.3339 375.004 52.6296 375.098 51.8263L375.986 44.2917C376.007 44.1044 375.999 43.8422 375.831 43.653C375.671 43.4736 375.428 43.4359 375.252 43.4359H368.295C367.49 43.4359 366.814 44.0376 366.72 44.8365L365.857 52.1683C365.839 52.3223 365.664 52.3995 365.537 52.3117C364.494 51.5926 363.249 51.1956 361.96 51.1956H360.571C360.456 51.1956 360.366 51.0954 360.38 50.9811L361.575 40.8401C361.774 39.1409 363.215 37.8584 364.927 37.8584H375.252C377.115 37.8584 378.801 38.6004 379.998 39.9472C381.202 41.2989 381.744 43.073 381.526 44.9416H381.526V44.941Z" fill="#522AF9"/>
<path d="M421.143 53.9176C420.122 52.7681 418.655 52.1095 417.117 52.1095H406.871C404.829 52.1095 402.93 53.2943 402.039 55.1197C401.768 55.6657 401.594 56.2537 401.522 56.8671L400.545 65.1605C400.317 67.0978 400.878 68.938 402.125 70.3416C403.366 71.7379 405.114 72.5071 407.047 72.5071H414.061C415.867 72.5071 417.639 71.8127 419.049 70.5519C420.457 69.2935 421.349 67.6104 421.56 65.8128L422.467 58.1255C422.645 56.6 422.162 55.0665 421.142 53.9182H421.143V53.9176ZM406.086 65.8122L406.991 58.1273C407.021 57.8763 407.234 57.6871 407.486 57.6871H416.342C416.641 57.6871 416.872 57.9474 416.838 58.2442L416.022 65.1617C415.912 66.1028 414.996 66.9283 414.063 66.9283H407.049C406.825 66.9283 406.512 66.8776 406.297 66.6371C406.073 66.3836 406.059 66.0484 406.087 65.8122H406.086ZM436.683 44.941L435.795 52.4787C435.591 54.2076 434.733 55.8246 433.381 57.0335C432.025 58.2448 430.323 58.9114 428.587 58.9114H423.512C423.397 58.9114 423.308 58.8112 423.321 58.6968L423.376 58.2312C423.567 56.5982 423.11 54.9577 422.116 53.6616C422.013 53.5274 422.11 53.3339 422.279 53.3339H428.587C429.381 53.3339 430.161 52.6296 430.255 51.8263L431.143 44.2917C431.164 44.1044 431.156 43.8422 430.988 43.653C430.828 43.4736 430.585 43.4359 430.409 43.4359H423.452C422.647 43.4359 421.971 44.0376 421.877 44.8365L421.014 52.1683C420.996 52.3223 420.821 52.3995 420.694 52.3117C419.651 51.5926 418.406 51.1956 417.117 51.1956H415.728C415.613 51.1956 415.523 51.0954 415.537 50.9811L416.731 40.8401C416.931 39.1409 418.372 37.8584 420.084 37.8584H430.409C432.272 37.8584 433.957 38.6004 435.155 39.9472C436.359 41.2989 436.901 43.073 436.683 44.9416H436.683V44.941Z" fill="#522AF9"/>
<path d="M254.971 29.7708H247.956C246.836 29.7708 245.777 30.7243 245.643 31.8534L244.555 41.0953C244.32 43.0876 242.63 44.5902 240.624 44.5902H231.131C230.151 44.5902 229.227 45.4238 229.111 46.4107L228.223 53.9478C228.192 54.2081 228.209 54.576 228.465 54.8641C228.712 55.1418 229.06 55.2005 229.308 55.2005H235.387C235.563 55.2005 235.683 55.3731 235.626 55.5388C235.49 55.9401 235.395 56.3568 235.345 56.7841L234.989 59.8029C234.971 59.9532 234.844 60.067 234.693 60.067H229.308C227.549 60.067 225.957 59.3676 224.827 58.0975C223.691 56.8194 223.181 55.1443 223.389 53.3789L224.276 45.8436C224.469 44.2019 225.285 42.6635 226.573 41.5121C227.863 40.3595 229.481 39.7244 231.13 39.7244H238.528C239.262 39.7244 239.881 39.1747 239.966 38.4457L240.809 31.2852C241.011 29.573 241.862 27.969 243.205 26.7687C244.55 25.5667 246.237 24.905 247.956 24.905H254.971C256.798 24.905 258.451 25.631 259.624 26.9499C260.804 28.2763 261.335 30.0169 261.12 31.8522L260.566 36.5498C260.546 36.7162 260.405 36.8417 260.237 36.8417H256.007C255.809 36.8417 255.655 36.6692 255.678 36.4725L256.286 31.2858C256.322 30.9772 256.3 30.5357 255.987 30.1827C255.684 29.8432 255.267 29.7715 254.971 29.7715H254.971V29.7708Z" fill="#522AF9"/>
<path d="M310.128 29.7708H303.113C301.993 29.7708 300.933 30.7243 300.8 31.8534L299.712 41.0953C299.477 43.0876 297.787 44.5902 295.781 44.5902H286.288C285.308 44.5902 284.384 45.4238 284.268 46.4107L283.38 53.9478C283.349 54.2081 283.366 54.576 283.621 54.8641C283.869 55.1418 284.217 55.2005 284.465 55.2005H290.544C290.719 55.2005 290.84 55.3731 290.783 55.5388C290.646 55.9401 290.552 56.3568 290.502 56.7841L290.146 59.8029C290.128 59.9532 290.001 60.067 289.849 60.067H284.465C282.706 60.067 281.114 59.3676 279.984 58.0975C278.848 56.8194 278.338 55.1443 278.546 53.3789L279.433 45.8436C279.626 44.2019 280.442 42.6635 281.73 41.5121C283.02 40.3595 284.638 39.7244 286.287 39.7244H293.685C294.419 39.7244 295.037 39.1747 295.123 38.4457L295.966 31.2852C296.168 29.573 297.019 27.969 298.362 26.7687C299.707 25.5667 301.394 24.905 303.112 24.905H310.128C311.955 24.905 313.608 25.631 314.781 26.9499C315.961 28.2763 316.492 30.0169 316.277 31.8522L315.722 36.5498C315.703 36.7162 315.562 36.8417 315.394 36.8417H311.163C310.966 36.8417 310.812 36.6692 310.835 36.4725L311.443 31.2858C311.479 30.9772 311.456 30.5357 311.144 30.1827C310.841 29.8432 310.424 29.7715 310.128 29.7715H310.128V29.7708Z" fill="#522AF9"/>
<path d="M365.285 29.7708H358.27C357.15 29.7708 356.09 30.7243 355.957 31.8534L354.868 41.0953C354.634 43.0876 352.944 44.5902 350.938 44.5902H341.445C340.465 44.5902 339.541 45.4238 339.425 46.4107L338.537 53.9478C338.506 54.2081 338.523 54.576 338.778 54.8641C339.026 55.1418 339.374 55.2005 339.622 55.2005H345.701C345.876 55.2005 345.997 55.3731 345.94 55.5388C345.803 55.9401 345.709 56.3568 345.659 56.7841L345.303 59.8029C345.285 59.9532 345.158 60.067 345.006 60.067H339.622C337.863 60.067 336.271 59.3676 335.141 58.0975C334.005 56.8194 333.495 55.1443 333.703 53.3789L334.59 45.8436C334.783 44.2019 335.599 42.6635 336.887 41.5121C338.177 40.3595 339.795 39.7244 341.444 39.7244H348.842C349.576 39.7244 350.194 39.1747 350.28 38.4457L351.123 31.2852C351.325 29.573 352.176 27.969 353.519 26.7687C354.864 25.5667 356.551 24.905 358.269 24.905H365.285C367.112 24.905 368.765 25.631 369.938 26.9499C371.118 28.2763 371.649 30.0169 371.434 31.8522L370.879 36.5498C370.86 36.7162 370.719 36.8417 370.551 36.8417H366.32C366.122 36.8417 365.969 36.6692 365.992 36.4725L366.6 31.2858C366.636 30.9772 366.613 30.5357 366.301 30.1827C365.998 29.8432 365.581 29.7715 365.285 29.7715H365.285V29.7708Z" fill="#522AF9"/>
<path d="M420.442 29.7708H413.427C412.306 29.7708 411.247 30.7243 411.114 31.8534L410.025 41.0953C409.791 43.0876 408.101 44.5902 406.095 44.5902H396.602C395.622 44.5902 394.698 45.4238 394.582 46.4107L393.694 53.9478C393.663 54.2081 393.68 54.576 393.935 54.8641C394.183 55.1418 394.531 55.2005 394.779 55.2005H400.858C401.033 55.2005 401.154 55.3731 401.097 55.5388C400.96 55.9401 400.866 56.3568 400.816 56.7841L400.46 59.8029C400.442 59.9532 400.315 60.067 400.163 60.067H394.779C393.019 60.067 391.428 59.3676 390.298 58.0975C389.162 56.8194 388.651 55.1443 388.86 53.3789L389.747 45.8436C389.94 44.2019 390.756 42.6635 392.044 41.5121C393.334 40.3595 394.952 39.7244 396.601 39.7244H403.999C404.733 39.7244 405.351 39.1747 405.437 38.4457L406.28 31.2852C406.482 29.573 407.333 27.969 408.676 26.7687C410.021 25.5667 411.708 24.905 413.426 24.905H420.442C422.269 24.905 423.922 25.631 425.095 26.9499C426.274 28.2763 426.806 30.0169 426.591 31.8522L426.036 36.5498C426.017 36.7162 425.876 36.8417 425.708 36.8417H421.477C421.279 36.8417 421.126 36.6692 421.149 36.4725L421.757 31.2858C421.793 30.9772 421.77 30.5357 421.457 30.1827C421.155 29.8432 420.738 29.7715 420.442 29.7715H420.442V29.7708Z" fill="#522AF9"/>
<path d="M289.092 6.29822C288.071 5.1487 286.603 4.49016 285.065 4.49016H274.819C272.778 4.49016 270.879 5.67492 269.987 7.50029C269.716 8.0463 269.542 8.63435 269.471 9.24775L268.494 17.5411C268.265 19.4784 268.826 21.3186 270.074 22.7222C271.314 24.1185 273.062 24.8877 274.996 24.8877H282.009C283.815 24.8877 285.587 24.1933 286.997 22.9325C288.405 21.6741 289.297 19.991 289.508 18.1934L290.415 10.5061C290.593 8.98062 290.111 7.44711 289.09 6.29884H289.092V6.29822ZM274.034 18.1928L274.939 10.508C274.969 10.2569 275.182 10.0677 275.435 10.0677H284.291C284.589 10.0677 284.821 10.328 284.786 10.6248L283.97 17.5423C283.86 18.4834 282.944 19.3089 282.011 19.3089H274.997C274.773 19.3089 274.46 19.2582 274.246 19.0177C274.021 18.7642 274.007 18.429 274.035 18.1928H274.034ZM304.631 -2.67839L303.743 4.85931C303.539 6.58822 302.682 8.20521 301.329 9.41409C299.973 10.6254 298.271 11.292 296.535 11.292H291.46C291.345 11.292 291.256 11.1918 291.269 11.0775L291.324 10.6118C291.515 8.97877 291.058 7.33828 290.064 6.04222C289.962 5.90804 290.059 5.71449 290.227 5.71449H296.535C297.329 5.71449 298.109 5.01019 298.204 4.20695L299.091 -3.32766C299.113 -3.51502 299.104 -3.7772 298.936 -3.96642C298.776 -4.14574 298.533 -4.18346 298.358 -4.18346H291.4C290.595 -4.18346 289.919 -3.5818 289.825 -2.78289L288.962 4.5489C288.944 4.70287 288.769 4.78016 288.642 4.69236C287.599 3.97321 286.354 3.57623 285.065 3.57623H283.676C283.561 3.57623 283.471 3.47606 283.485 3.36167L284.68 -6.7793C284.879 -8.47852 286.32 -9.76099 288.032 -9.76099H298.358C300.22 -9.76099 301.906 -9.01896 303.103 -7.6722C304.307 -6.32048 304.849 -4.54643 304.631 -2.67777H304.631V-2.67839Z" fill="#522AF9"/>
<path d="M344.248 6.29822C343.228 5.1487 341.76 4.49016 340.222 4.49016H329.976C327.935 4.49016 326.036 5.67492 325.144 7.50029C324.873 8.0463 324.699 8.63435 324.628 9.24775L323.651 17.5411C323.422 19.4784 323.983 21.3186 325.23 22.7222C326.471 24.1185 328.219 24.8877 330.153 24.8877H337.166C338.972 24.8877 340.744 24.1933 342.154 22.9325C343.562 21.6741 344.454 19.991 344.665 18.1934L345.572 10.5061C345.75 8.98062 345.268 7.44711 344.247 6.29884H344.248V6.29822ZM329.191 18.1928L330.096 10.508C330.126 10.2569 330.339 10.0677 330.592 10.0677H339.448C339.746 10.0677 339.978 10.328 339.943 10.6248L339.127 17.5423C339.017 18.4834 338.101 19.3089 337.168 19.3089H330.154C329.93 19.3089 329.617 19.2582 329.402 19.0177C329.178 18.7642 329.164 18.429 329.192 18.1928H329.191ZM359.788 -2.67839L358.9 4.85931C358.696 6.58822 357.839 8.20521 356.486 9.41409C355.13 10.6254 353.428 11.292 351.692 11.292H346.617C346.502 11.292 346.413 11.1918 346.426 11.0775L346.481 10.6118C346.672 8.97877 346.215 7.33828 345.221 6.04222C345.119 5.90804 345.216 5.71449 345.384 5.71449H351.692C352.486 5.71449 353.266 5.01019 353.361 4.20695L354.248 -3.32766C354.269 -3.51502 354.261 -3.7772 354.093 -3.96642C353.933 -4.14574 353.69 -4.18346 353.514 -4.18346H346.557C345.752 -4.18346 345.076 -3.5818 344.982 -2.78289L344.119 4.5489C344.101 4.70287 343.926 4.78016 343.799 4.69236C342.756 3.97321 341.511 3.57623 340.222 3.57623H338.833C338.718 3.57623 338.628 3.47606 338.642 3.36167L339.837 -6.7793C340.036 -8.47852 341.477 -9.76099 343.189 -9.76099H353.514C355.377 -9.76099 357.063 -9.01896 358.26 -7.6722C359.464 -6.32048 360.006 -4.54643 359.788 -2.67777H359.788V-2.67839Z" fill="#522AF9"/>
<path d="M399.405 6.29822C398.385 5.1487 396.917 4.49016 395.379 4.49016H385.133C383.091 4.49016 381.193 5.67492 380.301 7.50029C380.03 8.0463 379.856 8.63435 379.785 9.24775L378.808 17.5411C378.579 19.4784 379.14 21.3186 380.387 22.7222C381.628 24.1185 383.376 24.8877 385.31 24.8877H392.323C394.129 24.8877 395.901 24.1933 397.311 22.9325C398.719 21.6741 399.611 19.991 399.822 18.1934L400.729 10.5061C400.907 8.98062 400.424 7.44711 399.404 6.29884H399.405V6.29822ZM384.348 18.1928L385.253 10.508C385.283 10.2569 385.496 10.0677 385.749 10.0677H394.605C394.903 10.0677 395.134 10.328 395.1 10.6248L394.284 17.5423C394.174 18.4834 393.258 19.3089 392.325 19.3089H385.311C385.087 19.3089 384.774 19.2582 384.559 19.0177C384.335 18.7642 384.321 18.429 384.349 18.1928H384.348ZM414.945 -2.67839L414.057 4.85931C413.853 6.58822 412.996 8.20521 411.643 9.41409C410.287 10.6254 408.585 11.292 406.849 11.292H401.774C401.659 11.292 401.57 11.1918 401.583 11.0775L401.638 10.6118C401.829 8.97877 401.372 7.33828 400.378 6.04222C400.275 5.90804 400.373 5.71449 400.541 5.71449H406.849C407.643 5.71449 408.423 5.01019 408.517 4.20695L409.405 -3.32766C409.426 -3.51502 409.418 -3.7772 409.25 -3.96642C409.09 -4.14574 408.847 -4.18346 408.671 -4.18346H401.714C400.909 -4.18346 400.233 -3.5818 400.139 -2.78289L399.276 4.5489C399.258 4.70287 399.083 4.78016 398.956 4.69236C397.913 3.97321 396.668 3.57623 395.379 3.57623H393.99C393.875 3.57623 393.785 3.47606 393.799 3.36167L394.994 -6.7793C395.193 -8.47852 396.634 -9.76099 398.346 -9.76099H408.671C410.534 -9.76099 412.22 -9.01896 413.417 -7.6722C414.621 -6.32048 415.163 -4.54643 414.945 -2.67777H414.945V-2.67839Z" fill="#522AF9"/>
<path d="M288.39 -17.8481H281.375C280.255 -17.8481 279.196 -16.8946 279.062 -15.7655L277.974 -6.52358C277.739 -4.53125 276.049 -3.02865 274.043 -3.02865H264.55C263.57 -3.02865 262.646 -2.19512 262.53 -1.20823L261.642 6.32885C261.611 6.58918 261.628 6.9571 261.884 7.24525C262.131 7.52289 262.479 7.58163 262.727 7.58163H268.806C268.982 7.58163 269.102 7.75415 269.045 7.91987C268.909 8.32118 268.814 8.73795 268.764 9.16523L268.408 12.184C268.39 12.3343 268.263 12.4481 268.112 12.4481H262.727C260.968 12.4481 259.376 11.7487 258.246 10.4786C257.11 9.20048 256.6 7.52536 256.808 5.75997L257.695 -1.77526C257.888 -3.41698 258.704 -4.95544 259.992 -6.10681C261.282 -7.25941 262.9 -7.89446 264.549 -7.89446H271.947C272.681 -7.89446 273.3 -8.44418 273.385 -9.17321L274.228 -16.3337C274.43 -18.0459 275.281 -19.6499 276.624 -20.8502C277.969 -22.0522 279.656 -22.7139 281.375 -22.7139H288.39C290.217 -22.7139 291.87 -21.9879 293.043 -20.669C294.223 -19.3426 294.754 -17.602 294.539 -15.7667L293.985 -11.0691C293.965 -10.9027 293.824 -10.7772 293.656 -10.7772H289.426C289.228 -10.7772 289.074 -10.9497 289.097 -11.1464L289.705 -16.3331C289.741 -16.6417 289.719 -17.0832 289.406 -17.4362C289.103 -17.7757 288.686 -17.8474 288.39 -17.8474H288.39V-17.8481Z" fill="#522AF9"/>
<path d="M343.547 -17.8481H336.532C335.412 -17.8481 334.352 -16.8946 334.219 -15.7655L333.131 -6.52358C332.896 -4.53125 331.206 -3.02865 329.2 -3.02865H319.707C318.727 -3.02865 317.803 -2.19512 317.687 -1.20823L316.799 6.32885C316.768 6.58918 316.785 6.9571 317.04 7.24525C317.288 7.52289 317.636 7.58163 317.884 7.58163H323.963C324.138 7.58163 324.259 7.75415 324.202 7.91987C324.065 8.32118 323.971 8.73795 323.921 9.16523L323.565 12.184C323.547 12.3343 323.42 12.4481 323.268 12.4481H317.884C316.125 12.4481 314.533 11.7487 313.403 10.4786C312.267 9.20048 311.757 7.52536 311.965 5.75997L312.852 -1.77526C313.045 -3.41698 313.861 -4.95544 315.149 -6.10681C316.439 -7.25941 318.057 -7.89446 319.706 -7.89446H327.104C327.838 -7.89446 328.456 -8.44418 328.542 -9.17321L329.385 -16.3337C329.587 -18.0459 330.438 -19.6499 331.781 -20.8502C333.126 -22.0522 334.813 -22.7139 336.531 -22.7139H343.547C345.374 -22.7139 347.027 -21.9879 348.2 -20.669C349.38 -19.3426 349.911 -17.602 349.696 -15.7667L349.141 -11.0691C349.122 -10.9027 348.981 -10.7772 348.813 -10.7772H344.582C344.385 -10.7772 344.231 -10.9497 344.254 -11.1464L344.862 -16.3331C344.898 -16.6417 344.875 -17.0832 344.563 -17.4362C344.26 -17.7757 343.843 -17.8474 343.547 -17.8474H343.547V-17.8481Z" fill="#522AF9"/>
<path d="M398.704 -17.8481H391.689C390.569 -17.8481 389.509 -16.8946 389.376 -15.7655L388.287 -6.52358C388.053 -4.53125 386.363 -3.02865 384.357 -3.02865H374.864C373.884 -3.02865 372.96 -2.19512 372.844 -1.20823L371.956 6.32885C371.925 6.58918 371.942 6.9571 372.197 7.24525C372.445 7.52289 372.793 7.58163 373.041 7.58163H379.12C379.295 7.58163 379.416 7.75415 379.359 7.91987C379.222 8.32118 379.128 8.73795 379.078 9.16523L378.722 12.184C378.704 12.3343 378.577 12.4481 378.425 12.4481H373.041C371.282 12.4481 369.69 11.7487 368.56 10.4786C367.424 9.20048 366.913 7.52536 367.122 5.75997L368.009 -1.77526C368.202 -3.41698 369.018 -4.95544 370.306 -6.10681C371.596 -7.25941 373.214 -7.89446 374.863 -7.89446H382.261C382.995 -7.89446 383.613 -8.44418 383.699 -9.17321L384.542 -16.3337C384.744 -18.0459 385.595 -19.6499 386.938 -20.8502C388.283 -22.0522 389.97 -22.7139 391.688 -22.7139H398.704C400.531 -22.7139 402.184 -21.9879 403.357 -20.669C404.536 -19.3426 405.068 -17.602 404.853 -15.7667L404.298 -11.0691C404.279 -10.9027 404.138 -10.7772 403.97 -10.7772H399.739C399.541 -10.7772 399.388 -10.9497 399.411 -11.1464L400.019 -16.3331C400.055 -16.6417 400.032 -17.0832 399.719 -17.4362C399.417 -17.7757 399 -17.8474 398.704 -17.8474H398.704V-17.8481Z" fill="#522AF9"/>
</g>
</g>
</svg>
