<svg width="371" height="158" viewBox="0 0 371 158" fill="none" xmlns="http://www.w3.org/2000/svg">
<rect opacity="0.1" width="371" height="158" rx="20" fill="url(#paint0_linear_6229_246)"/>
<g clip-path="url(#clip0_6229_246)">
<path d="M74.5143 57.0545C76.9487 57.0545 79.0704 56.9797 81.1784 57.1089C81.7088 57.1429 82.382 57.7345 82.6812 58.2445C85.306 62.6646 87.8697 67.1254 90.4469 71.5727C90.7937 72.1711 91.1541 72.7627 91.5757 73.4699C92.8473 72.2527 94.0034 71.1443 95.2478 69.9543C92.7793 65.677 90.3857 61.5222 87.8833 57.1905H107.25C106.754 59.3393 106.284 61.4678 105.761 63.5826C103.768 71.7155 101.742 79.8484 99.7562 87.9813C98.1718 94.4754 101.857 98.2358 108.494 96.9098C112.989 96.0122 115.872 93.265 116.988 88.9129C119.558 78.8624 121.979 68.771 124.461 58.7001C124.59 58.1833 124.747 57.6733 124.896 57.1293H140.604C139.877 60.1145 139.176 62.9842 138.476 65.8538C136.722 73.0483 135.001 80.2496 133.199 87.4305C131.057 95.9782 126.263 102.54 118.205 106.396C112.772 109 106.896 109.279 100.994 108.83C98.301 108.626 95.5674 108.327 92.9629 107.668C87.3053 106.233 83.5856 101.037 83.3816 95.203C83.1912 89.7901 84.8164 84.7377 86.0609 79.6036C86.3873 78.2708 86.1901 77.2576 85.5101 76.1083C82.0896 70.3351 78.7508 64.5142 75.3847 58.7069C75.1195 58.2513 74.8883 57.7821 74.5075 57.0613L74.5143 57.0545Z" fill="white"/>
<path d="M297.659 69.1246C295.884 71.3618 294.116 73.6058 292.342 75.8431C291.376 77.0671 289.513 77.6927 288.166 77.0875C287.724 76.8903 287.357 76.2511 287.194 75.7411C286.48 73.5378 285.854 71.3074 285.059 68.6214C284.705 69.8046 284.453 70.573 284.256 71.3482C283.365 74.8571 282.461 78.3591 281.631 81.8815C281.346 83.0988 280.679 83.6224 279.462 83.5816C278.646 83.5544 277.83 83.5816 277.021 83.5816C275.029 83.568 274.791 83.296 275.26 81.4327C277.143 73.9458 279.068 66.4657 280.897 58.9653C281.244 57.544 281.91 56.9932 283.365 57.0408C288.125 57.1972 287.003 56.286 288.459 60.8081C289.384 63.6709 290.261 66.5474 291.22 69.6006C291.628 69.2266 291.92 69.009 292.144 68.737C294.783 65.5069 297.476 62.3177 299.998 59.0061C301.093 57.5644 302.263 56.9388 304.099 57.0272C307.581 57.1904 307.689 56.626 306.744 60.3321C304.935 67.3974 303.167 74.4695 301.454 81.5551C301.08 83.1192 300.27 83.636 298.713 83.6156C293.606 83.5612 294.429 83.8332 295.436 79.5083C296.231 76.1015 297.136 72.715 297.992 69.3218C297.877 69.2606 297.768 69.1994 297.652 69.1382L297.659 69.1246Z" fill="white"/>
<path d="M235.268 74.3197C232.698 74.1248 231.123 75.1561 230.542 77.4138C230.155 78.9302 229.822 80.467 229.393 81.9698C229.25 82.4526 228.897 83.2278 228.584 83.255C226.714 83.4182 224.83 83.4386 222.96 83.3706C222.838 83.3706 222.552 82.1466 222.688 81.5822C223.994 76.1761 225.381 70.7837 226.741 65.3912C227.326 63.086 227.85 60.7671 228.53 58.4891C228.693 57.9383 229.386 57.1359 229.835 57.1359C234.337 57.1291 238.866 56.9455 243.32 57.4419C247.774 57.9383 249.576 61.0459 248.59 65.4116C247.896 68.4784 246.189 70.8653 243.367 72.2933C242.17 72.8985 242.028 73.5173 242.442 74.6869C243.211 76.8765 243.837 79.1206 244.51 81.3442C245.04 83.0918 244.734 83.5134 242.966 83.5746C239.557 83.688 237.399 82.1194 236.492 78.869C236.078 77.3662 235.676 75.8565 235.262 74.3129L235.268 74.3197ZM232.732 68.7776C234.575 68.7776 236.146 68.832 237.71 68.764C239.484 68.6892 240.872 67.54 241.409 65.8536C242.062 63.7864 241.191 62.4128 239.015 62.2768C237.512 62.1816 235.996 62.2564 234.378 62.2564C233.834 64.412 233.31 66.486 232.732 68.7776Z" fill="white"/>
<path d="M336.447 83.5747C334.76 83.5747 333.081 83.5339 331.394 83.5883C330.157 83.6223 329.681 83.1531 329.987 81.9291C331.952 74.1226 333.883 66.3093 335.91 58.5232C336.059 57.9452 336.862 57.136 337.379 57.1292C341.499 57.0612 345.661 56.8368 349.741 57.2788C355.242 57.8772 357.486 61.1412 356.528 66.5813C356.052 69.2809 355.351 71.9738 354.454 74.5714C352.407 80.4875 347.844 83.4523 341.003 83.5747C339.48 83.6019 337.963 83.5747 336.44 83.5747H336.447ZM337.868 78.0054C339.786 78.0054 341.513 78.1278 343.213 77.9714C345.212 77.7878 346.749 76.6318 347.354 74.7482C348.259 71.9262 349.013 69.0429 349.571 66.1393C349.952 64.1537 348.728 62.8004 346.715 62.5692C345.586 62.44 344.43 62.5556 343.301 62.44C342.098 62.3176 341.588 62.7732 341.323 63.9429C340.479 67.6285 339.527 71.2937 338.616 74.9658C338.371 75.9518 338.133 76.931 337.875 77.9986L337.868 78.0054Z" fill="white"/>
<path d="M313.748 78.1687C317.543 78.1687 321.113 78.1687 324.683 78.1687C327.049 78.1687 327.09 78.2231 326.498 80.5487C325.986 82.5706 324.692 83.5815 322.616 83.5815C317.733 83.5815 312.844 83.5815 307.961 83.5815C306.03 83.5815 305.813 83.3163 306.261 81.5279C308.165 73.9322 310.097 66.3501 311.98 58.7476C312.273 57.5644 312.844 57.0272 314.115 57.0408C319.487 57.0884 324.866 57.0884 330.238 57.0408C331.721 57.0272 331.979 57.5372 331.626 58.904C330.612 62.8277 331.014 62.4605 327.036 62.4673C324.322 62.4673 321.609 62.4945 318.896 62.4537C317.998 62.4401 317.502 62.6645 317.339 63.6301C317.128 64.8473 316.761 66.0305 316.407 67.4517C317.101 67.4925 317.665 67.5537 318.223 67.5537C321.045 67.5673 323.867 67.5945 326.689 67.5469C328.151 67.5197 328.518 68.1793 328.151 69.4646C328.049 69.825 327.96 70.199 327.872 70.5662C327.328 72.7354 327.165 72.8646 324.88 72.8646C322.058 72.8646 319.236 72.919 316.414 72.8374C315.326 72.8102 314.857 73.1774 314.673 74.211C314.449 75.469 314.102 76.7066 313.755 78.1687H313.748Z" fill="white"/>
<path d="M163.228 57.0546C166.771 57.0546 166.778 56.6942 165.846 60.3594C164.745 64.7047 163.677 69.0567 162.569 73.402C162.195 74.8708 161.936 76.3804 163.208 77.4888C164.561 78.6652 166.254 78.5224 167.846 77.992C170.232 77.2032 171.191 75.238 171.756 72.994C172.925 68.3291 174.156 63.6846 175.237 58.9994C175.591 57.4694 176.339 56.9186 177.835 57.0342C178.862 57.1158 179.902 57.0954 180.929 57.0342C182.173 56.9662 182.452 57.5374 182.173 58.6254C180.8 64.0178 179.61 69.4579 178.025 74.7892C175.829 82.1945 169.002 84.4589 162.609 83.8265C161.753 83.7449 160.889 83.5613 160.066 83.3097C156.707 82.3033 154.626 79.5696 155.313 76.1832C156.523 70.1515 158.101 64.1947 159.617 58.231C159.74 57.7414 160.549 57.2722 161.134 57.0954C161.78 56.8982 162.535 57.0478 163.235 57.0478L163.228 57.0546Z" fill="white"/>
<path d="M260.028 78.8893C259.864 78.8893 259.701 78.9097 259.538 78.8893C256.369 78.3589 253.996 79.2157 252.717 82.4322C252.5 82.983 251.487 83.391 250.773 83.5338C249.834 83.7242 248.821 83.629 247.849 83.5678C247.23 83.527 246.618 83.323 246.006 83.1938C246.196 82.609 246.285 81.963 246.597 81.453C249.413 76.8357 252.275 72.2456 255.118 67.642C256.967 64.6499 258.838 61.6715 260.66 58.6659C261.34 57.5439 262.176 56.9386 263.564 57.0406C264.964 57.1426 266.392 57.1358 267.793 57.0406C269.044 56.959 269.541 57.4691 269.677 58.6659C270.255 63.9291 270.887 69.1856 271.492 74.4489C271.764 76.8085 272.016 79.1749 272.295 81.5414C272.485 83.187 272.186 83.5474 270.5 83.5882C270.173 83.595 269.847 83.5882 269.52 83.5882C265.944 83.5882 265.978 83.5882 265.291 80.0181C265.209 79.5897 264.536 79.0049 264.094 78.9573C262.754 78.8145 261.388 78.9097 260.028 78.9029V78.8893ZM265.026 73.3133C264.679 70.0764 264.346 67.0368 264.019 63.9971C263.897 63.9903 263.768 63.9835 263.645 63.9767C261.809 67.0368 259.966 70.0968 258.035 73.3133H265.026Z" fill="white"/>
<path d="M209.673 62.9704C207.572 62.9704 205.681 62.9364 203.798 62.984C202.458 63.018 202.07 62.4944 202.41 61.2024C203.668 56.4015 202.982 57.0815 207.524 57.0611C212.957 57.0339 218.391 57.0475 223.831 57.0611C225.626 57.0611 225.782 57.2447 225.347 58.9176C224.157 63.5416 224.953 62.9432 220.193 62.9772C216.595 63.0044 216.609 62.984 215.732 66.4929C214.46 71.5793 213.127 76.6522 211.917 81.7523C211.591 83.1259 210.89 83.6631 209.537 83.6019C208.51 83.5543 207.47 83.5475 206.443 83.6019C205.001 83.6767 204.641 83.1055 205.001 81.7251C206.504 75.9178 207.932 70.0901 209.387 64.2692C209.462 63.9632 209.53 63.6504 209.686 62.984L209.673 62.9704Z" fill="white"/>
<path d="M188.953 77.8831C192.401 77.8831 195.699 77.8831 199.004 77.8831C201.241 77.8831 201.288 77.9375 200.772 80.0388C199.86 83.7448 200.302 83.5952 196.338 83.5816C191.775 83.568 187.212 83.5816 182.656 83.5816C180.793 83.5816 180.582 83.2892 181.038 81.4532C182.921 73.9595 184.846 66.4794 186.675 58.9789C187.022 57.5645 187.654 56.9253 189.13 57.0409C190.211 57.1225 191.299 57.0885 192.387 57.0477C193.652 57.0001 193.999 57.4489 193.672 58.7205C192.149 64.6298 190.701 70.5594 189.225 76.4823C189.123 76.8903 189.062 77.2983 188.946 77.8831H188.953Z" fill="white"/>
<path d="M83.3137 82.2962C81.7292 83.9691 80.2128 85.5671 78.6148 87.2603C72.7803 77.1894 67.0206 67.2408 61.1182 57.0543C63.6342 57.0543 65.8442 57.0067 68.0543 57.0951C68.4623 57.1087 68.9927 57.5915 69.2239 57.9927C73.9159 66.0304 78.5672 74.0885 83.3137 82.2894V82.2962Z" fill="white"/>
<path d="M50 57.0543C51.7952 57.0543 53.298 56.9931 54.7873 57.1019C55.2021 57.1291 55.7189 57.5915 55.9501 57.9927C62.1518 68.6416 68.3262 79.311 74.5211 89.9735C74.9291 90.6739 75.0379 91.2043 74.3511 91.8027C73.4535 92.5779 72.6239 93.4347 71.6379 94.3867C64.4774 82.0378 57.3169 69.682 50 57.0543Z" fill="white"/>
<path d="M184.9 104.254C184.9 102.527 184.9 100.806 184.9 99.0789C184.9 97.9432 184.635 97.0184 183.275 96.9096C181.962 96.8008 180.963 97.5828 180.847 98.9633C180.738 100.255 180.847 101.561 180.745 102.853C180.704 103.397 180.371 103.914 180.174 104.444C179.95 103.941 179.576 103.451 179.528 102.928C179.419 101.636 179.508 100.33 179.44 99.0381C179.372 97.78 178.936 96.7668 177.386 96.9232C175.958 97.066 175.285 97.9092 175.292 99.3237C175.292 100.99 175.292 102.656 175.292 104.322C175.135 104.417 174.979 104.505 174.822 104.601C174.537 104.274 174.013 103.961 174 103.628C173.925 101.302 173.945 98.9769 173.986 96.6512C173.986 96.3792 174.333 95.9032 174.537 95.8896C174.843 95.8692 175.169 96.182 175.632 96.4268C177.848 95.3116 178.692 95.3796 180.392 96.9776C180.759 96.7192 181.119 96.42 181.52 96.1888C183.765 94.9104 186.056 96.0256 186.267 98.5825C186.403 100.248 186.349 101.935 186.267 103.608C186.247 103.961 185.743 104.288 185.465 104.628C185.274 104.505 185.084 104.376 184.9 104.254Z" fill="white"/>
<path d="M279.959 103.05C277.511 104.567 275.498 104.472 274.138 102.867C272.818 101.31 272.886 98.5691 274.274 97.0187C275.695 95.4207 277.626 95.3051 279.68 96.5767C280.095 96.3047 280.441 96.0735 280.795 95.8423C280.992 96.2163 281.359 96.5903 281.366 96.9711C281.414 99.4599 281.448 101.956 281.353 104.438C281.285 106.362 279.952 107.457 277.735 107.661C275.518 107.865 274.07 107.022 273.512 104.948C274.124 105.192 274.688 105.247 274.974 105.56C276.083 106.763 277.402 106.702 278.707 106.192C280.061 105.662 280.183 104.465 279.959 103.057V103.05ZM280.108 99.9971C280.135 98.0931 279.088 96.8487 277.429 96.8079C275.824 96.7671 274.62 98.0591 274.566 99.8747C274.512 101.65 275.722 103.071 277.286 103.078C278.945 103.078 280.081 101.84 280.108 99.9904V99.9971Z" fill="white"/>
<path d="M204.165 103.723C202.254 104.947 200.316 104.927 198.956 103.506C197.521 102.01 197.439 98.9158 198.786 97.1817C200.126 95.4545 201.962 95.2845 204.729 96.7057C204.729 95.4069 204.675 94.1693 204.763 92.9521C204.79 92.5509 205.185 92.1701 205.416 91.7825C205.634 92.1361 206.035 92.4897 206.042 92.8501C206.089 96.6309 206.069 100.412 206.069 104.655C205.348 104.301 204.892 104.077 204.178 103.723H204.165ZM204.777 100.106C204.756 98.025 203.736 96.8009 202.016 96.8077C200.309 96.8077 199.18 98.2086 199.221 100.283C199.255 102.241 200.296 103.492 201.9 103.506C203.634 103.519 204.79 102.153 204.777 100.106Z" fill="white"/>
<path d="M256.247 96.6581C256.786 93.4938 257.267 91.8957 257.688 91.864V104.655C257.035 104.295 256.539 104.016 255.975 103.71C253.799 104.947 251.786 104.866 250.535 103.397C249.229 101.874 249.256 98.6301 250.589 97.0457C251.922 95.4545 253.853 95.2981 256.247 96.6513V96.6581ZM250.943 100.092C250.902 102.132 251.949 103.465 253.595 103.499C255.335 103.533 256.519 102.173 256.525 100.133C256.532 98.1269 255.444 96.8145 253.758 96.8009C252.092 96.7873 250.977 98.0929 250.943 100.099V100.092Z" fill="white"/>
<path d="M196.046 100.466H189.932C189.871 101.908 190.313 102.894 191.557 103.308C192.754 103.71 193.883 103.655 194.767 102.506C195.005 102.193 195.57 102.132 196.182 101.874C195.549 104.213 193.733 105.07 191.347 104.458C189.096 103.88 187.879 101.466 188.525 98.8544C189.082 96.6036 191.041 95.3456 193.332 95.7808C195.42 96.1752 196.515 97.9636 196.046 100.473V100.466ZM194.808 99.2692C194.631 97.542 193.869 96.7736 192.435 96.8076C191.013 96.8416 190.184 97.712 190.143 99.2692H194.808Z" fill="white"/>
<path d="M236.88 98.4533C237.145 96.2229 238.335 95.5157 240.47 95.7333C242.13 95.9033 243 96.8553 243.041 98.6913C243.088 100.527 243.048 102.363 243.048 104.193C241.443 104.322 239.926 104.526 238.41 104.533C237.104 104.533 236.288 103.751 236.125 102.438C235.955 101.017 236.744 100.14 238.009 99.7861C239.09 99.4801 240.246 99.4189 241.817 99.1741C241.49 98.4397 241.286 97.2429 240.865 97.1613C240.001 96.9981 239.002 97.3721 238.097 97.6441C237.648 97.7801 237.288 98.1677 236.88 98.4465V98.4533ZM241.32 100.255C240.368 100.425 239.287 100.48 238.335 100.861C237.92 101.031 237.519 101.935 237.608 102.404C237.696 102.846 238.403 103.39 238.913 103.492C240.45 103.791 242.32 102.479 241.32 100.255Z" fill="white"/>
<path d="M271.084 104.097C269.609 104.301 268.405 104.526 267.188 104.628C265.57 104.764 264.38 103.893 264.169 102.533C263.951 101.153 264.801 100.017 266.426 99.6705C267.426 99.4597 268.453 99.3985 269.928 99.2081C269.541 98.3989 269.296 97.202 268.861 97.1272C267.997 96.9844 267.018 97.4129 266.114 97.6917C265.665 97.8345 265.277 98.1745 264.577 98.5961C265.066 96.318 266.114 95.6108 268.242 95.7128C270.003 95.8012 270.996 96.6716 271.071 98.4125C271.152 100.35 271.091 102.295 271.091 104.084L271.084 104.097ZM269.432 100.255C268.46 100.412 267.406 100.412 266.522 100.792C266.059 100.99 265.631 101.881 265.672 102.425C265.699 102.819 266.474 103.411 266.977 103.492C268.895 103.791 269.874 102.561 269.432 100.255Z" fill="white"/>
<path d="M337.222 99.1603C336.569 98.2287 336.202 97.1611 335.658 97.0591C334.869 96.9095 333.938 97.4331 333.094 97.7323C332.632 97.8887 332.217 98.1743 331.496 98.5415C332.176 96.2159 333.428 95.4747 335.59 95.7399C337.256 95.9439 338.025 96.8687 338.045 98.7659C338.065 100.602 338.045 102.438 338.045 104.084C336.569 104.288 335.237 104.6 333.904 104.607C332.612 104.607 331.401 104.192 331.211 102.588C331.027 101.037 331.7 100.058 333.366 99.6839C334.414 99.4527 335.495 99.3847 337.215 99.1603H337.222ZM336.495 100.255C335.475 100.425 334.38 100.446 333.448 100.84C332.992 101.03 332.578 101.948 332.625 102.486C332.666 102.873 333.468 103.424 333.992 103.499C335.876 103.764 336.909 102.492 336.495 100.255Z" fill="white"/>
<path d="M293.627 100.153C293.634 97.406 295.279 95.6924 297.87 95.7128C300.42 95.74 302.1 97.5556 302.066 100.248C302.038 102.799 300.304 104.601 297.85 104.648C295.361 104.689 293.613 102.839 293.62 100.153H293.627ZM294.966 100.153C294.96 102.132 296.034 103.445 297.714 103.499C299.454 103.553 300.651 102.2 300.651 100.174C300.651 98.1949 299.57 96.8688 297.897 96.8144C296.15 96.76 294.973 98.0997 294.96 100.153H294.966Z" fill="white"/>
<path d="M285.657 96.4338C286.82 96.189 287.894 95.7742 288.969 95.7878C290.499 95.8082 291.301 96.8826 291.376 98.3446C291.464 100.072 291.437 101.806 291.383 103.54C291.376 103.846 291.002 104.145 290.791 104.444C290.567 104.111 290.165 103.785 290.145 103.438C290.07 102.037 290.118 100.623 290.111 99.215C290.111 98.0182 289.778 97.0594 288.37 96.9166C286.942 96.767 285.841 97.4606 285.671 98.8818C285.494 100.378 285.616 101.908 285.507 103.417C285.48 103.812 285.059 104.186 284.814 104.567C284.671 104.492 284.528 104.41 284.385 104.335C284.351 104.125 284.29 103.921 284.29 103.71C284.29 101.167 284.29 98.6302 284.29 95.5906C285.004 96.0326 285.46 96.3182 285.657 96.4406V96.4338Z" fill="white"/>
<path d="M228.373 96.4812C229.284 96.2296 230.189 95.808 231.114 95.7536C232.814 95.6584 233.908 96.6716 233.99 98.3852C234.078 100.323 234.01 102.275 233.63 104.553C233.33 104.226 232.8 103.92 232.773 103.574C232.671 102.173 232.725 100.758 232.725 99.3508C232.725 98.018 232.385 96.9708 230.787 96.9096C229.318 96.8552 228.312 97.6848 228.203 99.2352C228.101 100.582 228.217 101.942 228.128 103.295C228.101 103.696 227.7 104.07 227.469 104.458C227.265 104.097 226.897 103.744 226.891 103.383C226.836 100.956 226.863 98.5212 226.863 95.5972C227.605 96.0392 228.067 96.3112 228.373 96.4948V96.4812Z" fill="white"/>
<path d="M303.507 101.595C304.214 102.01 304.636 102.255 305.058 102.506C305.629 102.839 306.241 103.492 306.771 103.424C307.472 103.343 308.111 102.703 308.771 102.302C308.261 101.792 307.819 101.167 307.213 100.813C306.629 100.473 305.853 100.48 305.207 100.221C303.902 99.6978 303.371 98.3853 304.004 97.1749C304.711 95.8285 305.989 95.5837 307.356 95.7605C308.635 95.9237 309.58 96.5221 309.689 98.3649C309.077 98.0453 308.696 97.8005 308.288 97.6305C307.635 97.3585 306.962 96.9505 306.302 96.9505C305.901 96.9505 305.207 97.5897 305.173 97.9841C305.146 98.3785 305.697 98.9905 306.139 99.2013C306.805 99.521 307.608 99.5277 308.335 99.7454C309.505 100.092 310.151 100.847 310.083 102.132C310.015 103.363 309.417 104.138 308.22 104.465C305.826 105.117 304.119 104.233 303.514 101.602L303.507 101.595Z" fill="white"/>
<path d="M220.322 100.929C220.172 103.411 218.826 104.614 216.765 104.642C214.474 104.676 212.719 103.084 212.529 100.793C212.305 98.1204 213.726 96.0668 216.024 95.7471C218.323 95.4207 219.866 96.3796 220.39 98.9092C219.717 98.5284 219.166 98.3992 218.948 98.0592C218.309 97.0596 217.439 96.706 216.323 96.876C215.052 97.0732 214.345 97.8892 214.039 99.1064C213.617 100.813 214.134 102.472 215.317 103.152C216.636 103.907 218.132 103.506 219.003 102.221C219.261 101.84 219.669 101.554 220.308 100.936L220.322 100.929Z" fill="white"/>
<path d="M329.246 98.8001C328.878 98.5485 328.525 98.2833 328.144 98.0453C327.491 97.6305 326.866 97.0117 326.152 96.8689C324.798 96.6037 323.636 97.6237 323.255 99.1265C322.786 100.983 323.445 102.676 324.873 103.281C326.206 103.846 327.362 103.411 328.321 102.037C328.545 101.717 328.926 101.5 329.375 101.119C329.565 103.159 328.45 104.322 326.396 104.58C324.078 104.873 322.092 103.343 321.779 101.037C321.419 98.3445 322.82 96.1345 325.145 95.7537C327.491 95.3661 329.096 96.3521 329.239 98.7933L329.246 98.8001Z" fill="white"/>
<path d="M314.007 95.5227C314.761 95.8219 315.36 96.0599 315.958 96.2979C315.904 96.4815 315.849 96.6583 315.795 96.8419C315.224 96.9099 314.659 96.9711 313.891 97.0663C313.891 98.8003 313.796 100.568 313.959 102.316C314 102.744 314.863 103.098 315.36 103.479C315.577 103.649 315.815 103.798 316.047 103.955C315.829 104.145 315.645 104.438 315.394 104.506C313.871 104.914 312.674 104.077 312.579 102.493C312.497 101.146 312.565 99.7999 312.524 98.4467C312.504 97.8075 312.796 96.9575 311.647 96.8895C311.572 96.8895 311.531 96.2979 311.477 95.9851C313.204 96.3727 311.769 93.3602 313.592 94.0198C313.891 94.1286 313.891 95.0603 314.007 95.5227Z" fill="white"/>
<path d="M208.966 104.213C208.966 101.738 208.945 99.2625 208.993 96.7941C208.993 96.4745 209.353 96.1617 209.544 95.8489C209.795 96.1685 210.251 96.4881 210.264 96.8213C210.326 99.0857 210.332 101.35 210.258 103.608C210.244 103.955 209.741 104.281 209.462 104.621C209.299 104.485 209.129 104.356 208.966 104.22V104.213Z" fill="white"/>
<path d="M222.661 104.206C222.661 101.731 222.641 99.2556 222.688 96.7804C222.688 96.4608 223.049 96.1548 223.246 95.8352C223.497 96.1616 223.953 96.4744 223.967 96.8076C224.028 99.072 224.035 101.336 223.96 103.594C223.946 103.941 223.436 104.267 223.157 104.607C222.994 104.471 222.831 104.335 222.668 104.199L222.661 104.206Z" fill="white"/>
<path d="M261.483 104.628C261.218 104.274 260.742 103.921 260.735 103.56C260.667 101.296 260.674 99.0313 260.728 96.7737C260.735 96.4609 261.122 96.1549 261.333 95.8489C261.564 96.1821 261.993 96.5017 262 96.8417C262.054 99.3101 262.034 101.785 262.034 104.254C261.85 104.383 261.673 104.505 261.49 104.635L261.483 104.628Z" fill="white"/>
<path d="M318.161 100.099C318.161 98.9701 318.114 97.8345 318.195 96.7125C318.216 96.4133 318.61 96.1345 318.828 95.8489C319.039 96.1481 319.419 96.4473 319.426 96.7533C319.481 99.0109 319.474 101.269 319.426 103.526C319.426 103.839 319.059 104.145 318.869 104.451C318.631 104.131 318.216 103.819 318.195 103.485C318.107 102.363 318.161 101.228 318.161 100.099Z" fill="white"/>
<path d="M300.005 92.0341C299.108 93.0405 298.448 93.7817 297.782 94.5229L297.367 94.1421C297.822 93.1969 297.639 91.6669 299.998 92.0273L300.005 92.0341Z" fill="white"/>
<path d="M224.565 93.1221C224.001 93.5437 223.62 94.0197 223.395 93.9585C223.028 93.8565 222.62 93.4417 222.498 93.0745C222.437 92.8909 222.994 92.2856 223.273 92.2856C223.627 92.2856 223.973 92.714 224.565 93.1221Z" fill="white"/>
<path d="M262.476 93.1968C261.925 93.5776 261.524 94.0332 261.326 93.9584C260.973 93.8224 260.592 93.394 260.531 93.0336C260.49 92.816 261.048 92.2516 261.286 92.2788C261.639 92.3196 261.938 92.7548 262.476 93.1968Z" fill="white"/>
<path d="M210.904 93.2377C210.21 93.5981 209.809 93.9653 209.448 93.9381C209.19 93.9177 208.768 93.3329 208.796 93.0337C208.823 92.7413 209.346 92.2517 209.605 92.2789C209.972 92.3197 210.292 92.7549 210.904 93.2377Z" fill="white"/>
</g>
<defs>
<linearGradient id="paint0_linear_6229_246" x1="339.22" y1="-65.7073" x2="-8.05636" y2="40.809" gradientUnits="userSpaceOnUse">
<stop stop-color="#DCDAE2"/>
<stop offset="1" stop-color="#7A7786" stop-opacity="0"/>
</linearGradient>
<clipPath id="clip0_6229_246">
<rect width="306.752" height="52.0003" fill="white" transform="translate(50 57)"/>
</clipPath>
</defs>
</svg>
