<svg width="318" height="241" viewBox="0 0 318 241" fill="none" xmlns="http://www.w3.org/2000/svg">
<g clip-path="url(#clip0_2410_1132)">
<path opacity="0.6" d="M215.076 193.388C208.302 185.758 198.557 181.381 188.351 181.381H120.334C106.778 181.381 94.1745 189.249 88.2564 201.361C86.4623 204.986 85.3085 208.895 84.832 212.959L78.3481 268.009C76.8295 280.873 80.5516 293.089 88.837 302.401C97.0703 311.669 108.676 316.776 121.51 316.776H168.066C180.058 316.776 191.82 312.168 201.178 303.801C210.528 295.449 216.446 284.275 217.845 272.342L223.86 221.312C225.044 211.187 221.843 201.004 215.069 193.381L215.076 193.388ZM115.115 272.349L121.123 221.334C121.316 219.666 122.731 218.408 124.413 218.408H183.2C185.18 218.408 186.721 220.135 186.49 222.108L181.078 268.024C180.349 274.27 174.267 279.756 168.066 279.756H121.51C120.021 279.756 117.944 279.421 116.522 277.821C115.033 276.138 114.936 273.912 115.123 272.342L115.115 272.349ZM318.231 133.797L312.335 183.837C310.98 195.316 305.285 206.051 296.3 214.076C287.3 222.116 276 226.545 264.483 226.545H230.798C230.032 226.545 229.443 225.875 229.533 225.116L229.898 222.026C231.163 211.187 228.126 200.297 221.53 191.691C220.845 190.798 221.493 189.517 222.61 189.517H264.483C269.754 189.517 274.928 184.842 275.56 179.505L281.449 129.487C281.598 128.244 281.531 126.502 280.414 125.244C279.357 124.053 277.742 123.8 276.58 123.8H230.389C225.051 123.8 220.555 127.797 219.93 133.098L214.205 181.768C214.086 182.788 212.925 183.301 212.084 182.721C205.16 177.949 196.897 175.314 188.344 175.314H179.121C178.354 175.314 177.766 174.644 177.855 173.884L185.783 106.566C187.108 95.281 196.674 86.7722 208.041 86.7722H276.588C288.953 86.7722 300.141 91.6928 308.092 100.641C316.079 109.611 319.682 121.388 318.231 133.797Z" fill="#0068A3"/>
<path opacity="0.3" d="M210.416 33.092H163.845C156.408 33.092 149.373 39.4196 148.487 46.9159L141.266 108.264C139.711 121.492 128.492 131.46 115.174 131.46H52.1516C45.6528 131.46 39.5113 136.991 38.7446 143.542L32.8488 193.574C32.6403 195.301 32.752 197.751 34.4493 199.656C36.0944 201.503 38.4022 201.89 40.0473 201.89H80.4024C81.5637 201.89 82.3677 203.036 81.9955 204.138C81.0873 206.803 80.462 209.565 80.127 212.401L77.7672 232.441C77.6481 233.438 76.7994 234.19 75.7945 234.19H40.0473C28.3673 234.19 17.804 229.545 10.3077 221.118C2.76668 212.632 -0.620439 201.51 0.764186 189.793L6.65256 139.768C7.93297 128.869 13.3449 118.656 21.8983 111.018C30.4592 103.365 41.2012 99.152 52.1516 99.152H101.261C106.137 99.152 110.239 95.5043 110.805 90.6656L116.403 43.1342C117.743 31.7669 123.393 21.1217 132.311 13.1563C141.244 5.17615 152.44 0.784058 163.845 0.784058H210.416C222.542 0.784058 233.515 5.60791 241.309 14.3549C249.141 23.1614 252.662 34.7148 251.24 46.901L247.555 78.0848C247.421 79.1866 246.49 80.0203 245.374 80.0203H217.287C215.977 80.0203 214.957 78.8739 215.106 77.5712L219.14 43.1417C219.379 41.0945 219.23 38.1615 217.153 35.8166C215.143 33.561 212.374 33.0845 210.408 33.0845H210.416V33.092Z" fill="#73CBD9"/>
</g>
<defs>
<clipPath id="clip0_2410_1132">
<rect width="318.084" height="315.992" fill="white" transform="translate(0.459274 0.784058)"/>
</clipPath>
</defs>
</svg>
